<svg version="1" xmlns="http://www.w3.org/2000/svg" width="1365.333" height="1365.333" viewBox="0 0 1024.000000 1024.000000"><path d="M0 512v512h1024V0H0v512zm369.6-239.8c-.9.5-1.6 1.4-1.6 2.1 0 .9.2.9.8 0 .7-1.2 1.9-1.1 7.2.2 5.3 1.3 6.5 1.4 7.1.4.4-.7.8-.6 1.2.3.3.8 0 1.5-.6 1.6-.7 0-2.1.3-3.2.6-1.1.2-2.4.5-2.9.5-2.7.2 1 1.4 5.1 1.7 4.4.2 4.5.2 1.3-.5-3.8-.9-3.4-1.2 1.8-1.6 1.9-.1 4 .4 4.8 1.2 1.1 1.1 1.4 1.2 1.4.1 0-1 .2-1 .8-.1.7 1.1 1.9 1.1 7.2-.2.8-.2 2-.4 2.5-.4.6-.1.3-.6-.5-1.1-1.1-.7-.7-1 1.8-1 1.9 0 3.2-.5 3.2-1.3s.4-.7 1 .3c.7 1.1 1 1.2 1 .2s1.2-1.3 4.5-.9c4.7.4 6.3 1.2 5.1 2.4-.4.4-1.1.2-1.5-.5-.5-.8-.8.3-.8 2.5 0 2.1.2 2.8.4 1.5.2-1.2.9-2.2 1.4-2.2 1.4 0 1.1 5-.3 5.1-1 0-1 .2 0 .6.9.4 1.2 7.4 1.2 30.4V344h-27v47h-26v48h-26.2l.4-63.3c.1-34.7.4-66.9.6-71.5l.4-8.2H367l.1-7.3c.1-3.9.1-7.5 0-8 0-.4.9-.7 2.2-.7 1.8 0 1.9.2.7 1-1.1.8-.8.9 1.4.6 3.1-.5 4.7-1.5 2.8-1.7-.7-.1-1.6-.3-2.2-.4-.5-.1-1.8-.3-2.7-.4-1.4-.1-1.8-1-1.7-4.1.2-5.2.1-5 2-4.3 1.5.5 1.5.7 0 1.5zm65.3-.7c.3.3-.7.4-2.3.1-1.6-.3-3.1-.8-3.5-1.1-.3-.3.7-.4 2.3-.1 1.6.3 3.1.8 3.5 1.1zm319.6-.5c.6 0 .2.5-.7 1.1-1 .5-1.8 1.5-1.8 2.2 0 .9.2.9.8 0 .4-.7 1.8-1 3-.8 1.2.3 3.1.7 4.2.9 1.1.3 2.4.7 2.9 1 1.3.8.7 5.6-.9 6.8-1.3.8-1.2.9.1.5 1.4-.5 1.7.5 1.8 6.4l.1 6.9h-53.1l.2-7c.2-6.3.4-7 2.3-7.1 2-.1 2-.1.1-.7-1.3-.5-2-1.6-2-3.2 0-2 .5-2.4 3-2.6 4.8-.2 5.2-.6 1.5-1.4l-3.5-.7 3.5-.2c2.7-.1 3.2-.4 2-1.1-1.1-.8-.8-.9 1.4-.6 3.1.6 4.8 1.6 2.5 1.6-1.1 0-1.1.2.1 1 1 .7 1.1 1 .3 1.1-.7.1-1.7.3-2.3.4-.5.1-1.6.3-2.2.4-.9.1-.8.4.2 1.1 1.1.7.7 1-1.7 1-1.8 0-3.3.5-3.3 1 0 .9 1.8.8 7-.5.8-.2 2-.4 2.5-.4.6-.1.3-.6-.5-1.1-1.1-.7-.7-1 1.8-1 1.9 0 3.2-.5 3.2-1.3s.4-.7 1 .3c.7 1.1 1 1.2 1 .2s1.1-1.3 4.3-.9c8.4 1 12.7 2.7 7 2.7-1.7 0-3.3-.3-3.6-.8-.2-.4-.2-.1 0 .6.1.7-.1 1.1-.6.8-.4-.3-.6.7-.2 2.2.5 2.6.6 2.6.9.4.3-2.2.7-2.3 4.5-1.9 2.3.3 5.1.8 6.2 1.1 1.1.2 3.4.5 5 .5 2.4.1 2.7.3 1.5 1.1-1.1.8-.8.9 1.4.6 3.1-.5 4.7-1.5 2.8-1.7-.7-.1-1.6-.3-2.2-.4-.5-.1-2.3-.3-4-.4-2.4-.1-3-.6-3.1-2.4-.1-2.1-.1-2.1-.9.3s-.8 2.4-.9.2c-.1-1.2-.4-2.2-.8-2.3-2.3-.2-4.6-.8-5.1-1.4-.4-.3.6-.4 2.1-.1 1.5.3 3.8.8 5.2 1.1 1.4.3 2.5.1 2.5-.5 0-.5-.6-1-1.2-1.1-.9 0-.9-.2.1-.6 1.1-.5 1.1-.7 0-1.4-1-.6-.6-.8 1.1-.5 1.4.3 3 .5 3.5.6zm-352 .9c.6.1.3.6-.5 1.1-1.3.9-1.3 1 0 1 1.2.1 1.1.3-.3 1.1-.9.6-1.5 1.4-1.3 1.8.3.4-1.3.8-3.5.9-2.6.2-3.9-.1-3.9-1s-.3-.9-1 .2c-.6 1-1 1.1-1 .2 0-.7-1.3-1.2-3-1.2-1.6 0-3-.5-3-1 0-.6 1.2-.8 2.8-.4 4.3.9 8.6 1.1 10.2.5.9-.3.2-.8-2-1.2l-3.5-.6 3.5-.2c2.7-.1 3.1-.4 2-1.1-1.1-.8-.9-.9 1-.6 1.4.3 3 .5 3.5.5zm-17.7.8c-1.6.2-4 .2-5.5 0-1.6-.2-.3-.4 2.7-.4s4.3.2 2.8.4zm378.9-.1c-.3.3-1.2.4-1.9.1-.8-.3-.5-.6.6-.6 1.1-.1 1.7.2 1.3.5zM657 332v12h27v24h26v47h-26v24h-53v24h-53v24l-26.2.2-26.3.3-.3 11.7-.3 11.8H499v-46.9l13.3-.3 13.2-.3.3-11.8.3-11.7H552v-48h27v-24h26v-24h26v-24h26v12zm-450 47.5V391l-10.7.1c-6 0-11.6.2-12.5.4-1.6.3-1.8-.8-1.8-11.6V368h25v11.5zm0 48.5v12h27v119l-2.2.1c-3.9.1-35.9.1-43.5 0l-7.3-.1-.2-47.8-.3-47.7-12.7-.3-12.8-.3V440h26v-24h26v12zm159 72v12h27.1l-.1 8.2c-.1 4.6-.1 26.2-.1 48l.1 39.8h53v24h26v95h-26v24h-52.9l-.3 12.2-.3 12.3-26.2.3-26.3.2v-25h-26l-.2-35.8-.3-35.7-13.2-.3-13.3-.3V656h-27v23l-26.2.2-26.3.3-.3 12.2-.3 12.3H181v23h-53v-46.9l13.3-.3 13.2-.3.3-35.8.2-35.7h79v-48h27v-24h26v-24h27v-24h52v12zm450.2 95.7l.3 11.8 13.3.3 13.2.3v70.8l-13.2.3-13.3.3-.3 12.2-.3 12.3H658.1l-.3-12.3-.3-12.2-52.7-.3-52.8-.2v-23h79v-24h26.5c20.5 0 26.5-.3 26.6-1.3V608l39.7-.2 39.7-.3.1-10c.1-5.5.2-10.8.3-11.8.1-1.6 2.1-1.7 26.1-1.7h25.9l.3 11.7zm79.8 35.8V655h-26v-47h26v23.5zm-609 120V775h-80v-47h80v23.5zm52.1 58.7c.1 5.7.2 11 .3 11.8.1 1.2 2.4 1.5 13.4 1.8l13.2.3V847h27v24H287v-71h52l.1 10.2zM446 884v12h-53v-24h53v12z"/><path d="M369 276.5c0 1 .8 1.3 2.3 1.1 1.2-.3 3.5-.5 5.1-.5 4.1-.1 2.9-.8-2.6-1.4-3.8-.5-4.8-.3-4.8.8zM410.3 275.7c-2.7.9-1.2 2.3 2 1.9 1.7-.3 2.6-.3 2 0-1.5.6-1.8 4.4-.4 4.4 1.1 0 2-4.5 1.2-5.8-.6-.9-2.8-1.1-4.8-.5z"/><path d="M411.2 280c0 1.4.2 1.9.5 1.2.2-.6.2-1.8 0-2.5-.3-.6-.5-.1-.5 1.3zM401.7 280.2c-.7.4-.7.8-.2.9.6 0 2.1.2 3.5.5 1.7.3 2.1.1 1.1-.5-1.1-.7-1.1-.9 0-1.4.8-.3.4-.4-.9-.4-1.2.1-2.8.5-3.5.9zM377.7 282.2c-.7.5 0 .6 1.7.4 1.6-.3 3.1-.7 3.3-1 .8-.8-3.7-.2-5 .6zM390.3 281.7c.9.2 2.5.2 3.5 0 .9-.3.1-.5-1.8-.5-1.9 0-2.7.2-1.7.5zM719.5 272.9c-.3.5-.2 1.2.3 1.5.5.3.9-.1.9-.9 0-1.7-.3-1.9-1.2-.6zM730.1 275.8c-2.1.7-1.1 2.2 1.2 1.8 1.2-.3 2.5-.5 3-.5.4-.1.7-.5.7-1 0-.9-2.5-1.1-4.9-.3zM751.1 276.6c0 1.1.3 1.4.6.6.3-.7.2-1.6-.1-1.9-.3-.4-.6.2-.5 1.3zM753 276.5c0 1 .8 1.3 2.3 1.1 1.2-.3 3.5-.5 5.1-.5 4.1-.1 2.9-.8-2.6-1.4-3.8-.5-4.8-.3-4.8.8zM731.2 280c0 1.4.2 1.9.5 1.2.2-.6.2-1.8 0-2.5-.3-.6-.5-.1-.5 1.3zM733 280c0 1.1.5 2 1 2 .6 0 1-.9 1-2s-.4-2-1-2c-.5 0-1 .9-1 2zM721.7 280.2c-.7.4-.7.8-.2.9.6 0 2.1.2 3.5.5 1.7.3 2.1.1 1.1-.5-1.1-.7-1.1-.9 0-1.4.8-.3.4-.4-.9-.4-1.2.1-2.8.5-3.5.9zM742.3 281.7c.9.2 2.5.2 3.5 0 .9-.3.1-.5-1.8-.5-1.9 0-2.7.2-1.7.5zM399.9 272.5c-.1.3-.2 1-.3 1.5 0 .6-.8 1.5-1.6 2-.9.6-1 1-.3 1 1.3 0 2.6-1.7 2.9-3.8.2-1.1-.5-1.8-.7-.7z"/></svg>