<?xml version="1.0" encoding="UTF-8"?>
<svg width="300" height="300" viewBox="0 0 512 512" version="1.1" xmlns="http://www.w3.org/2000/svg" xmlns:xlink="http://www.w3.org/1999/xlink">
    <!-- Generator: Sketch 52.3 (67297) - http://www.bohemiancoding.com/sketch -->
    <title>Logo</title>
    <desc>Created with Sketch.</desc>
    <defs>
        <linearGradient x1="50%" y1="0%" x2="50%" y2="100%" id="linearGradient-1">
            <stop stop-color="#DC2424" offset="0%"></stop>
            <stop stop-color="#9D4A55" offset="100%"></stop>
        </linearGradient>
    </defs>
    <g id="Logo" stroke="none" stroke-width="1" fill="none" fill-rule="evenodd">
        <path d="M194.66472,0 L212,0 L212,31.9370028 L194.66472,31.9370028 L194.66472,47.9612008 L212,47.9612008 L212,96.2035348 L194.66472,96.2035348 L194.66472,144.214868 L177.008732,144.214868 L177.008732,176.064433 L159.529734,176.064433 L159.529734,208 L142,208 L142,112.133225 L159.529734,112.133225 L159.529734,64.0657979 L177.008732,64.0657979 L177.008732,31.9370028 L194.66472,31.9370028 L194.66472,0 Z M512,320 L512,352 L494,352 L494,320 L512,320 Z M212,512 L176.784081,512 L176.784081,495.644633 L106,495.644633 L106,448 L141.151307,448 L141.151307,463.602825 L158.917671,463.602825 L158.917671,479.420662 L176.784081,479.420662 L176.784081,495.644633 L212,495.644633 L212,512 Z M0,399.966689 L0,367.890904 L17.6733871,367.890904 L17.6733871,320.103721 L70.7743282,320.103721 L70.7743282,288.050381 L35.2719145,288.050381 L35.2719145,224.086835 L17.6733871,224.086835 L17.6733871,208.027015 L35.2719145,208.027015 L35.2719145,192 L53.1263399,192 L53.1263399,208.027015 L70.7743282,208.027015 L70.7743282,288.050381 L88.4156325,288.050381 L88.4156325,272.04443 L106.038795,272.04443 L106.038795,255.988409 L123.812822,255.988409 L123.812822,240.025191 L159.219752,240.025191 L159.219752,255.988409 L176.903451,255.988409 L176.903451,320.103721 L212.30828,320.103721 L212.30828,335.99192 L230,335.99192 L230,399.966689 L212.30828,399.966689 L212.30828,415.890801 L176.903451,415.890801 L176.903451,432 L141.62428,432 L141.62428,415.890801 L123.812822,415.890801 L123.812822,367.890904 L106.038795,367.890904 L106.038795,352.018417 L88.4156325,352.018417 L88.4156325,367.890904 L53.1263399,367.890904 L53.1263399,384.075382 L35.2719145,384.075382 L35.2719145,399.966689 L0,399.966689 Z M334.987258,128 L352.547563,128 L352.547563,144.182352 L370.298225,144.182352 L370.298225,160.105174 L388,160.105174 L388,192.147182 L370.298225,192.147182 L370.298225,208.103212 L334.987258,208.103212 L334.987258,224.091549 L299.929413,224.091549 L299.929413,240.113998 L264.661822,240.113998 L264.661822,256 L247,256 L247,224.091549 L264.661822,224.091549 L264.661822,208.103212 L282.247714,208.103212 L282.247714,176.141158 L299.929413,176.141158 L299.929413,160.105174 L317.5,160.105174 L317.5,144.182352 L334.987258,144.182352 L334.987258,128 Z M388,80 L424,80 L424,112 L388,112 L388,80 Z M283,352.127234 L335.822122,352.127234 L335.822122,336.064095 L371.22084,336.064095 L371.22084,319.99226 L423.818021,319.99226 L423.818021,304 L459.340852,304 L459.340852,319.99226 L477,319.99226 L477,367.978171 L459.340852,367.978171 L459.340852,384 L353.491593,384 L353.491593,367.978171 L283,367.978171 L283,352.127234 Z M36,160 L53,160 L53,176 L36,176 L36,160 Z M53,400 L106,400 L106,432 L53,432 L53,400 Z" id="Combined-Shape" fill="url(#linearGradient-1)"></path>
    </g>
</svg>
