<?xml version="1.0" encoding="iso-8859-1"?>
<!-- Generator: Adobe Illustrator 23.0.1, SVG Export Plug-In . SVG Version: 6.00 Build 0)  -->
<svg version="1.1" xmlns="http://www.w3.org/2000/svg" xmlns:xlink="http://www.w3.org/1999/xlink" x="0px" y="0px"
	 viewBox="0 0 1444 1023.138" style="enable-background:new 0 0 1444 1023.138;" xml:space="preserve">
<g id="Lines_4">
	<g id="Sub_2_copy_2">
		<g id="Red-part_9_">
			<g>
				<g>
					<rect x="579.317" y="909.449" style="fill:none;" width="186.862" height="175.138"/>
					<polygon style="fill-rule:evenodd;clip-rule:evenodd;fill:#E1605F;" points="579.317,1084.587 591.362,1084.266 
						766.179,909.449 753.317,909.587 					"/>
				</g>
				<g>
					<rect x="549.273" y="755.965" style="fill:none;" width="186.862" height="175.138"/>
					<polygon style="fill-rule:evenodd;clip-rule:evenodd;fill:#E1605F;" points="549.273,931.102 561.318,930.782 736.136,755.965 
						723.273,756.102 					"/>
				</g>
				<g>
					<rect x="604.364" y="573.663" style="fill:none;" width="186.862" height="175.138"/>
					<polygon style="fill-rule:evenodd;clip-rule:evenodd;fill:#E1605F;" points="604.364,748.801 616.409,748.48 791.227,573.663 
						778.364,573.801 					"/>
				</g>
				<g>
					<rect x="517.106" y="400.174" style="fill:none;" width="186.862" height="175.138"/>
					<polygon style="fill-rule:evenodd;clip-rule:evenodd;fill:#E1605F;" points="517.106,575.311 529.151,574.99 703.969,400.174 
						691.106,400.311 					"/>
				</g>
				<g>
					<rect x="497.92" y="235.141" style="fill:none;" width="186.862" height="175.138"/>
					<polygon style="fill-rule:evenodd;clip-rule:evenodd;fill:#E1605F;" points="497.92,410.278 509.965,409.957 684.782,235.141 
						671.92,235.278 					"/>
				</g>
				<g>
					<rect x="540.747" y="71.821" style="fill:none;" width="186.862" height="175.138"/>
					<polygon style="fill-rule:evenodd;clip-rule:evenodd;fill:#E1605F;" points="540.747,246.959 552.792,246.638 727.609,71.821 
						714.747,71.959 					"/>
				</g>
				<g>
					<rect x="566.632" y="-88" style="fill:none;" width="186.862" height="175.138"/>
					<polygon style="fill-rule:evenodd;clip-rule:evenodd;fill:#E1605F;" points="566.632,87.138 578.677,86.817 753.495,-88 
						740.632,-87.862 					"/>
				</g>
			</g>
		</g>
		<g id="White-part_9_">
			<g>
				<g>
					<rect x="668.106" y="-45.823" style="fill:none;" width="186.862" height="175.138"/>
					<polygon style="fill-rule:evenodd;clip-rule:evenodd;fill:#E1605F;" points="668.106,129.314 680.151,128.994 854.969,-45.823 
						842.106,-45.686 					"/>
				</g>
				<g>
					<rect x="697.313" y="117.865" style="fill:none;" width="186.862" height="175.138"/>
					<polygon style="fill-rule:evenodd;clip-rule:evenodd;fill:#E1605F;" points="697.313,293.002 709.358,292.681 884.175,117.865 
						871.313,118.002 					"/>
				</g>
				<g>
					<rect x="672.049" y="278.292" style="fill:none;" width="186.862" height="175.138"/>
					<polygon style="fill-rule:evenodd;clip-rule:evenodd;fill:#E1605F;" points="672.049,453.43 684.094,453.109 858.911,278.292 
						846.049,278.43 					"/>
				</g>
				<g>
					<rect x="642.804" y="453.104" style="fill:none;" width="186.862" height="175.138"/>
					<polygon style="fill-rule:evenodd;clip-rule:evenodd;fill:#E1605F;" points="642.804,628.242 654.849,627.921 829.666,453.104 
						816.804,453.242 					"/>
				</g>
				<g>
					<rect x="724.348" y="607.705" style="fill:none;" width="186.862" height="175.138"/>
					<polygon style="fill-rule:evenodd;clip-rule:evenodd;fill:#E1605F;" points="724.348,782.843 736.393,782.522 911.21,607.705 
						898.348,607.843 					"/>
				</g>
				<g>
					<rect x="664.218" y="770.687" style="fill:none;" width="186.862" height="175.138"/>
					<polygon style="fill-rule:evenodd;clip-rule:evenodd;fill:#E1605F;" points="664.218,945.825 676.263,945.504 851.081,770.687 
						838.218,770.825 					"/>
				</g>
				<g>
					<rect x="632.461" y="936" style="fill:none;" width="186.862" height="175.138"/>
					<polygon style="fill-rule:evenodd;clip-rule:evenodd;fill:#E1605F;" points="632.461,1111.138 644.506,1110.817 819.323,936 
						806.461,936.138 					"/>
				</g>
			</g>
		</g>
		<g id="Red-part_1_">
			<g>
				<g>
					<rect x="541.618" y="929.022" style="fill:none;" width="186.862" height="175.138"/>
					<polygon style="fill-rule:evenodd;clip-rule:evenodd;fill:#E1605F;" points="541.618,1104.16 553.663,1103.839 728.48,929.022 
						715.618,929.16 					"/>
				</g>
				<g>
					<rect x="549.664" y="751.637" style="fill:none;" width="186.862" height="175.138"/>
					<polygon style="fill-rule:evenodd;clip-rule:evenodd;fill:#E1605F;" points="549.664,926.774 561.709,926.454 736.527,751.637 
						723.664,751.774 					"/>
				</g>
				<g>
					<rect x="541.947" y="574.079" style="fill:none;" width="186.862" height="175.138"/>
					<polygon style="fill-rule:evenodd;clip-rule:evenodd;fill:#E1605F;" points="541.947,749.216 553.992,748.895 728.81,574.079 
						715.947,574.216 					"/>
				</g>
				<g>
					<rect x="602.631" y="413.802" style="fill:none;" width="186.862" height="175.138"/>
					<polygon style="fill-rule:evenodd;clip-rule:evenodd;fill:#E1605F;" points="602.631,588.94 614.676,588.619 789.493,413.802 
						776.631,413.94 					"/>
				</g>
				<g>
					<rect x="502.449" y="238.659" style="fill:none;" width="186.862" height="175.138"/>
					<polygon style="fill-rule:evenodd;clip-rule:evenodd;fill:#E1605F;" points="502.449,413.797 514.495,413.476 689.312,238.659 
						676.449,238.797 					"/>
				</g>
				<g>
					<rect x="514.765" y="81.407" style="fill:none;" width="186.862" height="175.138"/>
					<polygon style="fill-rule:evenodd;clip-rule:evenodd;fill:#E1605F;" points="514.765,256.545 526.81,256.224 701.627,81.407 
						688.765,81.545 					"/>
				</g>
				<g>
					<rect x="542.239" y="-88" style="fill:none;" width="186.862" height="175.138"/>
					<polygon style="fill-rule:evenodd;clip-rule:evenodd;fill:#E1605F;" points="542.239,87.138 554.285,86.817 729.102,-88 
						716.239,-87.862 					"/>
				</g>
			</g>
		</g>
		<g id="White-part_1_">
			<g>
				<g>
					<rect x="722.377" y="78.949" style="fill:none;" width="186.862" height="175.138"/>
					<polygon style="fill-rule:evenodd;clip-rule:evenodd;fill:#E1605F;" points="722.377,254.086 734.422,253.765 909.24,78.949 
						896.377,79.086 					"/>
				</g>
				<g>
					<rect x="615.361" y="255.843" style="fill:none;" width="186.862" height="175.138"/>
					<polygon style="fill-rule:evenodd;clip-rule:evenodd;fill:#E1605F;" points="615.361,430.981 627.406,430.66 802.223,255.843 
						789.361,255.981 					"/>
				</g>
				<g>
					<rect x="676.076" y="420.88" style="fill:none;" width="186.862" height="175.138"/>
					<polygon style="fill-rule:evenodd;clip-rule:evenodd;fill:#E1605F;" points="676.076,596.017 688.121,595.697 862.939,420.88 
						850.076,421.017 					"/>
				</g>
				<g>
					<rect x="681.396" y="604.162" style="fill:none;" width="186.862" height="175.138"/>
					<polygon style="fill-rule:evenodd;clip-rule:evenodd;fill:#E1605F;" points="681.396,779.3 693.442,778.979 868.259,604.162 
						855.396,604.3 					"/>
				</g>
				<g>
					<rect x="666.844" y="760.935" style="fill:none;" width="186.862" height="175.138"/>
					<polygon style="fill-rule:evenodd;clip-rule:evenodd;fill:#E1605F;" points="666.844,936.073 678.889,935.752 853.706,760.935 
						840.844,761.073 					"/>
				</g>
				<g>
					<rect x="640.286" y="936" style="fill:none;" width="186.862" height="175.138"/>
					<polygon style="fill-rule:evenodd;clip-rule:evenodd;fill:#E1605F;" points="640.286,1111.138 652.331,1110.817 827.148,936 
						814.286,936.138 					"/>
				</g>
			</g>
		</g>
		<g id="Skin-background_23_">
			<g>
				<g>
					<rect x="687.639" y="383.212" style="fill:none;" width="186.862" height="175.138"/>
					<polygon style="fill-rule:evenodd;clip-rule:evenodd;fill:#E1605F;" points="687.639,558.349 699.684,558.029 874.501,383.212 
						861.639,383.35 					"/>
				</g>
				<g>
					<rect x="625.156" y="522.611" style="fill:none;" width="186.862" height="175.138"/>
					<polygon style="fill-rule:evenodd;clip-rule:evenodd;fill:#E1605F;" points="625.156,697.749 637.201,697.428 812.019,522.611 
						799.156,522.749 					"/>
				</g>
				<g>
					<rect x="807.269" y="415.19" style="fill:none;" width="186.862" height="175.138"/>
					<polygon style="fill-rule:evenodd;clip-rule:evenodd;fill:#E1605F;" points="807.269,590.328 819.314,590.007 994.132,415.19 
						981.269,415.328 					"/>
				</g>
				<g>
					<rect x="960.7" y="500.355" style="fill:none;" width="186.862" height="175.138"/>
					<polygon style="fill-rule:evenodd;clip-rule:evenodd;fill:#E1605F;" points="960.7,675.492 972.745,675.172 1147.562,500.355 
						1134.7,500.492 					"/>
				</g>
				<g>
					<rect x="1003.735" y="523.955" style="fill:none;" width="186.862" height="175.138"/>
					<polygon style="fill-rule:evenodd;clip-rule:evenodd;fill:#E1605F;" points="1003.735,699.093 1015.78,698.772 
						1190.598,523.955 1177.735,524.093 					"/>
				</g>
				<g>
					<rect x="1065.728" y="344.713" style="fill:none;" width="186.862" height="175.138"/>
					<polygon style="fill-rule:evenodd;clip-rule:evenodd;fill:#E1605F;" points="1065.728,519.851 1077.773,519.53 
						1252.59,344.713 1239.728,344.851 					"/>
				</g>
				<g>
					<rect x="961.035" y="352.058" style="fill:none;" width="186.862" height="175.138"/>
					<polygon style="fill-rule:evenodd;clip-rule:evenodd;fill:#E1605F;" points="961.035,527.196 973.08,526.875 1147.897,352.058 
						1135.035,352.196 					"/>
				</g>
				<g>
					<rect x="785.072" y="413.899" style="fill:none;" width="186.862" height="175.138"/>
					<polygon style="fill-rule:evenodd;clip-rule:evenodd;fill:#E1605F;" points="785.072,589.037 797.117,588.716 971.935,413.899 
						959.072,414.037 					"/>
				</g>
				<g>
					<rect x="606.569" y="319.051" style="fill:none;" width="186.862" height="175.138"/>
					<polygon style="fill-rule:evenodd;clip-rule:evenodd;fill:#E1605F;" points="606.569,494.189 618.614,493.868 793.431,319.051 
						780.569,319.189 					"/>
				</g>
			</g>
		</g>
		<g id="Rat-background_23_">
			<g>
				<g>
					<rect x="263.083" y="330.007" style="fill:none;" width="186.862" height="175.138"/>
					<polygon style="fill-rule:evenodd;clip-rule:evenodd;fill:#E1605F;" points="263.083,505.144 275.128,504.824 449.945,330.007 
						437.083,330.144 					"/>
				</g>
				<g>
					<rect x="206.452" y="496.726" style="fill:none;" width="186.862" height="175.138"/>
					<polygon style="fill-rule:evenodd;clip-rule:evenodd;fill:#E1605F;" points="206.452,671.863 218.498,671.542 393.315,496.726 
						380.452,496.863 					"/>
				</g>
				<g>
					<rect x="274.311" y="432.131" style="fill:none;" width="186.862" height="175.138"/>
					<polygon style="fill-rule:evenodd;clip-rule:evenodd;fill:#E1605F;" points="274.311,607.269 286.356,606.948 461.174,432.131 
						448.311,432.269 					"/>
				</g>
				<g>
					<rect x="429.156" y="502.581" style="fill:none;" width="186.862" height="175.138"/>
					<polygon style="fill-rule:evenodd;clip-rule:evenodd;fill:#E1605F;" points="429.156,677.719 441.201,677.398 616.019,502.581 
						603.156,502.719 					"/>
				</g>
				<g>
					<rect x="556.774" y="479.653" style="fill:none;" width="186.862" height="175.138"/>
					<polygon style="fill-rule:evenodd;clip-rule:evenodd;fill:#E1605F;" points="556.774,654.79 568.819,654.469 743.636,479.653 
						730.774,479.79 					"/>
				</g>
				<g>
					<rect x="593.805" y="352.509" style="fill:none;" width="186.862" height="175.138"/>
					<polygon style="fill-rule:evenodd;clip-rule:evenodd;fill:#E1605F;" points="593.805,527.647 605.85,527.326 780.668,352.509 
						767.805,352.647 					"/>
				</g>
				<g>
					<rect x="486.964" y="391.308" style="fill:none;" width="186.862" height="175.138"/>
					<polygon style="fill-rule:evenodd;clip-rule:evenodd;fill:#E1605F;" points="486.964,566.446 499.009,566.125 673.826,391.308 
						660.964,391.446 					"/>
				</g>
				<g>
					<rect x="321.058" y="315.167" style="fill:none;" width="186.862" height="175.138"/>
					<polygon style="fill-rule:evenodd;clip-rule:evenodd;fill:#E1605F;" points="321.058,490.304 333.103,489.984 507.92,315.167 
						495.058,315.304 					"/>
				</g>
				<g>
					<rect x="158.569" y="335.5" style="fill:none;" width="186.862" height="175.138"/>
					<polygon style="fill-rule:evenodd;clip-rule:evenodd;fill:#E1605F;" points="158.569,510.637 170.614,510.317 345.431,335.5 
						332.569,335.637 					"/>
				</g>
			</g>
		</g>
	</g>
	<g id="Sub_1_copy_3">
		<g id="Red-part_11_">
			<g>
				<g>
					<rect x="586.446" y="924.697" style="fill:none;" width="186.862" height="175.138"/>
					<polygon style="fill-rule:evenodd;clip-rule:evenodd;fill:#DFDFDF;" points="586.446,1099.835 598.491,1099.514 
						773.309,924.697 760.446,924.835 					"/>
				</g>
				<g>
					<rect x="512.14" y="748.176" style="fill:none;" width="186.862" height="175.138"/>
					<polygon style="fill-rule:evenodd;clip-rule:evenodd;fill:#DFDFDF;" points="512.14,923.313 524.185,922.992 699.002,748.176 
						686.14,748.313 					"/>
				</g>
				<g>
					<rect x="528.586" y="573.16" style="fill:none;" width="186.862" height="175.138"/>
					<polygon style="fill-rule:evenodd;clip-rule:evenodd;fill:#DFDFDF;" points="528.586,748.297 540.631,747.977 715.448,573.16 
						702.586,573.297 					"/>
				</g>
				<g>
					<rect x="559.969" y="408.374" style="fill:none;" width="186.862" height="175.138"/>
					<polygon style="fill-rule:evenodd;clip-rule:evenodd;fill:#DFDFDF;" points="559.969,583.512 572.014,583.191 746.831,408.374 
						733.969,408.512 					"/>
				</g>
				<g>
					<rect x="595.172" y="242.87" style="fill:none;" width="186.862" height="175.138"/>
					<polygon style="fill-rule:evenodd;clip-rule:evenodd;fill:#DFDFDF;" points="595.172,418.008 607.217,417.687 782.034,242.87 
						769.172,243.008 					"/>
				</g>
				<g>
					<rect x="512.884" y="77.087" style="fill:none;" width="186.862" height="175.138"/>
					<polygon style="fill-rule:evenodd;clip-rule:evenodd;fill:#DFDFDF;" points="512.884,252.224 524.929,251.904 699.746,77.087 
						686.884,77.224 					"/>
				</g>
				<g>
					<rect x="607.478" y="-88" style="fill:none;" width="186.862" height="175.138"/>
					<polygon style="fill-rule:evenodd;clip-rule:evenodd;fill:#DFDFDF;" points="607.478,87.138 619.524,86.817 794.341,-88 
						781.478,-87.862 					"/>
				</g>
			</g>
		</g>
		<g id="White-part_11_">
			<g>
				<g>
					<rect x="660.511" y="-77.798" style="fill:none;" width="186.862" height="175.138"/>
					<polygon style="fill-rule:evenodd;clip-rule:evenodd;fill:#DFDFDF;" points="660.511,97.339 672.556,97.019 847.373,-77.798 
						834.511,-77.661 					"/>
				</g>
				<g>
					<rect x="735.031" y="101.49" style="fill:none;" width="186.862" height="175.138"/>
					<polygon style="fill-rule:evenodd;clip-rule:evenodd;fill:#DFDFDF;" points="735.031,276.627 747.077,276.307 921.894,101.49 
						909.031,101.627 					"/>
				</g>
				<g>
					<rect x="685.937" y="287.248" style="fill:none;" width="186.862" height="175.138"/>
					<polygon style="fill-rule:evenodd;clip-rule:evenodd;fill:#DFDFDF;" points="685.937,462.386 697.983,462.065 872.8,287.248 
						859.937,287.386 					"/>
				</g>
				<g>
					<rect x="712.289" y="449.809" style="fill:none;" width="186.862" height="175.138"/>
					<polygon style="fill-rule:evenodd;clip-rule:evenodd;fill:#DFDFDF;" points="712.289,624.947 724.334,624.626 899.151,449.809 
						886.289,449.947 					"/>
				</g>
				<g>
					<rect x="697.423" y="609.455" style="fill:none;" width="186.862" height="175.138"/>
					<polygon style="fill-rule:evenodd;clip-rule:evenodd;fill:#DFDFDF;" points="697.423,784.593 709.468,784.272 884.285,609.455 
						871.423,609.593 					"/>
				</g>
				<g>
					<rect x="723.195" y="766.823" style="fill:none;" width="186.862" height="175.138"/>
					<polygon style="fill-rule:evenodd;clip-rule:evenodd;fill:#DFDFDF;" points="723.195,941.961 735.24,941.64 910.057,766.823 
						897.195,766.961 					"/>
				</g>
				<g>
					<rect x="701.795" y="936" style="fill:none;" width="186.862" height="175.138"/>
					<polygon style="fill-rule:evenodd;clip-rule:evenodd;fill:#DFDFDF;" points="701.795,1111.138 713.84,1110.817 888.657,936 
						875.795,936.138 					"/>
				</g>
			</g>
		</g>
		<g id="Red-part_8_">
			<g>
				<g>
					<rect x="522.159" y="901.642" style="fill:none;" width="186.862" height="175.138"/>
					<polygon style="fill-rule:evenodd;clip-rule:evenodd;fill:#DFDFDF;" points="522.159,1076.78 534.204,1076.459 
						709.022,901.642 696.159,901.78 					"/>
				</g>
				<g>
					<rect x="505.143" y="745.792" style="fill:none;" width="186.862" height="175.138"/>
					<polygon style="fill-rule:evenodd;clip-rule:evenodd;fill:#DFDFDF;" points="505.143,920.929 517.188,920.608 692.005,745.792 
						679.143,745.929 					"/>
				</g>
				<g>
					<rect x="579.912" y="580.972" style="fill:none;" width="186.862" height="175.138"/>
					<polygon style="fill-rule:evenodd;clip-rule:evenodd;fill:#DFDFDF;" points="579.912,756.109 591.958,755.788 766.775,580.972 
						753.912,581.109 					"/>
				</g>
				<g>
					<rect x="520.772" y="405.397" style="fill:none;" width="186.862" height="175.138"/>
					<polygon style="fill-rule:evenodd;clip-rule:evenodd;fill:#DFDFDF;" points="520.772,580.535 532.817,580.214 707.634,405.397 
						694.772,405.535 					"/>
				</g>
				<g>
					<rect x="602.526" y="231.373" style="fill:none;" width="186.862" height="175.138"/>
					<polygon style="fill-rule:evenodd;clip-rule:evenodd;fill:#DFDFDF;" points="602.526,406.511 614.571,406.19 789.388,231.373 
						776.526,231.511 					"/>
				</g>
				<g>
					<rect x="552.511" y="67.551" style="fill:none;" width="186.862" height="175.138"/>
					<polygon style="fill-rule:evenodd;clip-rule:evenodd;fill:#DFDFDF;" points="552.511,242.689 564.556,242.368 739.373,67.551 
						726.511,67.689 					"/>
				</g>
				<g>
					<rect x="573.106" y="-88" style="fill:none;" width="186.862" height="175.138"/>
					<polygon style="fill-rule:evenodd;clip-rule:evenodd;fill:#DFDFDF;" points="573.106,87.138 585.152,86.817 759.969,-88 
						747.106,-87.862 					"/>
				</g>
			</g>
		</g>
		<g id="White-part_8_">
			<g>
				<g>
					<rect x="728.572" y="-80.889" style="fill:none;" width="186.862" height="175.138"/>
					<polygon style="fill-rule:evenodd;clip-rule:evenodd;fill:#DFDFDF;" points="728.572,94.248 740.617,93.927 915.434,-80.889 
						902.572,-80.752 					"/>
				</g>
				<g>
					<rect x="724.196" y="100.244" style="fill:none;" width="186.862" height="175.138"/>
					<polygon style="fill-rule:evenodd;clip-rule:evenodd;fill:#DFDFDF;" points="724.196,275.382 736.241,275.061 911.058,100.244 
						898.196,100.382 					"/>
				</g>
				<g>
					<rect x="686.812" y="284.871" style="fill:none;" width="186.862" height="175.138"/>
					<polygon style="fill-rule:evenodd;clip-rule:evenodd;fill:#DFDFDF;" points="686.812,460.008 698.858,459.688 873.675,284.871 
						860.812,285.008 					"/>
				</g>
				<g>
					<rect x="718.09" y="439.627" style="fill:none;" width="186.862" height="175.138"/>
					<polygon style="fill-rule:evenodd;clip-rule:evenodd;fill:#DFDFDF;" points="718.09,614.764 730.135,614.444 904.952,439.627 
						892.09,439.764 					"/>
				</g>
				<g>
					<rect x="698.066" y="609.539" style="fill:none;" width="186.862" height="175.138"/>
					<polygon style="fill-rule:evenodd;clip-rule:evenodd;fill:#DFDFDF;" points="698.066,784.677 710.111,784.356 884.929,609.539 
						872.066,609.677 					"/>
				</g>
				<g>
					<rect x="630.425" y="775.72" style="fill:none;" width="186.862" height="175.138"/>
					<polygon style="fill-rule:evenodd;clip-rule:evenodd;fill:#DFDFDF;" points="630.425,950.858 642.471,950.537 817.288,775.72 
						804.425,775.858 					"/>
				</g>
				<g>
					<rect x="688.503" y="936" style="fill:none;" width="186.862" height="175.138"/>
					<polygon style="fill-rule:evenodd;clip-rule:evenodd;fill:#DFDFDF;" points="688.503,1111.138 700.548,1110.817 875.366,936 
						862.503,936.138 					"/>
				</g>
			</g>
		</g>
		<g id="Skin-background_25_">
			<g>
				<g>
					<rect x="738.468" y="402.145" style="fill:none;" width="186.862" height="175.138"/>
					<polygon style="fill-rule:evenodd;clip-rule:evenodd;fill:#DFDFDF;" points="738.468,577.283 750.513,576.962 925.33,402.145 
						912.468,402.283 					"/>
				</g>
				<g>
					<rect x="653.732" y="492.274" style="fill:none;" width="186.862" height="175.138"/>
					<polygon style="fill-rule:evenodd;clip-rule:evenodd;fill:#DFDFDF;" points="653.732,667.412 665.777,667.091 840.595,492.274 
						827.732,492.412 					"/>
				</g>
				<g>
					<rect x="825.003" y="428.262" style="fill:none;" width="186.862" height="175.138"/>
					<polygon style="fill-rule:evenodd;clip-rule:evenodd;fill:#DFDFDF;" points="825.003,603.399 837.048,603.078 
						1011.865,428.262 999.003,428.399 					"/>
				</g>
				<g>
					<rect x="1006.142" y="417.994" style="fill:none;" width="186.862" height="175.138"/>
					<polygon style="fill-rule:evenodd;clip-rule:evenodd;fill:#DFDFDF;" points="1006.142,593.131 1018.187,592.81 
						1193.004,417.994 1180.142,418.131 					"/>
				</g>
				<g>
					<rect x="1076.342" y="483.07" style="fill:none;" width="186.862" height="175.138"/>
					<polygon style="fill-rule:evenodd;clip-rule:evenodd;fill:#DFDFDF;" points="1076.342,658.207 1088.387,657.887 
						1263.204,483.07 1250.342,483.207 					"/>
				</g>
				<g>
					<rect x="1083.329" y="342.753" style="fill:none;" width="186.862" height="175.138"/>
					<polygon style="fill-rule:evenodd;clip-rule:evenodd;fill:#DFDFDF;" points="1083.329,517.891 1095.374,517.57 
						1270.191,342.753 1257.329,342.891 					"/>
				</g>
				<g>
					<rect x="940.842" y="401.45" style="fill:none;" width="186.862" height="175.138"/>
					<polygon style="fill-rule:evenodd;clip-rule:evenodd;fill:#DFDFDF;" points="940.842,576.588 952.888,576.267 1127.705,401.45 
						1114.842,401.588 					"/>
				</g>
				<g>
					<rect x="785.875" y="410.074" style="fill:none;" width="186.862" height="175.138"/>
					<polygon style="fill-rule:evenodd;clip-rule:evenodd;fill:#DFDFDF;" points="785.875,585.211 797.92,584.891 972.737,410.074 
						959.875,410.211 					"/>
				</g>
				<g>
					<rect x="626.569" y="406.44" style="fill:none;" width="186.862" height="175.138"/>
					<polygon style="fill-rule:evenodd;clip-rule:evenodd;fill:#DFDFDF;" points="626.569,581.577 638.614,581.256 813.431,406.44 
						800.569,406.577 					"/>
				</g>
			</g>
		</g>
		<g id="Rat-background_25_">
			<g>
				<g>
					<rect x="215.252" y="326.239" style="fill:none;" width="186.862" height="175.138"/>
					<polygon style="fill-rule:evenodd;clip-rule:evenodd;fill:#DFDFDF;" points="215.252,501.376 227.298,501.056 402.115,326.239 
						389.252,326.376 					"/>
				</g>
				<g>
					<rect x="283.07" y="497.277" style="fill:none;" width="186.862" height="175.138"/>
					<polygon style="fill-rule:evenodd;clip-rule:evenodd;fill:#DFDFDF;" points="283.07,672.414 295.115,672.094 469.932,497.277 
						457.07,497.414 					"/>
				</g>
				<g>
					<rect x="303.99" y="507.751" style="fill:none;" width="186.862" height="175.138"/>
					<polygon style="fill-rule:evenodd;clip-rule:evenodd;fill:#DFDFDF;" points="303.99,682.889 316.035,682.568 490.852,507.751 
						477.99,507.889 					"/>
				</g>
				<g>
					<rect x="471.077" y="515.191" style="fill:none;" width="186.862" height="175.138"/>
					<polygon style="fill-rule:evenodd;clip-rule:evenodd;fill:#DFDFDF;" points="471.077,690.329 483.122,690.008 657.939,515.191 
						645.077,515.329 					"/>
				</g>
				<g>
					<rect x="550.003" y="526.439" style="fill:none;" width="186.862" height="175.138"/>
					<polygon style="fill-rule:evenodd;clip-rule:evenodd;fill:#DFDFDF;" points="550.003,701.576 562.048,701.256 736.865,526.439 
						724.003,526.576 					"/>
				</g>
				<g>
					<rect x="623.969" y="370.794" style="fill:none;" width="186.862" height="175.138"/>
					<polygon style="fill-rule:evenodd;clip-rule:evenodd;fill:#DFDFDF;" points="623.969,545.932 636.014,545.611 810.831,370.794 
						797.969,370.932 					"/>
				</g>
				<g>
					<rect x="513.837" y="389.186" style="fill:none;" width="186.862" height="175.138"/>
					<polygon style="fill-rule:evenodd;clip-rule:evenodd;fill:#DFDFDF;" points="513.837,564.324 525.883,564.003 700.7,389.186 
						687.837,389.324 					"/>
				</g>
				<g>
					<rect x="357.81" y="388.005" style="fill:none;" width="186.862" height="175.138"/>
					<polygon style="fill-rule:evenodd;clip-rule:evenodd;fill:#DFDFDF;" points="357.81,563.142 369.855,562.821 544.672,388.005 
						531.81,388.142 					"/>
				</g>
				<g>
					<rect x="178.569" y="414.401" style="fill:none;" width="186.862" height="175.138"/>
					<polygon style="fill-rule:evenodd;clip-rule:evenodd;fill:#DFDFDF;" points="178.569,589.539 190.614,589.218 365.431,414.401 
						352.569,414.539 					"/>
				</g>
			</g>
		</g>
	</g>
	<g id="Sub_3_copy_2">
		<g id="Skin-background_5_">
			<g>
				<g>
					<rect x="632.627" y="393.305" style="fill:none;" width="186.862" height="175.138"/>
					<polygon style="fill-rule:evenodd;clip-rule:evenodd;fill:#020B3C;" points="632.627,568.442 644.672,568.121 819.489,393.305 
						806.627,393.442 					"/>
				</g>
				<g>
					<rect x="615.86" y="442.293" style="fill:none;" width="186.862" height="175.138"/>
					<polygon style="fill-rule:evenodd;clip-rule:evenodd;fill:#020B3C;" points="615.86,617.431 627.905,617.11 802.722,442.293 
						789.86,442.431 					"/>
				</g>
				<g>
					<rect x="785.359" y="528.986" style="fill:none;" width="186.862" height="175.138"/>
					<polygon style="fill-rule:evenodd;clip-rule:evenodd;fill:#020B3C;" points="785.359,704.123 797.404,703.802 972.221,528.986 
						959.359,529.123 					"/>
				</g>
				<g>
					<rect x="971.085" y="475.903" style="fill:none;" width="186.862" height="175.138"/>
					<polygon style="fill-rule:evenodd;clip-rule:evenodd;fill:#020B3C;" points="971.085,651.041 983.13,650.72 1157.947,475.903 
						1145.084,476.041 					"/>
				</g>
				<g>
					<rect x="1078.992" y="491.648" style="fill:none;" width="186.862" height="175.138"/>
					<polygon style="fill-rule:evenodd;clip-rule:evenodd;fill:#020B3C;" points="1078.992,666.786 1091.037,666.465 
						1265.855,491.648 1252.992,491.786 					"/>
				</g>
				<g>
					<rect x="967.817" y="329.765" style="fill:none;" width="186.862" height="175.138"/>
					<polygon style="fill-rule:evenodd;clip-rule:evenodd;fill:#020B3C;" points="967.817,504.903 979.862,504.582 1154.68,329.765 
						1141.817,329.903 					"/>
				</g>
				<g>
					<rect x="924.971" y="379.252" style="fill:none;" width="186.862" height="175.138"/>
					<polygon style="fill-rule:evenodd;clip-rule:evenodd;fill:#020B3C;" points="924.971,554.39 937.016,554.069 1111.834,379.252 
						1098.971,379.39 					"/>
				</g>
				<g>
					<rect x="741.336" y="363.205" style="fill:none;" width="186.862" height="175.138"/>
					<polygon style="fill-rule:evenodd;clip-rule:evenodd;fill:#020B3C;" points="741.336,538.342 753.381,538.022 928.198,363.205 
						915.336,363.342 					"/>
				</g>
				<g>
					<rect x="586.569" y="432.678" style="fill:none;" width="186.862" height="175.138"/>
					<polygon style="fill-rule:evenodd;clip-rule:evenodd;fill:#020B3C;" points="586.569,607.816 598.614,607.495 773.431,432.678 
						760.569,432.816 					"/>
				</g>
			</g>
		</g>
		<g id="Rat-background_5_">
			<g>
				<g>
					<rect x="182.04" y="450.25" style="fill:none;" width="186.862" height="175.138"/>
					<polygon style="fill-rule:evenodd;clip-rule:evenodd;fill:#020B3C;" points="182.04,625.388 194.085,625.067 368.902,450.25 
						356.04,450.388 					"/>
				</g>
				<g>
					<rect x="222.676" y="436.223" style="fill:none;" width="186.862" height="175.138"/>
					<polygon style="fill-rule:evenodd;clip-rule:evenodd;fill:#020B3C;" points="222.676,611.361 234.721,611.04 409.538,436.223 
						396.676,436.361 					"/>
				</g>
				<g>
					<rect x="401.261" y="446.569" style="fill:none;" width="186.862" height="175.138"/>
					<polygon style="fill-rule:evenodd;clip-rule:evenodd;fill:#020B3C;" points="401.261,621.707 413.306,621.386 588.124,446.569 
						575.261,446.707 					"/>
				</g>
				<g>
					<rect x="581.89" y="446.201" style="fill:none;" width="186.862" height="175.138"/>
					<polygon style="fill-rule:evenodd;clip-rule:evenodd;fill:#020B3C;" points="581.89,621.338 593.935,621.017 768.752,446.201 
						755.89,446.338 					"/>
				</g>
				<g>
					<rect x="548.998" y="356.841" style="fill:none;" width="186.862" height="175.138"/>
					<polygon style="fill-rule:evenodd;clip-rule:evenodd;fill:#020B3C;" points="548.998,531.978 561.043,531.658 735.86,356.841 
						722.998,356.978 					"/>
				</g>
				<g>
					<rect x="472.675" y="385.939" style="fill:none;" width="186.862" height="175.138"/>
					<polygon style="fill-rule:evenodd;clip-rule:evenodd;fill:#020B3C;" points="472.675,561.076 484.72,560.756 659.537,385.939 
						646.675,386.077 					"/>
				</g>
				<g>
					<rect x="312.964" y="407.741" style="fill:none;" width="186.862" height="175.138"/>
					<polygon style="fill-rule:evenodd;clip-rule:evenodd;fill:#020B3C;" points="312.964,582.879 325.009,582.558 499.827,407.741 
						486.964,407.879 					"/>
				</g>
				<g>
					<rect x="138.569" y="407.485" style="fill:none;" width="186.862" height="175.138"/>
					<polygon style="fill-rule:evenodd;clip-rule:evenodd;fill:#020B3C;" points="138.569,582.622 150.614,582.302 325.431,407.485 
						312.569,407.622 					"/>
				</g>
			</g>
		</g>
	</g>
</g>
<g id="Layer_1">
</g>
</svg>
