<?xml version="1.0" encoding="iso-8859-1"?>
<!-- Generator: Adobe Illustrator 23.0.1, SVG Export Plug-In . SVG Version: 6.00 Build 0)  -->
<svg version="1.1" xmlns="http://www.w3.org/2000/svg" xmlns:xlink="http://www.w3.org/1999/xlink" x="0px" y="0px"
	 viewBox="0 0 1444 1023.138" style="enable-background:new 0 0 1444 1023.138;" xml:space="preserve">
<g id="Lines_2">
	<g id="Sub_1">
		<g id="Red-part_6_">
			<g>
				<g>
					<rect x="711.561" y="1009.654" style="fill:none;" width="12.588" height="12.575"/>
					<path style="fill-rule:evenodd;clip-rule:evenodd;fill:#DFDFDF;stroke:#FBFBFB;stroke-width:0.1462;stroke-miterlimit:10;" d="
						M724.15,1009.727h-0.731l-11.698,12.378l0.731,0.051"/>
				</g>
				<g>
					<rect x="674.799" y="931.206" style="fill:none;" width="51.076" height="51.022"/>
					<path style="fill-rule:evenodd;clip-rule:evenodd;fill:#DFDFDF;stroke:#FBFBFB;stroke-width:0.5933;stroke-miterlimit:10;" d="
						M725.874,931.503h-2.966l-47.463,50.222l2.966,0.207"/>
				</g>
				<g>
					<rect x="729.345" y="875.324" style="fill:none;" width="32.754" height="32.72"/>
					<path style="fill-rule:evenodd;clip-rule:evenodd;fill:#DFDFDF;stroke:#FBFBFB;stroke-width:0.3805;stroke-miterlimit:10;" d="
						M762.099,875.514h-1.902l-30.437,32.207l1.902,0.133"/>
				</g>
				<g>
					<rect x="607.633" y="804.769" style="fill:none;" width="27.559" height="27.53"/>
					<path style="fill-rule:evenodd;clip-rule:evenodd;fill:#DFDFDF;stroke:#FBFBFB;stroke-width:0.3201;stroke-miterlimit:10;" d="
						M635.192,804.929h-1.601l-25.609,27.098l1.601,0.112"/>
				</g>
				<g>
					<rect x="731.406" y="752.875" style="fill:none;" width="15.469" height="15.453"/>
					<path style="fill-rule:evenodd;clip-rule:evenodd;fill:#DFDFDF;stroke:#FBFBFB;stroke-width:0.1797;stroke-miterlimit:10;" d="
						M746.875,752.965h-0.898l-14.375,15.211l0.898,0.063"/>
				</g>
				<g>
					<rect x="609.158" y="684.742" style="fill:none;" width="9.632" height="9.621"/>
					<path style="fill-rule:evenodd;clip-rule:evenodd;fill:#DFDFDF;stroke:#FBFBFB;stroke-width:0.1119;stroke-miterlimit:10;" d="
						M618.789,684.798h-0.559l-8.95,9.471l0.559,0.039"/>
				</g>
				<g>
					<rect x="661.315" y="598.377" style="fill:none;" width="50.251" height="50.198"/>
					<path style="fill-rule:evenodd;clip-rule:evenodd;fill:#DFDFDF;stroke:#FBFBFB;stroke-width:0.5837;stroke-miterlimit:10;" d="
						M711.566,598.668h-2.919l-46.696,49.411l2.919,0.204"/>
				</g>
				<g>
					<rect x="636.962" y="551.962" style="fill:none;" width="11.998" height="11.986"/>
					<path style="fill-rule:evenodd;clip-rule:evenodd;fill:#DFDFDF;stroke:#FBFBFB;stroke-width:0.1394;stroke-miterlimit:10;" d="
						M648.96,552.032h-0.697l-11.15,11.798l0.697,0.049"/>
				</g>
				<g>
					<rect x="577.271" y="459.108" style="fill:none;" width="51.825" height="51.77"/>
					<path style="fill-rule:evenodd;clip-rule:evenodd;fill:#DFDFDF;stroke:#FBFBFB;stroke-width:0.602;stroke-miterlimit:10;" d="
						M629.095,459.409h-3.01l-48.159,50.958l3.01,0.21"/>
				</g>
				<g>
					<rect x="692.594" y="405.927" style="fill:none;" width="37.796" height="37.756"/>
					<path style="fill-rule:evenodd;clip-rule:evenodd;fill:#DFDFDF;stroke:#FBFBFB;stroke-width:0.439;stroke-miterlimit:10;" d="
						M730.389,406.147h-2.195l-35.122,37.164l2.195,0.153"/>
				</g>
				<g>
					<rect x="680.536" y="335.803" style="fill:none;" width="26.803" height="26.775"/>
					<path style="fill-rule:evenodd;clip-rule:evenodd;fill:#DFDFDF;stroke:#FBFBFB;stroke-width:0.3113;stroke-miterlimit:10;" d="
						M707.339,335.959h-1.557l-24.907,26.355l1.557,0.109"/>
				</g>
				<g>
					<rect x="715.951" y="263.439" style="fill:none;" width="28.372" height="28.342"/>
					<path style="fill-rule:evenodd;clip-rule:evenodd;fill:#DFDFDF;stroke:#FBFBFB;stroke-width:0.3296;stroke-miterlimit:10;" d="
						M744.323,263.604h-1.648l-26.365,27.897l1.648,0.115"/>
				</g>
				<g>
					<rect x="592.516" y="195.947" style="fill:none;" width="17.094" height="17.076"/>
					<path style="fill-rule:evenodd;clip-rule:evenodd;fill:#DFDFDF;stroke:#FBFBFB;stroke-width:0.1986;stroke-miterlimit:10;" d="
						M609.61,196.046h-0.993l-15.885,16.809l0.993,0.069"/>
				</g>
				<g>
					<rect x="615.361" y="123.84" style="fill:none;" width="35.554" height="35.517"/>
					<path style="fill-rule:evenodd;clip-rule:evenodd;fill:#DFDFDF;stroke:#FBFBFB;stroke-width:0.413;stroke-miterlimit:10;" d="
						M650.916,124.047h-2.065l-33.039,34.96l2.065,0.144"/>
				</g>
				<g>
					<rect x="658.358" y="59.496" style="fill:none;" width="33.349" height="33.314"/>
					<path style="fill-rule:evenodd;clip-rule:evenodd;fill:#DFDFDF;stroke:#FBFBFB;stroke-width:0.3874;stroke-miterlimit:10;" d="
						M691.708,59.689h-1.937l-30.99,32.792l1.937,0.135"/>
				</g>
				<g>
					<rect x="683.022" y="-9.597" style="fill:none;" width="18.351" height="18.332"/>
					<path style="fill-rule:evenodd;clip-rule:evenodd;fill:#DFDFDF;stroke:#FBFBFB;stroke-width:0.2132;stroke-miterlimit:10;" d="
						M701.373-9.491h-1.066L683.254,8.554l1.066,0.074"/>
				</g>
			</g>
		</g>
		<g id="White-part_6_">
			<g>
				<g>
					<rect x="792.884" y="22.776" style="fill:none;" width="36.064" height="36.026"/>
					<path style="fill-rule:evenodd;clip-rule:evenodd;fill:#DFDFDF;stroke:#FBFBFB;stroke-width:0.4189;stroke-miterlimit:10;" d="
						M828.948,22.985h-2.095l-33.513,35.461l2.095,0.146"/>
				</g>
				<g>
					<rect x="728.497" y="94.474" style="fill:none;" width="13.981" height="13.966"/>
					<path style="fill-rule:evenodd;clip-rule:evenodd;fill:#DFDFDF;stroke:#FBFBFB;stroke-width:0.1624;stroke-miterlimit:10;" d="
						M742.477,94.555h-0.812l-12.992,13.747l0.812,0.057"/>
				</g>
				<g>
					<rect x="797.349" y="167.143" style="fill:none;" width="19.052" height="19.032"/>
					<path style="fill-rule:evenodd;clip-rule:evenodd;fill:#DFDFDF;stroke:#FBFBFB;stroke-width:0.2213;stroke-miterlimit:10;" d="
						M816.401,167.253h-1.107l-17.704,18.734l1.107,0.077"/>
				</g>
				<g>
					<rect x="671.24" y="212.451" style="fill:none;" width="48.945" height="48.894"/>
					<path style="fill-rule:evenodd;clip-rule:evenodd;fill:#DFDFDF;stroke:#FBFBFB;stroke-width:0.5685;stroke-miterlimit:10;" d="
						M720.185,212.736h-2.843l-45.483,48.127l2.843,0.199"/>
				</g>
				<g>
					<rect x="785.284" y="267.917" style="fill:none;" width="57.727" height="57.666"/>
					<path style="fill-rule:evenodd;clip-rule:evenodd;fill:#DFDFDF;stroke:#FBFBFB;stroke-width:0.6705;stroke-miterlimit:10;" d="
						M843.011,268.252h-3.353l-53.643,56.762l3.353,0.234"/>
				</g>
				<g>
					<rect x="824.475" y="349.348" style="fill:none;" width="12.474" height="12.46"/>
					<path style="fill-rule:evenodd;clip-rule:evenodd;fill:#DFDFDF;stroke:#FBFBFB;stroke-width:0.1449;stroke-miterlimit:10;" d="
						M836.948,349.42h-0.724l-11.591,12.265l0.724,0.051"/>
				</g>
				<g>
					<rect x="712.226" y="397.181" style="fill:none;" width="41.556" height="41.512"/>
					<path style="fill-rule:evenodd;clip-rule:evenodd;fill:#DFDFDF;stroke:#FBFBFB;stroke-width:0.4827;stroke-miterlimit:10;" d="
						M753.782,397.422h-2.414l-38.616,40.861l2.414,0.169"/>
				</g>
				<g>
					<rect x="709.811" y="458.612" style="fill:none;" width="38.662" height="38.621"/>
					<path style="fill-rule:evenodd;clip-rule:evenodd;fill:#DFDFDF;stroke:#FBFBFB;stroke-width:0.4491;stroke-miterlimit:10;" d="
						M748.473,458.837h-2.245l-35.927,38.016l2.245,0.157"/>
				</g>
				<g>
					<rect x="733.411" y="541.759" style="fill:none;" width="24.588" height="24.562"/>
					<path style="fill-rule:evenodd;clip-rule:evenodd;fill:#DFDFDF;stroke:#FBFBFB;stroke-width:0.2856;stroke-miterlimit:10;" d="
						M757.998,541.902h-1.428l-22.849,24.177l1.428,0.1"/>
				</g>
				<g>
					<rect x="763.437" y="608.102" style="fill:none;" width="10.792" height="10.78"/>
					<path style="fill-rule:evenodd;clip-rule:evenodd;fill:#DFDFDF;stroke:#FBFBFB;stroke-width:0.1254;stroke-miterlimit:10;" d="
						M774.228,608.165h-0.627l-10.028,10.611l0.627,0.044"/>
				</g>
				<g>
					<rect x="725.571" y="677.096" style="fill:none;" width="10.895" height="10.884"/>
					<path style="fill-rule:evenodd;clip-rule:evenodd;fill:#DFDFDF;stroke:#FBFBFB;stroke-width:0.1266;stroke-miterlimit:10;" d="
						M736.466,677.159h-0.633l-10.125,10.713l0.633,0.044"/>
				</g>
				<g>
					<rect x="804.702" y="725.141" style="fill:none;" width="38.829" height="38.788"/>
					<path style="fill-rule:evenodd;clip-rule:evenodd;fill:#DFDFDF;stroke:#FBFBFB;stroke-width:0.451;stroke-miterlimit:10;" d="
						M843.531,725.367h-2.255l-36.082,38.18l2.255,0.157"/>
				</g>
				<g>
					<rect x="793.996" y="797.602" style="fill:none;" width="34.128" height="34.092"/>
					<path style="fill-rule:evenodd;clip-rule:evenodd;fill:#DFDFDF;stroke:#FBFBFB;stroke-width:0.3964;stroke-miterlimit:10;" d="
						M828.124,797.8h-1.982l-31.714,33.557l1.982,0.138"/>
				</g>
				<g>
					<rect x="736.781" y="875.005" style="fill:none;" width="12.095" height="12.082"/>
					<path style="fill-rule:evenodd;clip-rule:evenodd;fill:#DFDFDF;stroke:#FBFBFB;stroke-width:0.1405;stroke-miterlimit:10;" d="
						M748.875,875.075h-0.702l-11.239,11.892l0.702,0.049"/>
				</g>
				<g>
					<rect x="693.278" y="945.435" style="fill:none;" width="22.566" height="22.543"/>
					<path style="fill-rule:evenodd;clip-rule:evenodd;fill:#DFDFDF;stroke:#FBFBFB;stroke-width:0.2621;stroke-miterlimit:10;" d="
						M715.844,945.566h-1.311l-20.97,22.189l1.311,0.092"/>
				</g>
				<g>
					<rect x="727.876" y="996.859" style="fill:none;" width="53.477" height="53.42"/>
					<path style="fill-rule:evenodd;clip-rule:evenodd;fill:#DFDFDF;stroke:#FBFBFB;stroke-width:0.6212;stroke-miterlimit:10;" d="
						M781.353,997.169h-3.106l-49.694,52.583l3.106,0.217"/>
				</g>
			</g>
		</g>
		<g id="Skin-background_18_">
			<g>
				<g>
					<rect x="705.01" y="438.554" style="fill:none;" width="24.272" height="24.246"/>
					<path style="fill-rule:evenodd;clip-rule:evenodd;fill:#DFDFDF;stroke:#FBFBFB;stroke-width:0.2819;stroke-miterlimit:10;" d="
						M729.282,438.695h-1.41l-22.555,23.866l1.41,0.098"/>
				</g>
				<g>
					<rect x="788.578" y="506.228" style="fill:none;" width="16.372" height="16.355"/>
					<path style="fill-rule:evenodd;clip-rule:evenodd;fill:#DFDFDF;stroke:#FBFBFB;stroke-width:0.1902;stroke-miterlimit:10;" d="
						M804.95,506.323h-0.951l-15.214,16.099l0.951,0.066"/>
				</g>
				<g>
					<rect x="733.369" y="575.62" style="fill:none;" width="27.802" height="27.773"/>
					<path style="fill-rule:evenodd;clip-rule:evenodd;fill:#DFDFDF;stroke:#FBFBFB;stroke-width:0.3229;stroke-miterlimit:10;" d="
						M761.171,575.781h-1.615l-25.835,27.337l1.615,0.113"/>
				</g>
				<g>
					<rect x="742.352" y="586.443" style="fill:none;" width="10.35" height="10.339"/>
					<path style="fill-rule:evenodd;clip-rule:evenodd;fill:#DFDFDF;stroke:#FBFBFB;stroke-width:0.1202;stroke-miterlimit:10;" d="
						M752.702,586.503h-0.601l-9.618,10.177l0.601,0.042"/>
				</g>
				<g>
					<rect x="783.426" y="565.195" style="fill:none;" width="58.392" height="58.331"/>
					<path style="fill-rule:evenodd;clip-rule:evenodd;fill:#DFDFDF;stroke:#FBFBFB;stroke-width:0.6783;stroke-miterlimit:10;" d="
						M841.818,565.535h-3.391l-54.262,57.416l3.391,0.237"/>
				</g>
				<g>
					<rect x="857.857" y="555.78" style="fill:none;" width="38.112" height="38.071"/>
					<path style="fill-rule:evenodd;clip-rule:evenodd;fill:#DFDFDF;stroke:#FBFBFB;stroke-width:0.4427;stroke-miterlimit:10;" d="
						M895.969,556.002h-2.213l-35.416,37.475l2.214,0.155"/>
				</g>
				<g>
					<rect x="934.816" y="595.6" style="fill:none;" width="31.9" height="31.867"/>
					<path style="fill-rule:evenodd;clip-rule:evenodd;fill:#DFDFDF;stroke:#FBFBFB;stroke-width:0.3705;stroke-miterlimit:10;" d="
						M966.716,595.785h-1.853l-29.644,31.367l1.853,0.129"/>
				</g>
				<g>
					<rect x="999.393" y="493.053" style="fill:none;" width="31.866" height="31.832"/>
					<path style="fill-rule:evenodd;clip-rule:evenodd;fill:#DFDFDF;stroke:#FBFBFB;stroke-width:0.3701;stroke-miterlimit:10;" d="
						M1031.258,493.238h-1.851l-29.611,31.333l1.851,0.129"/>
				</g>
				<g>
					<rect x="1055.815" y="571.838" style="fill:none;" width="36.965" height="36.926"/>
					<path style="fill-rule:evenodd;clip-rule:evenodd;fill:#DFDFDF;stroke:#FBFBFB;stroke-width:0.4294;stroke-miterlimit:10;" d="
						M1092.78,572.052h-2.147l-34.35,36.347l2.147,0.15"/>
				</g>
				<g>
					<rect x="1127.624" y="550.987" style="fill:none;" width="30" height="29.968"/>
					<path style="fill-rule:evenodd;clip-rule:evenodd;fill:#DFDFDF;stroke:#FBFBFB;stroke-width:0.3485;stroke-miterlimit:10;" d="
						M1157.624,551.161h-1.742l-27.877,29.498l1.742,0.122"/>
				</g>
				<g>
					<rect x="1127.241" y="531.971" style="fill:none;" width="37.062" height="37.023"/>
					<path style="fill-rule:evenodd;clip-rule:evenodd;fill:#DFDFDF;stroke:#FBFBFB;stroke-width:0.4305;stroke-miterlimit:10;" d="
						M1164.303,532.187h-2.152l-34.44,36.442l2.153,0.15"/>
				</g>
				<g>
					<rect x="1159.129" y="532.967" style="fill:none;" width="44.975" height="44.927"/>
					<path style="fill-rule:evenodd;clip-rule:evenodd;fill:#DFDFDF;stroke:#FBFBFB;stroke-width:0.5224;stroke-miterlimit:10;" d="
						M1204.104,533.229h-2.612l-41.793,44.223l2.612,0.182"/>
				</g>
				<g>
					<rect x="1139.449" y="462.713" style="fill:none;" width="44.845" height="44.798"/>
					<path style="fill-rule:evenodd;clip-rule:evenodd;fill:#DFDFDF;stroke:#FBFBFB;stroke-width:0.5209;stroke-miterlimit:10;" d="
						M1184.294,462.973h-2.605l-41.673,44.096l2.605,0.182"/>
				</g>
				<g>
					<rect x="1126.098" y="398.315" style="fill:none;" width="35.899" height="35.861"/>
					<path style="fill-rule:evenodd;clip-rule:evenodd;fill:#DFDFDF;stroke:#FBFBFB;stroke-width:0.417;stroke-miterlimit:10;" d="
						M1161.997,398.524h-2.085l-33.359,35.299l2.085,0.146"/>
				</g>
				<g>
					<rect x="1142.493" y="497.857" style="fill:none;" width="42.69" height="42.645"/>
					<path style="fill-rule:evenodd;clip-rule:evenodd;fill:#DFDFDF;stroke:#FBFBFB;stroke-width:0.4959;stroke-miterlimit:10;" d="
						M1185.183,498.105h-2.479l-39.67,41.976l2.479,0.173"/>
				</g>
				<g>
					<rect x="1070.391" y="441.549" style="fill:none;" width="57.942" height="57.881"/>
					<path style="fill-rule:evenodd;clip-rule:evenodd;fill:#DFDFDF;stroke:#FBFBFB;stroke-width:0.673;stroke-miterlimit:10;" d="
						M1128.333,441.885h-3.365l-53.843,56.973l3.365,0.235"/>
				</g>
				<g>
					<rect x="1013.6" y="483.354" style="fill:none;" width="46.984" height="46.935"/>
					<path style="fill-rule:evenodd;clip-rule:evenodd;fill:#DFDFDF;stroke:#FBFBFB;stroke-width:0.5458;stroke-miterlimit:10;" d="
						M1060.585,483.627h-2.729l-43.661,46.199l2.729,0.191"/>
				</g>
				<g>
					<rect x="964.963" y="434.392" style="fill:none;" width="27.142" height="27.113"/>
					<path style="fill-rule:evenodd;clip-rule:evenodd;fill:#DFDFDF;stroke:#FBFBFB;stroke-width:0.3153;stroke-miterlimit:10;" d="
						M992.105,434.549h-1.576l-25.222,26.688l1.576,0.11"/>
				</g>
				<g>
					<rect x="882.985" y="468.205" style="fill:none;" width="46.072" height="46.023"/>
					<path style="fill-rule:evenodd;clip-rule:evenodd;fill:#DFDFDF;stroke:#FBFBFB;stroke-width:0.5352;stroke-miterlimit:10;" d="
						M929.057,468.473h-2.676l-42.813,45.302l2.676,0.187"/>
				</g>
				<g>
					<rect x="829.324" y="470.441" style="fill:none;" width="34.636" height="34.599"/>
					<path style="fill-rule:evenodd;clip-rule:evenodd;fill:#DFDFDF;stroke:#FBFBFB;stroke-width:0.4023;stroke-miterlimit:10;" d="
						M863.959,470.642h-2.012l-32.186,34.057l2.012,0.14"/>
				</g>
				<g>
					<rect x="756.973" y="471.44" style="fill:none;" width="56.236" height="56.177"/>
					<path style="fill-rule:evenodd;clip-rule:evenodd;fill:#DFDFDF;stroke:#FBFBFB;stroke-width:0.6532;stroke-miterlimit:10;" d="
						M813.209,471.766h-3.266l-52.258,55.296l3.266,0.228"/>
				</g>
				<g>
					<rect x="699.283" y="407.816" style="fill:none;" width="41.433" height="41.389"/>
					<path style="fill-rule:evenodd;clip-rule:evenodd;fill:#DFDFDF;stroke:#FBFBFB;stroke-width:0.4813;stroke-miterlimit:10;" d="
						M740.717,408.057h-2.406l-38.502,40.741l2.406,0.168"/>
				</g>
			</g>
		</g>
		<g id="Rat-background_18_">
			<g>
				<g>
					<rect x="306.655" y="452.191" style="fill:none;" width="25.743" height="25.716"/>
					<path style="fill-rule:evenodd;clip-rule:evenodd;fill:#DFDFDF;stroke:#FBFBFB;stroke-width:0.299;stroke-miterlimit:10;" d="
						M332.398,452.341h-1.495l-23.922,25.313l1.495,0.104"/>
				</g>
				<g>
					<rect x="299.504" y="517.11" style="fill:none;" width="20.827" height="20.805"/>
					<path style="fill-rule:evenodd;clip-rule:evenodd;fill:#DFDFDF;stroke:#FBFBFB;stroke-width:0.2419;stroke-miterlimit:10;" d="
						M320.331,517.231h-1.21l-19.353,20.479l1.21,0.084"/>
				</g>
				<g>
					<rect x="293.093" y="576.835" style="fill:none;" width="48.175" height="48.125"/>
					<path style="fill-rule:evenodd;clip-rule:evenodd;fill:#DFDFDF;stroke:#FBFBFB;stroke-width:0.5596;stroke-miterlimit:10;" d="
						M341.268,577.114h-2.798l-44.768,47.37l2.798,0.195"/>
				</g>
				<g>
					<rect x="301.406" y="613.901" style="fill:none;" width="28.719" height="28.689"/>
					<path style="fill-rule:evenodd;clip-rule:evenodd;fill:#DFDFDF;stroke:#FBFBFB;stroke-width:0.3336;stroke-miterlimit:10;" d="
						M330.125,614.068h-1.668l-26.688,28.239l1.668,0.116"/>
				</g>
				<g>
					<rect x="356.138" y="579.906" style="fill:none;" width="42.341" height="42.296"/>
					<path style="fill-rule:evenodd;clip-rule:evenodd;fill:#DFDFDF;stroke:#FBFBFB;stroke-width:0.4918;stroke-miterlimit:10;" d="
						M398.479,580.152h-2.459l-39.346,41.633l2.459,0.172"/>
				</g>
				<g>
					<rect x="438.408" y="531.369" style="fill:none;" width="28.706" height="28.676"/>
					<path style="fill-rule:evenodd;clip-rule:evenodd;fill:#DFDFDF;stroke:#FBFBFB;stroke-width:0.3334;stroke-miterlimit:10;" d="
						M467.114,531.535h-1.667l-26.676,28.227l1.667,0.116"/>
				</g>
				<g>
					<rect x="496.443" y="517.278" style="fill:none;" width="44.483" height="44.436"/>
					<path style="fill-rule:evenodd;clip-rule:evenodd;fill:#DFDFDF;stroke:#FBFBFB;stroke-width:0.5167;stroke-miterlimit:10;" d="
						M540.926,517.536h-2.584l-41.336,43.739l2.583,0.18"/>
				</g>
				<g>
					<rect x="574.132" y="567.49" style="fill:none;" width="14.063" height="14.048"/>
					<path style="fill-rule:evenodd;clip-rule:evenodd;fill:#DFDFDF;stroke:#FBFBFB;stroke-width:0.1633;stroke-miterlimit:10;" d="
						M588.195,567.572h-0.817L574.31,581.4l0.817,0.057"/>
				</g>
				<g>
					<rect x="626.868" y="587.523" style="fill:none;" width="52.161" height="52.106"/>
					<path style="fill-rule:evenodd;clip-rule:evenodd;fill:#DFDFDF;stroke:#FBFBFB;stroke-width:0.6059;stroke-miterlimit:10;" d="
						M679.029,587.826H676l-48.471,51.289l3.029,0.212"/>
				</g>
				<g>
					<rect x="626.434" y="596.328" style="fill:none;" width="35.894" height="35.856"/>
					<path style="fill-rule:evenodd;clip-rule:evenodd;fill:#DFDFDF;stroke:#FBFBFB;stroke-width:0.4169;stroke-miterlimit:10;" d="
						M662.328,596.536h-2.085l-33.355,35.294l2.085,0.146"/>
				</g>
				<g>
					<rect x="655.477" y="521.184" style="fill:none;" width="57.315" height="57.254"/>
					<path style="fill-rule:evenodd;clip-rule:evenodd;fill:#DFDFDF;stroke:#FBFBFB;stroke-width:0.6658;stroke-miterlimit:10;" d="
						M712.791,521.517h-3.329l-53.26,56.357l3.329,0.232"/>
				</g>
				<g>
					<rect x="648.159" y="474.39" style="fill:none;" width="22.223" height="22.199"/>
					<path style="fill-rule:evenodd;clip-rule:evenodd;fill:#DFDFDF;stroke:#FBFBFB;stroke-width:0.2581;stroke-miterlimit:10;" d="
						M670.382,474.519h-1.291L648.44,496.37l1.291,0.09"/>
				</g>
				<g>
					<rect x="712.964" y="402.492" style="fill:none;" width="23.277" height="23.253"/>
					<path style="fill-rule:evenodd;clip-rule:evenodd;fill:#DFDFDF;stroke:#FBFBFB;stroke-width:0.2704;stroke-miterlimit:10;" d="
						M736.242,402.627h-1.352l-21.631,22.888l1.352,0.094"/>
				</g>
				<g>
					<rect x="652.929" y="391.034" style="fill:none;" width="15.492" height="15.475"/>
					<path style="fill-rule:evenodd;clip-rule:evenodd;fill:#DFDFDF;stroke:#FBFBFB;stroke-width:0.1799;stroke-miterlimit:10;" d="
						M668.421,391.124h-0.9l-14.396,15.233l0.9,0.063"/>
				</g>
				<g>
					<rect x="571.62" y="499.845" style="fill:none;" width="33.87" height="33.834"/>
					<path style="fill-rule:evenodd;clip-rule:evenodd;fill:#DFDFDF;stroke:#FBFBFB;stroke-width:0.3934;stroke-miterlimit:10;" d="
						M605.49,500.041h-1.967l-31.474,33.304l1.967,0.137"/>
				</g>
				<g>
					<rect x="511.034" y="470.312" style="fill:none;" width="37.266" height="37.226"/>
					<path style="fill-rule:evenodd;clip-rule:evenodd;fill:#DFDFDF;stroke:#FBFBFB;stroke-width:0.4329;stroke-miterlimit:10;" d="
						M548.299,470.528h-2.164l-34.63,36.643l2.164,0.151"/>
				</g>
				<g>
					<rect x="451.199" y="369.677" style="fill:none;" width="31.024" height="30.991"/>
					<path style="fill-rule:evenodd;clip-rule:evenodd;fill:#DFDFDF;stroke:#FBFBFB;stroke-width:0.3604;stroke-miterlimit:10;" d="
						M482.222,369.857h-1.802l-28.829,30.505l1.802,0.126"/>
				</g>
				<g>
					<rect x="387.459" y="474.757" style="fill:none;" width="36.626" height="36.587"/>
					<path style="fill-rule:evenodd;clip-rule:evenodd;fill:#DFDFDF;stroke:#FBFBFB;stroke-width:0.4254;stroke-miterlimit:10;" d="
						M424.085,474.97h-2.127l-34.035,36.014l2.127,0.149"/>
				</g>
				<g>
					<rect x="331.706" y="411.671" style="fill:none;" width="23.041" height="23.016"/>
					<path style="fill-rule:evenodd;clip-rule:evenodd;fill:#DFDFDF;stroke:#FBFBFB;stroke-width:0.2676;stroke-miterlimit:10;" d="
						M354.746,411.804h-1.338l-21.411,22.655l1.338,0.093"/>
				</g>
				<g>
					<rect x="263.748" y="464.67" style="fill:none;" width="16.504" height="16.487"/>
					<path style="fill-rule:evenodd;clip-rule:evenodd;fill:#DFDFDF;stroke:#FBFBFB;stroke-width:0.1917;stroke-miterlimit:10;" d="
						M280.252,464.766h-0.959l-15.337,16.228l0.959,0.067"/>
				</g>
			</g>
		</g>
	</g>
	<g id="Sub_2">
		<g id="Red-part_5_">
			<g>
				<g>
					<rect x="649.953" y="1003.607" style="fill:none;" width="23.926" height="23.901"/>
					<path style="fill-rule:evenodd;clip-rule:evenodd;fill:#E1605F;stroke:#FBEBEB;stroke-width:0.2779;stroke-miterlimit:10;" d="
						M673.879,1003.746h-1.39l-22.234,23.526l1.39,0.097"/>
				</g>
				<g>
					<rect x="665.332" y="929.969" style="fill:none;" width="23.818" height="23.792"/>
					<path style="fill-rule:evenodd;clip-rule:evenodd;fill:#E1605F;stroke:#FBEBEB;stroke-width:0.2767;stroke-miterlimit:10;" d="
						M689.15,930.107h-1.383l-22.133,23.419l1.383,0.097"/>
				</g>
				<g>
					<rect x="607.579" y="854.461" style="fill:none;" width="35.018" height="34.981"/>
					<path style="fill-rule:evenodd;clip-rule:evenodd;fill:#E1605F;stroke:#FBEBEB;stroke-width:0.4068;stroke-miterlimit:10;" d="
						M642.597,854.664h-2.034l-32.541,34.433l2.034,0.142"/>
				</g>
				<g>
					<rect x="704.608" y="789.471" style="fill:none;" width="40.553" height="40.51"/>
					<path style="fill-rule:evenodd;clip-rule:evenodd;fill:#E1605F;stroke:#FBEBEB;stroke-width:0.4711;stroke-miterlimit:10;" d="
						M745.161,789.707h-2.355l-37.685,39.875l2.355,0.164"/>
				</g>
				<g>
					<rect x="611.134" y="726.538" style="fill:none;" width="37.354" height="37.314"/>
					<path style="fill-rule:evenodd;clip-rule:evenodd;fill:#E1605F;stroke:#FBEBEB;stroke-width:0.4339;stroke-miterlimit:10;" d="
						M648.488,726.755h-2.169l-34.711,36.729l2.169,0.151"/>
				</g>
				<g>
					<rect x="660.633" y="649.037" style="fill:none;" width="56.463" height="56.403"/>
					<path style="fill-rule:evenodd;clip-rule:evenodd;fill:#E1605F;stroke:#FBEBEB;stroke-width:0.6559;stroke-miterlimit:10;" d="
						M717.096,649.365h-3.279l-52.469,55.519l3.279,0.229"/>
				</g>
				<g>
					<rect x="563.944" y="583.16" style="fill:none;" width="46.746" height="46.697"/>
					<path style="fill-rule:evenodd;clip-rule:evenodd;fill:#E1605F;stroke:#FBEBEB;stroke-width:0.543;stroke-miterlimit:10;" d="
						M610.69,583.431h-2.715l-43.439,45.965l2.715,0.19"/>
				</g>
				<g>
					<rect x="648.7" y="526.349" style="fill:none;" width="14.583" height="14.567"/>
					<path style="fill-rule:evenodd;clip-rule:evenodd;fill:#E1605F;stroke:#FBEBEB;stroke-width:0.1694;stroke-miterlimit:10;" d="
						M663.283,526.433h-0.847l-13.551,14.339l0.847,0.059"/>
				</g>
				<g>
					<rect x="611.911" y="448.989" style="fill:none;" width="41.917" height="41.873"/>
					<path style="fill-rule:evenodd;clip-rule:evenodd;fill:#E1605F;stroke:#FBEBEB;stroke-width:0.4869;stroke-miterlimit:10;" d="
						M653.828,449.233h-2.435l-38.952,41.216l2.435,0.17"/>
				</g>
				<g>
					<rect x="601.254" y="377.336" style="fill:none;" width="36.084" height="36.046"/>
					<path style="fill-rule:evenodd;clip-rule:evenodd;fill:#E1605F;stroke:#FBEBEB;stroke-width:0.4191;stroke-miterlimit:10;" d="
						M637.338,377.545h-2.096l-33.531,35.481l2.096,0.146"/>
				</g>
				<g>
					<rect x="614.689" y="328.5" style="fill:none;" width="16.109" height="16.092"/>
					<path style="fill-rule:evenodd;clip-rule:evenodd;fill:#E1605F;stroke:#FBEBEB;stroke-width:0.1871;stroke-miterlimit:10;" d="
						M630.798,328.593h-0.936l-14.97,15.84l0.936,0.065"/>
				</g>
				<g>
					<rect x="651.257" y="257.442" style="fill:none;" width="33.714" height="33.678"/>
					<path style="fill-rule:evenodd;clip-rule:evenodd;fill:#E1605F;stroke:#FBEBEB;stroke-width:0.3916;stroke-miterlimit:10;" d="
						M684.971,257.638h-1.958l-31.329,33.15l1.958,0.137"/>
				</g>
				<g>
					<rect x="642.895" y="197.695" style="fill:none;" width="9.677" height="9.667"/>
					<path style="fill-rule:evenodd;clip-rule:evenodd;fill:#E1605F;stroke:#FBEBEB;stroke-width:0.1124;stroke-miterlimit:10;" d="
						M652.572,197.752h-0.562l-8.993,9.516l0.562,0.039"/>
				</g>
				<g>
					<rect x="576.655" y="116.205" style="fill:none;" width="29.041" height="29.01"/>
					<path style="fill-rule:evenodd;clip-rule:evenodd;fill:#E1605F;stroke:#FBEBEB;stroke-width:0.3373;stroke-miterlimit:10;" d="
						M605.695,116.374h-1.687l-26.987,28.555l1.687,0.118"/>
				</g>
				<g>
					<rect x="604.469" y="40.587" style="fill:none;" width="40.953" height="40.91"/>
					<path style="fill-rule:evenodd;clip-rule:evenodd;fill:#E1605F;stroke:#FBEBEB;stroke-width:0.4757;stroke-miterlimit:10;" d="
						M645.423,40.825h-2.378l-38.056,40.269l2.379,0.166"/>
				</g>
				<g>
					<rect x="646.28" y="-28.775" style="fill:none;" width="56.748" height="56.688"/>
					<path style="fill-rule:evenodd;clip-rule:evenodd;fill:#E1605F;stroke:#FBEBEB;stroke-width:0.6592;stroke-miterlimit:10;" d="
						M703.028-28.446h-3.296l-52.734,55.8l3.296,0.23"/>
				</g>
			</g>
		</g>
		<g id="White-part_5_">
			<g>
				<g>
					<rect x="727.918" y="9.087" style="fill:none;" width="38.928" height="38.887"/>
					<path style="fill-rule:evenodd;clip-rule:evenodd;fill:#E1605F;stroke:#FBEBEB;stroke-width:0.4522;stroke-miterlimit:10;" d="
						M766.846,9.313h-2.261l-36.175,38.278l2.261,0.158"/>
				</g>
				<g>
					<rect x="787.895" y="73.112" style="fill:none;" width="53.655" height="53.598"/>
					<path style="fill-rule:evenodd;clip-rule:evenodd;fill:#E1605F;stroke:#FBEBEB;stroke-width:0.6232;stroke-miterlimit:10;" d="
						M841.55,73.423h-3.116l-49.86,52.758l3.116,0.218"/>
				</g>
				<g>
					<rect x="658.279" y="142.764" style="fill:none;" width="35.219" height="35.182"/>
					<path style="fill-rule:evenodd;clip-rule:evenodd;fill:#E1605F;stroke:#FBEBEB;stroke-width:0.4091;stroke-miterlimit:10;" d="
						M693.498,142.969h-2.045l-32.728,34.631l2.046,0.143"/>
				</g>
				<g>
					<rect x="771.417" y="219.027" style="fill:none;" width="10.016" height="10.006"/>
					<path style="fill-rule:evenodd;clip-rule:evenodd;fill:#E1605F;stroke:#FBEBEB;stroke-width:0.1163;stroke-miterlimit:10;" d="
						M781.434,219.085h-0.582l-9.308,9.849l0.582,0.041"/>
				</g>
				<g>
					<rect x="758.513" y="280.447" style="fill:none;" width="22.531" height="22.507"/>
					<path style="fill-rule:evenodd;clip-rule:evenodd;fill:#E1605F;stroke:#FBEBEB;stroke-width:0.2617;stroke-miterlimit:10;" d="
						M781.044,280.578h-1.309l-20.937,22.154l1.309,0.091"/>
				</g>
				<g>
					<rect x="765.427" y="347.598" style="fill:none;" width="24.981" height="24.955"/>
					<path style="fill-rule:evenodd;clip-rule:evenodd;fill:#E1605F;stroke:#FBEBEB;stroke-width:0.2902;stroke-miterlimit:10;" d="
						M790.408,347.744h-1.451l-23.214,24.564l1.451,0.101"/>
				</g>
				<g>
					<rect x="692.362" y="424.965" style="fill:none;" width="19.542" height="19.522"/>
					<path style="fill-rule:evenodd;clip-rule:evenodd;fill:#E1605F;stroke:#FBEBEB;stroke-width:0.227;stroke-miterlimit:10;" d="
						M711.905,425.079h-1.135l-18.16,19.216l1.135,0.079"/>
				</g>
				<g>
					<rect x="789.555" y="479.261" style="fill:none;" width="42.302" height="42.257"/>
					<path style="fill-rule:evenodd;clip-rule:evenodd;fill:#E1605F;stroke:#FBEBEB;stroke-width:0.4914;stroke-miterlimit:10;" d="
						M831.857,479.506H829.4l-39.31,41.595l2.457,0.172"/>
				</g>
				<g>
					<rect x="692.193" y="559.061" style="fill:none;" width="31.618" height="31.585"/>
					<path style="fill-rule:evenodd;clip-rule:evenodd;fill:#E1605F;stroke:#FBEBEB;stroke-width:0.3673;stroke-miterlimit:10;" d="
						M723.811,559.245h-1.836l-29.382,31.09l1.836,0.128"/>
				</g>
				<g>
					<rect x="763.06" y="623.987" style="fill:none;" width="20.916" height="20.894"/>
					<path style="fill-rule:evenodd;clip-rule:evenodd;fill:#E1605F;stroke:#FBEBEB;stroke-width:0.243;stroke-miterlimit:10;" d="
						M783.976,624.109h-1.215l-19.437,20.567l1.215,0.085"/>
				</g>
				<g>
					<rect x="779.065" y="694.097" style="fill:none;" width="22.332" height="22.309"/>
					<path style="fill-rule:evenodd;clip-rule:evenodd;fill:#E1605F;stroke:#FBEBEB;stroke-width:0.2594;stroke-miterlimit:10;" d="
						M801.398,694.227h-1.297l-20.752,21.959l1.297,0.091"/>
				</g>
				<g>
					<rect x="732.558" y="756.686" style="fill:none;" width="24.447" height="24.421"/>
					<path style="fill-rule:evenodd;clip-rule:evenodd;fill:#E1605F;stroke:#FBEBEB;stroke-width:0.284;stroke-miterlimit:10;" d="
						M757.005,756.828h-1.42l-22.717,24.038l1.42,0.099"/>
				</g>
				<g>
					<rect x="809.455" y="833.925" style="fill:none;" width="14.835" height="14.82"/>
					<path style="fill-rule:evenodd;clip-rule:evenodd;fill:#E1605F;stroke:#FBEBEB;stroke-width:0.1723;stroke-miterlimit:10;" d="
						M824.29,834.011h-0.862l-13.786,14.587l0.862,0.06"/>
				</g>
				<g>
					<rect x="677.373" y="891.825" style="fill:none;" width="15.908" height="15.891"/>
					<path style="fill-rule:evenodd;clip-rule:evenodd;fill:#E1605F;stroke:#FBEBEB;stroke-width:0.1848;stroke-miterlimit:10;" d="
						M693.281,891.917h-0.924l-14.782,15.642l0.924,0.065"/>
				</g>
				<g>
					<rect x="709.762" y="955.537" style="fill:none;" width="15.842" height="15.826"/>
					<path style="fill-rule:evenodd;clip-rule:evenodd;fill:#E1605F;stroke:#FBEBEB;stroke-width:0.184;stroke-miterlimit:10;" d="
						M725.604,955.629h-0.92l-14.722,15.578l0.92,0.064"/>
				</g>
				<g>
					<rect x="741.609" y="1018.467" style="fill:none;" width="10.214" height="10.203"/>
					<path style="fill-rule:evenodd;clip-rule:evenodd;fill:#E1605F;stroke:#FBEBEB;stroke-width:0.1186;stroke-miterlimit:10;" d="
						M751.823,1018.526h-0.593l-9.492,10.044l0.593,0.041"/>
				</g>
			</g>
		</g>
		<g id="Skin-background_17_">
			<g>
				<g>
					<rect x="777.267" y="450.401" style="fill:none;" width="19.261" height="19.241"/>
					<path style="fill-rule:evenodd;clip-rule:evenodd;fill:#E1605F;stroke:#FBEBEB;stroke-width:0.2237;stroke-miterlimit:10;" d="
						M796.528,450.513h-1.119l-17.899,18.939l1.119,0.078"/>
				</g>
				<g>
					<rect x="758.138" y="512.349" style="fill:none;" width="47.708" height="47.658"/>
					<path style="fill-rule:evenodd;clip-rule:evenodd;fill:#E1605F;stroke:#FBEBEB;stroke-width:0.5542;stroke-miterlimit:10;" d="
						M805.846,512.626h-2.771l-44.333,46.911l2.771,0.193"/>
				</g>
				<g>
					<rect x="802.68" y="589.354" style="fill:none;" width="25.494" height="25.467"/>
					<path style="fill-rule:evenodd;clip-rule:evenodd;fill:#E1605F;stroke:#FBEBEB;stroke-width:0.2961;stroke-miterlimit:10;" d="
						M828.174,589.502h-1.481l-23.691,25.068l1.481,0.103"/>
				</g>
				<g>
					<rect x="720.584" y="601.603" style="fill:none;" width="41.252" height="41.208"/>
					<path style="fill-rule:evenodd;clip-rule:evenodd;fill:#E1605F;stroke:#FBEBEB;stroke-width:0.4792;stroke-miterlimit:10;" d="
						M761.836,601.843h-2.396l-38.334,40.562l2.396,0.167"/>
				</g>
				<g>
					<rect x="780.897" y="522.246" style="fill:none;" width="44.25" height="44.203"/>
					<path style="fill-rule:evenodd;clip-rule:evenodd;fill:#E1605F;stroke:#FBEBEB;stroke-width:0.514;stroke-miterlimit:10;" d="
						M825.147,522.503h-2.57l-41.12,43.51l2.57,0.179"/>
				</g>
				<g>
					<rect x="845.116" y="585.324" style="fill:none;" width="45.46" height="45.412"/>
					<path style="fill-rule:evenodd;clip-rule:evenodd;fill:#E1605F;stroke:#FBEBEB;stroke-width:0.5281;stroke-miterlimit:10;" d="
						M890.577,585.588h-2.64l-42.245,44.701l2.64,0.184"/>
				</g>
				<g>
					<rect x="910.306" y="567.196" style="fill:none;" width="51.394" height="51.34"/>
					<path style="fill-rule:evenodd;clip-rule:evenodd;fill:#E1605F;stroke:#FBEBEB;stroke-width:0.597;stroke-miterlimit:10;" d="
						M961.7,567.495h-2.985l-47.759,50.535l2.985,0.208"/>
				</g>
				<g>
					<rect x="983.73" y="618.609" style="fill:none;" width="32.057" height="32.023"/>
					<path style="fill-rule:evenodd;clip-rule:evenodd;fill:#E1605F;stroke:#FBEBEB;stroke-width:0.3724;stroke-miterlimit:10;" d="
						M1015.786,618.796h-1.862l-29.789,31.521l1.862,0.13"/>
				</g>
				<g>
					<rect x="1043.842" y="472.783" style="fill:none;" width="58.383" height="58.322"/>
					<path style="fill-rule:evenodd;clip-rule:evenodd;fill:#E1605F;stroke:#FBEBEB;stroke-width:0.6782;stroke-miterlimit:10;" d="
						M1102.225,473.122h-3.391l-54.254,57.408l3.391,0.237"/>
				</g>
				<g>
					<rect x="1114.76" y="558.402" style="fill:none;" width="36.719" height="36.68"/>
					<path style="fill-rule:evenodd;clip-rule:evenodd;fill:#E1605F;stroke:#FBEBEB;stroke-width:0.4265;stroke-miterlimit:10;" d="
						M1151.479,558.615h-2.133l-34.122,36.105l2.133,0.149"/>
				</g>
				<g>
					<rect x="1181.482" y="586.045" style="fill:none;" width="22.589" height="22.565"/>
					<path style="fill-rule:evenodd;clip-rule:evenodd;fill:#E1605F;stroke:#FBEBEB;stroke-width:0.2624;stroke-miterlimit:10;" d="
						M1204.071,586.177h-1.312l-20.991,22.211l1.312,0.092"/>
				</g>
				<g>
					<rect x="1110.425" y="552.225" style="fill:none;" width="28.132" height="28.102"/>
					<path style="fill-rule:evenodd;clip-rule:evenodd;fill:#E1605F;stroke:#FBEBEB;stroke-width:0.3268;stroke-miterlimit:10;" d="
						M1138.557,552.389h-1.634l-26.142,27.662l1.634,0.114"/>
				</g>
				<g>
					<rect x="1051.707" y="471.833" style="fill:none;" width="46.207" height="46.158"/>
					<path style="fill-rule:evenodd;clip-rule:evenodd;fill:#E1605F;stroke:#FBEBEB;stroke-width:0.5367;stroke-miterlimit:10;" d="
						M1097.913,472.102h-2.684l-42.938,45.434l2.684,0.187"/>
				</g>
				<g>
					<rect x="1123.309" y="413.567" style="fill:none;" width="30.606" height="30.574"/>
					<path style="fill-rule:evenodd;clip-rule:evenodd;fill:#E1605F;stroke:#FBEBEB;stroke-width:0.3555;stroke-miterlimit:10;" d="
						M1153.915,413.744h-1.778l-28.441,30.094l1.778,0.124"/>
				</g>
				<g>
					<rect x="1139.672" y="414.113" style="fill:none;" width="23.404" height="23.38"/>
					<path style="fill-rule:evenodd;clip-rule:evenodd;fill:#E1605F;stroke:#FBEBEB;stroke-width:0.2719;stroke-miterlimit:10;" d="
						M1163.076,414.249h-1.359l-21.749,23.013l1.359,0.095"/>
				</g>
				<g>
					<rect x="1079.69" y="367.644" style="fill:none;" width="21.489" height="21.466"/>
					<path style="fill-rule:evenodd;clip-rule:evenodd;fill:#E1605F;stroke:#FBEBEB;stroke-width:0.2496;stroke-miterlimit:10;" d="
						M1101.179,367.769h-1.248l-19.969,21.13l1.248,0.087"/>
				</g>
				<g>
					<rect x="1017.722" y="452.209" style="fill:none;" width="28.162" height="28.132"/>
					<path style="fill-rule:evenodd;clip-rule:evenodd;fill:#E1605F;stroke:#FBEBEB;stroke-width:0.3271;stroke-miterlimit:10;" d="
						M1045.884,452.373h-1.636l-26.17,27.691l1.636,0.114"/>
				</g>
				<g>
					<rect x="955.596" y="462.248" style="fill:none;" width="24.715" height="24.688"/>
					<path style="fill-rule:evenodd;clip-rule:evenodd;fill:#E1605F;stroke:#FBEBEB;stroke-width:0.2871;stroke-miterlimit:10;" d="
						M980.311,462.391h-1.435l-22.966,24.301l1.435,0.1"/>
				</g>
				<g>
					<rect x="875.031" y="407.26" style="fill:none;" width="34.919" height="34.882"/>
					<path style="fill-rule:evenodd;clip-rule:evenodd;fill:#E1605F;stroke:#FBEBEB;stroke-width:0.4056;stroke-miterlimit:10;" d="
						M909.949,407.463h-2.028l-32.449,34.335l2.028,0.142"/>
				</g>
				<g>
					<rect x="822.425" y="495.173" style="fill:none;" width="22.373" height="22.349"/>
					<path style="fill-rule:evenodd;clip-rule:evenodd;fill:#E1605F;stroke:#FBEBEB;stroke-width:0.2599;stroke-miterlimit:10;" d="
						M844.797,495.303h-1.299l-20.79,21.999l1.299,0.091"/>
				</g>
				<g>
					<rect x="740.729" y="465.583" style="fill:none;" width="46.714" height="46.665"/>
					<path style="fill-rule:evenodd;clip-rule:evenodd;fill:#E1605F;stroke:#FBEBEB;stroke-width:0.5426;stroke-miterlimit:10;" d="
						M787.443,465.855h-2.713l-43.41,45.934l2.713,0.189"/>
				</g>
				<g>
					<rect x="678.709" y="371.612" style="fill:none;" width="42.582" height="42.537"/>
					<path style="fill-rule:evenodd;clip-rule:evenodd;fill:#E1605F;stroke:#FBEBEB;stroke-width:0.4946;stroke-miterlimit:10;" d="
						M721.291,371.859h-2.473l-39.57,41.87l2.473,0.173"/>
				</g>
			</g>
		</g>
		<g id="Rat-background_17_">
			<g>
				<g>
					<rect x="297.026" y="423.388" style="fill:none;" width="36.987" height="36.948"/>
					<path style="fill-rule:evenodd;clip-rule:evenodd;fill:#E1605F;stroke:#FBEBEB;stroke-width:0.4296;stroke-miterlimit:10;" d="
						M334.013,423.603h-2.148l-34.37,36.369l2.148,0.15"/>
				</g>
				<g>
					<rect x="260.506" y="488.372" style="fill:none;" width="26.955" height="26.927"/>
					<path style="fill-rule:evenodd;clip-rule:evenodd;fill:#E1605F;stroke:#FBEBEB;stroke-width:0.3131;stroke-miterlimit:10;" d="
						M287.461,488.529h-1.566l-25.048,26.505l1.566,0.109"/>
				</g>
				<g>
					<rect x="273.543" y="553.704" style="fill:none;" width="30.904" height="30.871"/>
					<path style="fill-rule:evenodd;clip-rule:evenodd;fill:#E1605F;stroke:#FBEBEB;stroke-width:0.359;stroke-miterlimit:10;" d="
						M304.447,553.884h-1.795l-28.718,30.387l1.795,0.125"/>
				</g>
				<g>
					<rect x="248.784" y="596.149" style="fill:none;" width="49.57" height="49.517"/>
					<path style="fill-rule:evenodd;clip-rule:evenodd;fill:#E1605F;stroke:#FBEBEB;stroke-width:0.5758;stroke-miterlimit:10;" d="
						M298.353,596.437h-2.879l-46.063,48.741l2.879,0.201"/>
				</g>
				<g>
					<rect x="322.316" y="527.492" style="fill:none;" width="36.859" height="36.82"/>
					<path style="fill-rule:evenodd;clip-rule:evenodd;fill:#E1605F;stroke:#FBEBEB;stroke-width:0.4281;stroke-miterlimit:10;" d="
						M359.175,527.706h-2.141l-34.252,36.243l2.141,0.149"/>
				</g>
				<g>
					<rect x="389.023" y="625.705" style="fill:none;" width="40.418" height="40.375"/>
					<path style="fill-rule:evenodd;clip-rule:evenodd;fill:#E1605F;stroke:#FBEBEB;stroke-width:0.4695;stroke-miterlimit:10;" d="
						M429.441,625.94h-2.347l-37.559,39.742l2.347,0.164"/>
				</g>
				<g>
					<rect x="443.055" y="537.029" style="fill:none;" width="53.198" height="53.142"/>
					<path style="fill-rule:evenodd;clip-rule:evenodd;fill:#E1605F;stroke:#FBEBEB;stroke-width:0.6179;stroke-miterlimit:10;" d="
						M496.253,537.338h-3.09l-49.435,52.309l3.09,0.216"/>
				</g>
				<g>
					<rect x="516.137" y="516.213" style="fill:none;" width="51.879" height="51.824"/>
					<path style="fill-rule:evenodd;clip-rule:evenodd;fill:#E1605F;stroke:#FBEBEB;stroke-width:0.6026;stroke-miterlimit:10;" d="
						M568.016,516.514h-3.013l-48.209,51.012l3.013,0.21"/>
				</g>
				<g>
					<rect x="588.854" y="497.391" style="fill:none;" width="39.862" height="39.82"/>
					<path style="fill-rule:evenodd;clip-rule:evenodd;fill:#E1605F;stroke:#FBEBEB;stroke-width:0.463;stroke-miterlimit:10;" d="
						M628.716,497.623h-2.315l-37.042,39.196l2.315,0.162"/>
				</g>
				<g>
					<rect x="653.244" y="506.773" style="fill:none;" width="36.78" height="36.742"/>
					<path style="fill-rule:evenodd;clip-rule:evenodd;fill:#E1605F;stroke:#FBEBEB;stroke-width:0.4272;stroke-miterlimit:10;" d="
						M690.024,506.987h-2.136l-34.179,36.166l2.136,0.149"/>
				</g>
				<g>
					<rect x="688.905" y="569.333" style="fill:none;" width="31.297" height="31.264"/>
					<path style="fill-rule:evenodd;clip-rule:evenodd;fill:#E1605F;stroke:#FBEBEB;stroke-width:0.3635;stroke-miterlimit:10;" d="
						M720.203,569.515h-1.818l-29.083,30.774l1.818,0.127"/>
				</g>
				<g>
					<rect x="708.128" y="496.745" style="fill:none;" width="24.677" height="24.651"/>
					<path style="fill-rule:evenodd;clip-rule:evenodd;fill:#E1605F;stroke:#FBEBEB;stroke-width:0.2866;stroke-miterlimit:10;" d="
						M732.805,496.888h-1.433l-22.931,24.265l1.433,0.1"/>
				</g>
				<g>
					<rect x="691.5" y="433.742" style="fill:none;" width="23.747" height="23.722"/>
					<path style="fill-rule:evenodd;clip-rule:evenodd;fill:#E1605F;stroke:#FBEBEB;stroke-width:0.2758;stroke-miterlimit:10;" d="
						M715.247,433.88h-1.379L691.8,457.23l1.379,0.096"/>
				</g>
				<g>
					<rect x="677.45" y="402.228" style="fill:none;" width="12.46" height="12.447"/>
					<path style="fill-rule:evenodd;clip-rule:evenodd;fill:#E1605F;stroke:#FBEBEB;stroke-width:0.1447;stroke-miterlimit:10;" d="
						M689.91,402.301h-0.724l-11.579,12.252l0.724,0.051"/>
				</g>
				<g>
					<rect x="583.761" y="378.139" style="fill:none;" width="53.522" height="53.466"/>
					<path style="fill-rule:evenodd;clip-rule:evenodd;fill:#E1605F;stroke:#FBEBEB;stroke-width:0.6217;stroke-miterlimit:10;" d="
						M637.284,378.45h-3.109l-49.737,52.628l3.109,0.217"/>
				</g>
				<g>
					<rect x="505.908" y="348.443" style="fill:none;" width="57.783" height="57.722"/>
					<path style="fill-rule:evenodd;clip-rule:evenodd;fill:#E1605F;stroke:#FBEBEB;stroke-width:0.6712;stroke-miterlimit:10;" d="
						M563.691,348.778h-3.356l-53.696,56.817l3.356,0.234"/>
				</g>
				<g>
					<rect x="453.873" y="469.572" style="fill:none;" width="20.596" height="20.574"/>
					<path style="fill-rule:evenodd;clip-rule:evenodd;fill:#E1605F;stroke:#FBEBEB;stroke-width:0.2392;stroke-miterlimit:10;" d="
						M474.469,469.692h-1.196l-19.139,20.252l1.196,0.084"/>
				</g>
				<g>
					<rect x="359.08" y="374.633" style="fill:none;" width="58.136" height="58.074"/>
					<path style="fill-rule:evenodd;clip-rule:evenodd;fill:#E1605F;stroke:#FBEBEB;stroke-width:0.6753;stroke-miterlimit:10;" d="
						M417.215,374.971h-3.376l-54.024,57.164l3.376,0.236"/>
				</g>
				<g>
					<rect x="309.892" y="435.247" style="fill:none;" width="35.187" height="35.15"/>
					<path style="fill-rule:evenodd;clip-rule:evenodd;fill:#E1605F;stroke:#FBEBEB;stroke-width:0.4087;stroke-miterlimit:10;" d="
						M345.08,435.452h-2.044l-32.698,34.599l2.044,0.143"/>
				</g>
				<g>
					<rect x="236.453" y="401.154" style="fill:none;" width="31.095" height="31.062"/>
					<path style="fill-rule:evenodd;clip-rule:evenodd;fill:#E1605F;stroke:#FBEBEB;stroke-width:0.3612;stroke-miterlimit:10;" d="
						M267.547,401.334h-1.806l-28.895,30.575l1.806,0.126"/>
				</g>
			</g>
		</g>
	</g>
</g>
<g id="Layer_1">
</g>
</svg>
