<svg xmlns="http://www.w3.org/2000/svg" viewBox="0 0 1307.27 889.69"><defs><style>.cls-1{fill:none;}.cls-2{fill:#020b3c;}.cls-2,.cls-3,.cls-4{fill-rule:evenodd;}.cls-3{fill:#dfdfdf;}.cls-4{fill:#e1605f;}</style></defs><title>Asset 6</title><g id="Layer_2" data-name="Layer 2"><g id="Lines_3" data-name="Lines 3"><g id="Lines_5" data-name="Lines 5"><g id="Skin-background"><rect class="cls-1" x="833.95" y="187.15" width="314.06" height="311.37"/><polygon class="cls-2" points="833.95 498.28 836.64 498.53 1148.02 187.15 1145.06 187.17 833.95 498.28"/><rect class="cls-1" x="767.63" y="387.11" width="215.28" height="213.44"/><polygon class="cls-2" points="767.63 600.38 769.48 600.55 982.91 387.11 980.88 387.12 767.63 600.38"/><rect class="cls-1" x="584.53" width="311.64" height="308.97"/><polygon class="cls-2" points="584.53 308.73 587.2 308.97 896.17 0 893.24 0.02 584.53 308.73"/><rect class="cls-1" x="802.23" y="184.29" width="209.46" height="207.66"/><polygon class="cls-2" points="802.23 391.79 804.02 391.95 1011.68 184.29 1009.71 184.3 802.23 391.79"/><rect class="cls-1" x="900.46" y="78.68" width="362.21" height="359.1"/><polygon class="cls-2" points="900.46 437.5 903.56 437.79 1262.67 78.68 1259.25 78.7 900.46 437.5"/><rect class="cls-1" x="624.84" y="320.75" width="261.15" height="258.92"/><polygon class="cls-2" points="624.84 579.46 627.08 579.67 886 320.75 883.53 320.76 624.84 579.46"/><rect class="cls-1" x="678.38" y="361.71" width="396.06" height="392.66"/><polygon class="cls-2" points="678.38 754.06 681.77 754.37 1074.44 361.71 1070.71 361.73 678.38 754.06"/><rect class="cls-1" x="752.35" y="459.38" width="368.62" height="365.46"/><polygon class="cls-2" points="752.35 824.55 755.51 824.84 1120.97 459.38 1117.5 459.4 752.35 824.55"/><rect class="cls-1" x="647.7" y="390.78" width="337.33" height="334.44"/><polygon class="cls-2" points="647.71 724.95 650.6 725.22 985.03 390.78 981.86 390.8 647.71 724.95"/><rect class="cls-1" x="473.44" y="448.9" width="311.66" height="308.99"/><polygon class="cls-2" points="473.44 757.64 476.11 757.89 785.1 448.9 782.17 448.92 473.44 757.64"/></g><g id="Rat-background"><rect class="cls-1" x="288.89" y="244.31" width="204.56" height="202.8"/><polygon class="cls-2" points="288.89 446.95 290.64 447.11 493.45 244.31 491.52 244.32 288.89 446.95"/><rect class="cls-1" x="455.56" y="414.7" width="236.98" height="234.95"/><polygon class="cls-2" points="455.56 649.46 457.59 649.65 692.54 414.7 690.31 414.71 455.56 649.46"/><rect class="cls-1" x="151.01" y="121.78" width="399.16" height="395.74"/><polygon class="cls-2" points="151.01 517.21 154.43 517.52 550.17 121.78 546.41 121.81 151.01 517.21"/><rect class="cls-1" x="362.49" y="57.03" width="352.82" height="349.8"/><polygon class="cls-2" points="362.49 406.54 365.51 406.82 715.31 57.03 711.99 57.05 362.49 406.54"/><rect class="cls-1" x="211.56" y="398.17" width="241.26" height="239.19"/><polygon class="cls-2" points="211.56 637.17 213.63 637.36 452.82 398.17 450.55 398.18 211.56 637.17"/><rect class="cls-1" x="231.72" y="190.77" width="377.18" height="373.95"/><polygon class="cls-2" points="231.72 564.42 234.96 564.72 608.91 190.77 605.36 190.79 231.72 564.42"/><rect class="cls-1" x="453.76" y="568.58" width="217.73" height="215.86"/><polygon class="cls-2" points="453.76 784.27 455.63 784.44 671.49 568.58 669.44 568.59 453.76 784.27"/><rect class="cls-1" x="270.42" y="396.52" width="323.98" height="321.21"/><polygon class="cls-2" points="270.42 717.47 273.2 717.73 594.4 396.52 591.35 396.54 270.42 717.47"/><rect class="cls-1" x="187.34" y="439.61" width="223.54" height="221.62"/><polygon class="cls-2" points="187.34 661.05 189.26 661.23 410.88 439.61 408.78 439.62 187.34 661.05"/><rect class="cls-1" x="37.99" y="545.12" width="286.57" height="284.11"/><polygon class="cls-2" points="37.99 829.01 40.44 829.23 324.55 545.12 321.86 545.14 37.99 829.01"/></g></g><g id="Sub_1_copy" data-name="Sub 1 copy"><g id="Skin-background-2" data-name="Skin-background"><rect class="cls-1" x="830.91" y="232.37" width="244.71" height="242.61"/><polygon class="cls-3" points="830.91 474.79 833.01 474.98 1075.62 232.37 1073.31 232.38 830.91 474.79"/><rect class="cls-1" x="841.49" y="335.41" width="266" height="263.72"/><polygon class="cls-3" points="841.5 598.91 843.77 599.12 1107.49 335.41 1104.99 335.42 841.5 598.91"/><rect class="cls-1" x="606.03" y="17.41" width="294.26" height="291.74"/><polygon class="cls-3" points="606.03 308.92 608.56 309.15 900.3 17.41 897.53 17.42 606.03 308.92"/><rect class="cls-1" x="753.44" y="147.88" width="348.18" height="345.2"/><polygon class="cls-3" points="753.44 492.8 756.42 493.08 1101.62 147.88 1098.34 147.9 753.44 492.8"/><rect class="cls-1" x="963.41" y="37.93" width="309.14" height="306.49"/><polygon class="cls-3" points="963.41 344.17 966.06 344.42 1272.55 37.93 1269.64 37.94 963.41 344.17"/><rect class="cls-1" x="754.5" y="232.43" width="387.49" height="384.17"/><polygon class="cls-3" points="754.5 616.29 757.82 616.6 1141.99 232.43 1138.34 232.45 754.5 616.29"/><rect class="cls-1" x="928.74" y="512.87" width="364.76" height="361.64"/><polygon class="cls-3" points="928.74 874.22 931.87 874.51 1293.51 512.87 1290.07 512.89 928.74 874.22"/><rect class="cls-1" x="761.37" y="494.04" width="399.07" height="395.65"/><polygon class="cls-3" points="761.37 889.38 764.79 889.69 1160.43 494.04 1156.68 494.06 761.37 889.38"/><rect class="cls-1" x="641.84" y="333.97" width="379.17" height="375.92"/><polygon class="cls-3" points="641.84 709.59 645.09 709.89 1021.01 333.97 1017.44 333.99 641.84 709.59"/><rect class="cls-1" x="469.14" y="422.21" width="400.27" height="396.84"/><polygon class="cls-3" points="469.13 818.73 472.57 819.05 869.41 422.21 865.64 422.23 469.13 818.73"/></g><g id="Rat-background-2" data-name="Rat-background"><rect class="cls-1" x="393" y="248.02" width="376.3" height="373.07"/><polygon class="cls-3" points="393 620.79 396.23 621.09 769.3 248.02 765.76 248.04 393 620.79"/><rect class="cls-1" x="152.07" y="173.86" width="276.33" height="273.96"/><polygon class="cls-3" points="152.07 447.61 154.44 447.83 428.41 173.86 425.8 173.88 152.07 447.61"/><rect class="cls-1" x="268.44" y="151.25" width="272.29" height="269.96"/><polygon class="cls-3" points="268.44 420.99 270.77 421.2 540.73 151.25 538.17 151.26 268.44 420.99"/><rect class="cls-1" x="470.59" y="139.16" width="244.73" height="242.63"/><polygon class="cls-3" points="470.59 381.6 472.69 381.79 715.32 139.16 713.02 139.17 470.59 381.6"/><rect class="cls-1" x="193.18" y="404.93" width="208.64" height="206.86"/><polygon class="cls-3" points="193.18 611.62 194.97 611.79 401.82 404.93 399.86 404.94 193.18 611.62"/><rect class="cls-1" x="222.18" y="243.37" width="316.37" height="313.66"/><polygon class="cls-3" points="222.18 556.78 224.89 557.03 538.55 243.37 535.57 243.39 222.18 556.78"/><rect class="cls-1" x="452.94" y="514.5" width="240.46" height="238.39"/><polygon class="cls-3" points="452.94 752.71 455 752.9 693.39 514.5 691.13 514.51 452.94 752.71"/><rect class="cls-1" x="263.63" y="419.52" width="241.98" height="239.9"/><polygon class="cls-3" points="263.63 659.23 265.71 659.42 505.61 419.52 503.33 419.53 263.63 659.23"/><rect class="cls-1" x="28.57" y="408.71" width="385.41" height="382.1"/><polygon class="cls-3" points="28.57 790.51 31.87 790.82 413.97 408.71 410.34 408.73 28.57 790.51"/></g></g><g id="Sub_1_copy_2" data-name="Sub 1 copy 2"><g id="Skin-background-3" data-name="Skin-background"><rect class="cls-1" x="764.61" y="256.59" width="238.63" height="236.59"/><polygon class="cls-3" points="764.61 492.98 766.66 493.17 1003.24 256.59 1000.99 256.6 764.61 492.98"/><rect class="cls-1" x="531.45" y="102.22" width="320.19" height="317.45"/><polygon class="cls-3" points="531.45 419.42 534.19 419.67 851.64 102.22 848.62 102.24 531.45 419.42"/><rect class="cls-1" x="763.91" y="89.59" width="239.62" height="237.56"/><polygon class="cls-3" points="763.91 326.97 765.96 327.16 1003.52 89.59 1001.27 89.61 763.91 326.97"/><rect class="cls-1" x="860.89" y="119.87" width="297.33" height="294.78"/><polygon class="cls-3" points="860.89 414.41 863.44 414.65 1158.22 119.87 1155.42 119.88 860.89 414.41"/><rect class="cls-1" x="992.52" y="111.39" width="314.75" height="312.06"/><polygon class="cls-3" points="992.52 423.2 995.22 423.45 1307.27 111.39 1304.31 111.41 992.52 423.2"/><rect class="cls-1" x="792.17" y="257.48" width="311.46" height="308.79"/><polygon class="cls-3" points="792.17 566.02 794.84 566.27 1103.62 257.48 1100.69 257.5 792.17 566.02"/><rect class="cls-1" x="776.58" y="452.88" width="242.99" height="240.91"/><polygon class="cls-3" points="776.58 693.59 778.66 693.78 1019.57 452.88 1017.28 452.89 776.58 693.59"/><rect class="cls-1" x="846.81" y="511.65" width="362.42" height="359.32"/><polygon class="cls-3" points="846.81 870.68 849.92 870.97 1209.24 511.65 1205.82 511.67 846.81 870.68"/><rect class="cls-1" x="699.35" y="474.33" width="328.45" height="325.63"/><polygon class="cls-3" points="699.35 799.7 702.16 799.96 1027.8 474.33 1024.7 474.35 699.35 799.7"/><rect class="cls-1" x="474.14" y="393.46" width="390.27" height="386.92"/><polygon class="cls-3" points="474.14 780.08 477.48 780.39 864.41 393.46 860.73 393.48 474.14 780.08"/></g><g id="Rat-background-3" data-name="Rat-background"><rect class="cls-1" x="391.09" y="156.34" width="380.08" height="376.82"/><polygon class="cls-3" points="391.09 532.86 394.35 533.16 771.17 156.34 767.59 156.36 391.09 532.86"/><rect class="cls-1" x="289.71" y="302.15" width="332.5" height="329.65"/><polygon class="cls-3" points="289.71 631.53 292.56 631.8 622.21 302.15 619.08 302.17 289.71 631.53"/><rect class="cls-1" x="187.18" y="131.54" width="217.88" height="216.01"/><polygon class="cls-3" points="187.18 347.37 189.05 347.55 405.06 131.53 403.01 131.55 187.18 347.37"/><rect class="cls-1" x="345.55" y="13.66" width="281.6" height="279.18"/><polygon class="cls-3" points="345.55 292.62 347.96 292.85 627.14 13.66 624.49 13.68 345.55 292.62"/><rect class="cls-1" x="460.48" y="18.53" width="266.76" height="264.48"/><polygon class="cls-3" points="460.48 282.79 462.76 283 727.24 18.53 724.73 18.54 460.48 282.79"/><rect class="cls-1" x="92.83" y="308.2" width="351.82" height="348.81"/><polygon class="cls-3" points="92.83 656.73 95.84 657.01 444.65 308.2 441.33 308.22 92.83 656.73"/><rect class="cls-1" x="241.85" y="179.65" width="279.86" height="277.46"/><polygon class="cls-3" points="241.85 456.89 244.25 457.11 521.71 179.65 519.07 179.67 241.85 456.89"/><rect class="cls-1" x="447.59" y="566.92" width="208.95" height="207.16"/><polygon class="cls-3" points="447.6 773.91 449.39 774.07 656.54 566.91 654.57 566.93 447.6 773.91"/><rect class="cls-1" x="258.33" y="454.02" width="206.83" height="205.06"/><polygon class="cls-3" points="258.33 658.91 260.11 659.08 465.17 454.02 463.22 454.03 258.33 658.91"/><rect class="cls-1" x="93.36" y="530.71" width="255.82" height="253.63"/><polygon class="cls-3" points="93.36 784.14 95.55 784.34 349.18 530.71 346.77 530.73 93.36 784.14"/></g></g><g id="Sub_2_copy" data-name="Sub 2 copy"><g id="Skin-background-4" data-name="Skin-background"><rect class="cls-1" x="853.72" y="166.8" width="305.85" height="303.23"/><polygon class="cls-4" points="853.72 469.79 856.35 470.03 1159.57 166.8 1156.69 166.82 853.72 469.79"/><rect class="cls-1" x="825.22" y="295.34" width="340.29" height="337.38"/><polygon class="cls-4" points="825.22 632.45 828.14 632.72 1165.52 295.34 1162.31 295.36 825.22 632.45"/><rect class="cls-1" x="641.67" y="205.36" width="251.19" height="249.04"/><polygon class="cls-4" points="641.67 454.2 643.83 454.4 892.87 205.36 890.5 205.37 641.67 454.2"/><rect class="cls-1" x="753.18" y="30.2" width="259.88" height="257.65"/><polygon class="cls-4" points="753.17 287.65 755.4 287.86 1013.05 30.2 1010.61 30.22 753.17 287.65"/><rect class="cls-1" x="820.75" y="78.66" width="404.08" height="400.62"/><polygon class="cls-4" points="820.75 478.96 824.21 479.28 1224.83 78.66 1221.02 78.68 820.75 478.96"/><rect class="cls-1" x="609.95" y="328.48" width="373.13" height="369.93"/><polygon class="cls-4" points="609.95 698.11 613.14 698.4 983.07 328.48 979.56 328.5 609.95 698.11"/><rect class="cls-1" x="684.58" y="199.46" width="247.36" height="245.24"/><polygon class="cls-4" points="684.59 444.5 686.71 444.7 931.95 199.46 929.62 199.47 684.59 444.5"/><rect class="cls-1" x="855.48" y="598.08" width="217.82" height="215.95"/><polygon class="cls-4" points="855.48 813.85 857.35 814.03 1073.3 598.08 1071.25 598.09 855.48 813.85"/><rect class="cls-1" x="622.76" y="421.23" width="332.31" height="329.46"/><polygon class="cls-4" points="622.76 750.43 625.61 750.7 955.07 421.23 951.94 421.25 622.76 750.43"/><rect class="cls-1" x="526.6" y="422.9" width="245.35" height="243.25"/><polygon class="cls-4" points="526.6 665.95 528.7 666.15 771.95 422.9 769.63 422.91 526.6 665.95"/></g><g id="Rat-background-4" data-name="Rat-background"><rect class="cls-1" x="304.85" y="281.65" width="216.85" height="214.99"/><polygon class="cls-4" points="304.85 496.48 306.71 496.65 521.71 281.65 519.66 281.67 304.85 496.48"/><rect class="cls-1" x="294.92" y="197.63" width="251.41" height="249.26"/><polygon class="cls-4" points="294.92 446.69 297.08 446.89 546.34 197.63 543.97 197.65 294.92 446.69"/><rect class="cls-1" x="266.74" y="201.49" width="225.13" height="223.2"/><polygon class="cls-4" points="266.74 424.51 268.67 424.69 491.87 201.49 489.75 201.5 266.74 424.51"/><rect class="cls-1" x="460.94" y="129.98" width="212.45" height="210.63"/><polygon class="cls-4" points="460.94 340.45 462.76 340.61 673.39 129.99 671.39 130 460.94 340.45"/><rect class="cls-1" x="56.29" y="239.49" width="402.22" height="398.77"/><polygon class="cls-4" points="56.29 637.94 59.73 638.26 458.5 239.49 454.71 239.51 56.29 637.94"/><rect class="cls-1" x="438.94" y="365.16" width="355.33" height="352.29"/><polygon class="cls-4" points="438.94 717.16 441.99 717.45 794.28 365.16 790.93 365.18 438.94 717.16"/><rect class="cls-1" x="322.46" y="425.85" width="302.71" height="300.11"/><polygon class="cls-4" points="322.46 725.72 325.05 725.96 625.16 425.85 622.31 425.86 322.46 725.72"/><rect class="cls-1" x="157.36" y="341.64" width="370.46" height="367.29"/><polygon class="cls-4" points="157.36 708.63 160.54 708.92 527.83 341.64 524.34 341.66 157.36 708.63"/><rect class="cls-1" y="411.67" width="402.54" height="399.09"/><polygon class="cls-4" points="0 810.44 3.45 810.76 402.54 411.67 398.75 411.69 0 810.44"/></g></g></g></g></svg>