<svg xmlns="http://www.w3.org/2000/svg" viewBox="0 0 1137.37 1199.14"><defs><style>.cls-1{fill:none;}.cls-2{fill:#e1605f;}.cls-2,.cls-3,.cls-4{fill-rule:evenodd;}.cls-3{fill:#dfdfdf;}.cls-4{fill:#020b3c;}</style></defs><title>Asset 10</title><g id="Layer_2" data-name="Layer 2"><g id="Lines_4" data-name="Lines 4"><g id="Sub_2_copy_2" data-name="Sub 2 copy 2"><g id="Red-part"><rect class="cls-1" x="415.24" y="1007.57" width="186.86" height="175.14"/><polygon class="cls-2" points="415.24 1182.71 427.29 1182.39 602.1 1007.57 589.24 1007.71 415.24 1182.71"/><rect class="cls-1" x="377.61" y="850.63" width="186.86" height="175.14"/><polygon class="cls-2" points="377.61 1025.77 389.65 1025.44 564.47 850.63 551.61 850.76 377.61 1025.77"/><rect class="cls-1" x="460.34" y="687.76" width="186.86" height="175.14"/><polygon class="cls-2" points="460.34 862.9 472.39 862.58 647.2 687.76 634.34 687.9 460.34 862.9"/><rect class="cls-1" x="409.02" y="504.65" width="186.86" height="175.14"/><polygon class="cls-2" points="409.02 679.79 421.06 679.47 595.88 504.65 583.02 504.79 409.02 679.79"/><rect class="cls-1" x="452.88" y="336.87" width="186.86" height="175.14"/><polygon class="cls-2" points="452.88 512 464.92 511.68 639.74 336.87 626.88 337 452.88 512"/><rect class="cls-1" x="437.12" y="156.04" width="186.86" height="175.14"/><polygon class="cls-2" points="437.12 331.18 449.17 330.85 623.99 156.04 611.12 156.18 437.12 331.18"/><rect class="cls-1" x="432.74" width="186.86" height="175.14"/><polygon class="cls-2" points="432.74 175.14 444.78 174.82 619.6 0 606.74 0.14 432.74 175.14"/></g><g id="White-part"><rect class="cls-1" x="471.76" y="12.69" width="186.86" height="175.14"/><polygon class="cls-2" points="471.76 187.83 483.81 187.5 658.62 12.69 645.76 12.83 471.76 187.83"/><rect class="cls-1" x="498.38" y="173.4" width="186.86" height="175.14"/><polygon class="cls-2" points="498.38 348.54 510.43 348.22 685.25 173.4 672.38 173.54 498.38 348.54"/><rect class="cls-1" x="490.21" y="348.11" width="186.86" height="175.14"/><polygon class="cls-2" points="490.21 523.24 502.25 522.92 677.07 348.11 664.21 348.24 490.21 523.24"/><rect class="cls-1" x="494.8" y="508.54" width="186.86" height="175.14"/><polygon class="cls-2" points="494.8 683.67 506.84 683.35 681.66 508.54 668.8 508.68 494.8 683.67"/><rect class="cls-1" x="494.84" y="670.05" width="186.86" height="175.14"/><polygon class="cls-2" points="494.85 845.19 506.89 844.87 681.71 670.05 668.85 670.19 494.85 845.19"/><rect class="cls-1" x="496.67" y="842.75" width="186.86" height="175.14"/><polygon class="cls-2" points="496.67 1017.89 508.72 1017.57 683.54 842.75 670.67 842.89 496.67 1017.89"/><rect class="cls-1" x="484.97" y="1024" width="186.86" height="175.14"/><polygon class="cls-2" points="484.97 1199.14 497.01 1198.82 671.83 1024 658.97 1024.14 484.97 1199.14"/></g><g id="Red-part-2" data-name="Red-part"><rect class="cls-1" x="410.32" y="897.9" width="186.86" height="175.14"/><polygon class="cls-2" points="410.32 1073.03 422.37 1072.71 597.18 897.89 584.32 898.03 410.32 1073.03"/><rect class="cls-1" x="424.31" y="714.46" width="186.86" height="175.14"/><polygon class="cls-2" points="424.31 889.6 436.36 889.28 611.17 714.46 598.31 714.6 424.31 889.6"/><rect class="cls-1" x="407.33" y="527.82" width="186.86" height="175.14"/><polygon class="cls-2" points="407.33 702.95 419.37 702.63 594.19 527.82 581.33 527.95 407.33 702.95"/><rect class="cls-1" x="370.83" y="341.12" width="186.86" height="175.14"/><polygon class="cls-2" points="370.83 516.25 382.87 515.93 557.69 341.12 544.83 341.25 370.83 516.25"/><rect class="cls-1" x="388.94" y="154.94" width="186.86" height="175.14"/><polygon class="cls-2" points="388.94 330.07 400.98 329.75 575.8 154.94 562.94 155.07 388.94 330.07"/><rect class="cls-1" x="381.59" width="186.86" height="175.14"/><polygon class="cls-2" points="381.59 175.14 393.63 174.82 568.45 0 555.59 0.14 381.59 175.14"/></g><g id="White-part-2" data-name="White-part"><rect class="cls-1" x="544.32" y="153.23" width="186.86" height="175.14"/><polygon class="cls-2" points="544.32 328.37 556.37 328.05 731.18 153.23 718.32 153.37 544.32 328.37"/><rect class="cls-1" x="543.67" y="337.05" width="186.86" height="175.14"/><polygon class="cls-2" points="543.67 512.19 555.72 511.87 730.54 337.05 717.67 337.19 543.67 512.19"/><rect class="cls-1" x="491.3" y="522.84" width="186.86" height="175.14"/><polygon class="cls-2" points="491.3 697.98 503.34 697.66 678.16 522.84 665.29 522.98 491.3 697.98"/><rect class="cls-1" x="557.56" y="686.93" width="186.86" height="175.14"/><polygon class="cls-2" points="557.56 862.07 569.61 861.74 744.42 686.93 731.56 687.07 557.56 862.07"/><rect class="cls-1" x="573.93" y="864.7" width="186.86" height="175.14"/><polygon class="cls-2" points="573.93 1039.83 585.97 1039.51 760.79 864.7 747.93 864.83 573.93 1039.83"/><rect class="cls-1" x="558.55" y="1024" width="186.86" height="175.14"/><polygon class="cls-2" points="558.55 1199.14 570.59 1198.82 745.41 1024 732.55 1024.14 558.55 1199.14"/></g><g id="Skin-background"><rect class="cls-1" x="468.74" y="460.81" width="186.86" height="175.14"/><polygon class="cls-2" points="468.74 635.95 480.78 635.63 655.6 460.81 642.74 460.95 468.74 635.95"/><rect class="cls-1" x="497.6" y="618.28" width="186.86" height="175.14"/><polygon class="cls-2" points="497.6 793.42 509.64 793.1 684.46 618.28 671.6 618.42 497.6 793.42"/><rect class="cls-1" x="643.08" y="608.15" width="186.86" height="175.14"/><polygon class="cls-2" points="643.09 783.29 655.13 782.97 829.95 608.15 817.09 608.29 643.09 783.29"/><rect class="cls-1" x="801.48" y="595.58" width="186.86" height="175.14"/><polygon class="cls-2" points="801.48 770.72 813.53 770.4 988.35 595.58 975.48 595.72 801.48 770.72"/><rect class="cls-1" x="932.39" y="602.18" width="186.86" height="175.14"/><polygon class="cls-2" points="932.39 777.32 944.43 777 1119.25 602.18 1106.39 602.32 932.39 777.32"/><rect class="cls-1" x="950.51" y="428.16" width="186.86" height="175.14"/><polygon class="cls-2" points="950.51 603.3 962.55 602.98 1137.37 428.16 1124.51 428.3 950.51 603.3"/><rect class="cls-1" x="832.33" y="506.08" width="186.86" height="175.14"/><polygon class="cls-2" points="832.33 681.22 844.38 680.9 1019.2 506.08 1006.33 506.22 832.33 681.22"/><rect class="cls-1" x="651.3" y="501.45" width="186.86" height="175.14"/><polygon class="cls-2" points="651.3 676.58 663.35 676.26 838.16 501.45 825.3 501.58 651.3 676.58"/><rect class="cls-1" x="468" y="403.5" width="186.86" height="175.14"/><polygon class="cls-2" points="468 578.63 480.05 578.31 654.86 403.5 642 403.63 468 578.63"/></g><g id="Rat-background"><rect class="cls-1" x="124.51" y="418.01" width="186.86" height="175.14"/><polygon class="cls-2" points="124.51 593.14 136.56 592.82 311.38 418.01 298.51 418.14 124.51 593.14"/><rect class="cls-1" x="67.88" y="584.73" width="186.86" height="175.14"/><polygon class="cls-2" points="67.88 759.86 79.93 759.54 254.75 584.73 241.88 584.86 67.88 759.86"/><rect class="cls-1" x="135.74" y="520.13" width="186.86" height="175.14"/><polygon class="cls-2" points="135.74 695.27 147.79 694.95 322.61 520.13 309.74 520.27 135.74 695.27"/><rect class="cls-1" x="290.59" y="590.58" width="186.86" height="175.14"/><polygon class="cls-2" points="290.59 765.72 302.63 765.4 477.45 590.58 464.59 590.72 290.59 765.72"/><rect class="cls-1" x="418.21" y="567.65" width="186.86" height="175.14"/><polygon class="cls-2" points="418.2 742.79 430.25 742.47 605.07 567.65 592.21 567.79 418.2 742.79"/><rect class="cls-1" x="455.24" y="440.51" width="186.86" height="175.14"/><polygon class="cls-2" points="455.24 615.65 467.28 615.33 642.1 440.51 629.24 440.65 455.24 615.65"/><rect class="cls-1" x="348.4" y="479.31" width="186.86" height="175.14"/><polygon class="cls-2" points="348.39 654.45 360.44 654.13 535.26 479.31 522.39 479.45 348.39 654.45"/><rect class="cls-1" x="182.49" y="403.17" width="186.86" height="175.14"/><polygon class="cls-2" points="182.49 578.3 194.53 577.98 369.35 403.17 356.49 403.3 182.49 578.3"/><rect class="cls-1" x="20" y="423.5" width="186.86" height="175.14"/><polygon class="cls-2" points="20 598.64 32.05 598.32 206.86 423.5 194 423.64 20 598.64"/></g></g><g id="Sub_1_copy_3" data-name="Sub 1 copy 3"><g id="Red-part-3" data-name="Red-part"><rect class="cls-1" x="445.81" y="1016.19" width="186.86" height="175.14"/><polygon class="cls-3" points="445.81 1191.32 457.86 1191 632.67 1016.19 619.81 1016.32 445.81 1191.32"/><rect class="cls-1" x="455.81" y="849.43" width="186.86" height="175.14"/><polygon class="cls-3" points="455.81 1024.57 467.86 1024.24 642.68 849.43 629.81 849.57 455.81 1024.57"/><rect class="cls-1" x="423.01" y="683.23" width="186.86" height="175.14"/><polygon class="cls-3" points="423.01 858.37 435.06 858.05 609.87 683.23 597.01 683.37 423.01 858.37"/><rect class="cls-1" x="483.95" y="521.51" width="186.86" height="175.14"/><polygon class="cls-3" points="483.94 696.65 495.99 696.33 670.81 521.51 657.95 521.65 483.94 696.65"/><rect class="cls-1" x="420.93" y="365.27" width="186.86" height="175.14"/><polygon class="cls-3" points="420.93 540.4 432.98 540.08 607.79 365.27 594.93 365.4 420.93 540.4"/><rect class="cls-1" x="419.04" y="181.23" width="186.86" height="175.14"/><polygon class="cls-3" points="419.04 356.37 431.09 356.05 605.9 181.23 593.04 181.37 419.04 356.37"/><rect class="cls-1" x="452.43" width="186.86" height="175.14"/><polygon class="cls-3" points="452.43 175.14 464.47 174.82 639.29 0 626.43 0.14 452.43 175.14"/></g><g id="White-part-3" data-name="White-part"><rect class="cls-1" x="515.63" y="36.83" width="186.86" height="175.14"/><polygon class="cls-3" points="515.63 211.97 527.68 211.65 702.5 36.83 689.63 36.97 515.63 211.97"/><rect class="cls-1" x="575.4" y="202.64" width="186.86" height="175.14"/><polygon class="cls-3" points="575.4 377.77 587.44 377.45 762.26 202.64 749.4 202.77 575.4 377.77"/><rect class="cls-1" x="570.13" y="363.43" width="186.86" height="175.14"/><polygon class="cls-3" points="570.13 538.57 582.17 538.25 756.99 363.43 744.13 363.57 570.13 538.57"/><rect class="cls-1" x="547.83" y="517.91" width="186.86" height="175.14"/><polygon class="cls-3" points="547.83 693.04 559.87 692.72 734.69 517.91 721.83 518.04 547.83 693.04"/><rect class="cls-1" x="595.45" y="690.16" width="186.86" height="175.14"/><polygon class="cls-3" points="595.45 865.3 607.5 864.98 782.31 690.16 769.45 690.3 595.45 865.3"/><rect class="cls-1" x="491.63" y="868.06" width="186.86" height="175.14"/><polygon class="cls-3" points="491.63 1043.2 503.67 1042.88 678.49 868.06 665.63 868.2 491.63 1043.2"/><rect class="cls-1" x="501.71" y="1024" width="186.86" height="175.14"/><polygon class="cls-3" points="501.71 1199.14 513.76 1198.82 688.57 1024 675.71 1024.14 501.71 1199.14"/></g><g id="Red-part-4" data-name="Red-part"><rect class="cls-1" x="399.98" y="995.67" width="186.86" height="175.14"/><polygon class="cls-3" points="399.98 1170.8 412.02 1170.48 586.84 995.67 573.98 995.8 399.98 1170.8"/><rect class="cls-1" x="423.41" y="812.02" width="186.86" height="175.14"/><polygon class="cls-3" points="423.41 987.15 435.45 986.83 610.27 812.02 597.41 812.15 423.41 987.15"/><rect class="cls-1" x="433.69" y="649.38" width="186.86" height="175.14"/><polygon class="cls-3" points="433.69 824.51 445.74 824.19 620.55 649.38 607.69 649.51 433.69 824.51"/><rect class="cls-1" x="394.42" y="494.98" width="186.86" height="175.14"/><polygon class="cls-3" points="394.42 670.12 406.46 669.79 581.28 494.98 568.42 495.12 394.42 670.12"/><rect class="cls-1" x="414.71" y="311.24" width="186.86" height="175.14"/><polygon class="cls-3" points="414.71 486.38 426.76 486.06 601.58 311.24 588.72 311.38 414.71 486.38"/><rect class="cls-1" x="366.55" y="155.64" width="186.86" height="175.14"/><polygon class="cls-3" points="366.55 330.77 378.6 330.45 553.41 155.64 540.55 155.78 366.55 330.77"/><rect class="cls-1" x="403.68" width="186.86" height="175.14"/><polygon class="cls-3" points="403.68 175.14 415.73 174.82 590.54 0 577.68 0.14 403.68 175.14"/></g><g id="White-part-4" data-name="White-part"><rect class="cls-1" x="516.34" y="173.67" width="186.86" height="175.14"/><polygon class="cls-3" points="516.35 348.81 528.39 348.49 703.21 173.67 690.35 173.81 516.35 348.81"/><rect class="cls-1" x="599.12" y="351.02" width="186.86" height="175.14"/><polygon class="cls-3" points="599.12 526.16 611.16 525.84 785.98 351.02 773.12 351.16 599.12 526.16"/><rect class="cls-1" x="488.06" y="515.7" width="186.86" height="175.14"/><polygon class="cls-3" points="488.06 690.84 500.11 690.52 674.92 515.7 662.06 515.84 488.06 690.84"/><rect class="cls-1" x="593.55" y="699.54" width="186.86" height="175.14"/><polygon class="cls-3" points="593.55 874.68 605.6 874.36 780.41 699.54 767.55 699.68 593.55 874.68"/><rect class="cls-1" x="510.78" y="868.8" width="186.86" height="175.14"/><polygon class="cls-3" points="510.78 1043.94 522.82 1043.62 697.64 868.8 684.78 868.94 510.78 1043.94"/><rect class="cls-1" x="505.62" y="1024" width="186.86" height="175.14"/><polygon class="cls-3" points="505.62 1199.14 517.67 1198.82 692.48 1024 679.62 1024.14 505.62 1199.14"/></g><g id="Skin-background-2" data-name="Skin-background"><rect class="cls-1" x="528.2" y="462.57" width="186.86" height="175.14"/><polygon class="cls-3" points="528.2 637.71 540.24 637.39 715.06 462.57 702.2 462.71 528.2 637.71"/><rect class="cls-1" x="504.37" y="573.64" width="186.86" height="175.14"/><polygon class="cls-3" points="504.37 748.78 516.41 748.46 691.23 573.64 678.37 573.78 504.37 748.78"/><rect class="cls-1" x="658.61" y="507.93" width="186.86" height="175.14"/><polygon class="cls-3" points="658.61 683.07 670.66 682.75 845.48 507.93 832.61 508.07 658.61 683.07"/><rect class="cls-1" x="825.64" y="523.76" width="186.86" height="175.14"/><polygon class="cls-3" points="825.64 698.9 837.68 698.58 1012.5 523.76 999.64 523.9 825.64 698.9"/><rect class="cls-1" x="918.25" y="596.79" width="186.86" height="175.14"/><polygon class="cls-3" points="918.25 771.93 930.29 771.61 1105.11 596.79 1092.25 596.93 918.25 771.93"/><rect class="cls-1" x="864.53" y="426.56" width="186.86" height="175.14"/><polygon class="cls-3" points="864.53 601.7 876.58 601.38 1051.39 426.56 1038.53 426.7 864.53 601.7"/><rect class="cls-1" x="833.15" y="512.1" width="186.86" height="175.14"/><polygon class="cls-3" points="833.15 687.24 845.19 686.92 1020.01 512.1 1007.15 512.24 833.15 687.24"/><rect class="cls-1" x="653.26" y="417.86" width="186.86" height="175.14"/><polygon class="cls-3" points="653.26 593 665.31 592.68 840.13 417.87 827.26 418 653.26 593"/><rect class="cls-1" x="488" y="437.01" width="186.86" height="175.14"/><polygon class="cls-3" points="488 612.15 500.05 611.83 674.86 437.01 662 437.15 488 612.15"/></g><g id="Rat-background-2" data-name="Rat-background"><rect class="cls-1" x="76.68" y="414.24" width="186.86" height="175.14"/><polygon class="cls-3" points="76.68 589.38 88.73 589.06 263.55 414.24 250.68 414.38 76.68 589.38"/><rect class="cls-1" x="144.5" y="585.28" width="186.86" height="175.14"/><polygon class="cls-3" points="144.5 760.41 156.55 760.09 331.36 585.28 318.5 585.41 144.5 760.41"/><rect class="cls-1" x="165.42" y="595.75" width="186.86" height="175.14"/><polygon class="cls-3" points="165.42 770.89 177.47 770.57 352.28 595.75 339.42 595.89 165.42 770.89"/><rect class="cls-1" x="332.51" y="603.19" width="186.86" height="175.14"/><polygon class="cls-3" points="332.51 778.33 344.55 778.01 519.37 603.19 506.51 603.33 332.51 778.33"/><rect class="cls-1" x="411.43" y="614.44" width="186.86" height="175.14"/><polygon class="cls-3" points="411.43 789.58 423.48 789.26 598.3 614.44 585.43 614.58 411.43 789.58"/><rect class="cls-1" x="485.4" y="458.79" width="186.86" height="175.14"/><polygon class="cls-3" points="485.4 633.93 497.44 633.61 672.26 458.79 659.4 458.93 485.4 633.93"/><rect class="cls-1" x="375.27" y="477.19" width="186.86" height="175.14"/><polygon class="cls-3" points="375.27 652.32 387.31 652 562.13 477.19 549.27 477.32 375.27 652.32"/><rect class="cls-1" x="219.24" y="476" width="186.86" height="175.14"/><polygon class="cls-3" points="219.24 651.14 231.29 650.82 406.1 476 393.24 476.14 219.24 651.14"/><rect class="cls-1" x="40" y="502.4" width="186.86" height="175.14"/><polygon class="cls-3" points="40 677.54 52.05 677.22 226.86 502.4 214 502.54 40 677.54"/></g></g><g id="Sub_3_copy_2" data-name="Sub 3 copy 2"><g id="Skin-background-3" data-name="Skin-background"><rect class="cls-1" x="468.1" y="438.77" width="186.86" height="175.14"/><polygon class="cls-4" points="468.1 613.91 480.15 613.59 654.97 438.77 642.1 438.91 468.1 613.91"/><rect class="cls-1" x="522.4" y="622.53" width="186.86" height="175.14"/><polygon class="cls-4" points="522.4 797.67 534.45 797.35 709.26 622.53 696.4 622.67 522.4 797.67"/><rect class="cls-1" x="629.57" y="566.02" width="186.86" height="175.14"/><polygon class="cls-4" points="629.57 741.16 641.61 740.84 816.43 566.02 803.57 566.16 629.57 741.16"/><rect class="cls-1" x="792.62" y="611.01" width="186.86" height="175.14"/><polygon class="cls-4" points="792.62 786.14 804.67 785.82 979.49 611.01 966.62 611.14 792.62 786.14"/><rect class="cls-1" x="942.73" y="590.71" width="186.86" height="175.14"/><polygon class="cls-4" points="942.73 765.85 954.78 765.53 1129.6 590.71 1116.73 590.85 942.73 765.85"/><rect class="cls-1" x="830.21" y="426.49" width="186.86" height="175.14"/><polygon class="cls-4" points="830.21 601.63 842.26 601.31 1017.08 426.49 1004.21 426.63 830.21 601.63"/><rect class="cls-1" x="813.3" y="513.35" width="186.86" height="175.14"/><polygon class="cls-4" points="813.3 688.49 825.34 688.16 1000.16 513.35 987.3 513.49 813.3 688.49"/><rect class="cls-1" x="628.88" y="424.42" width="186.86" height="175.14"/><polygon class="cls-4" points="628.88 599.56 640.92 599.24 815.74 424.42 802.88 424.56 628.88 599.56"/><rect class="cls-1" x="448" y="421.93" width="186.86" height="175.14"/><polygon class="cls-4" points="448 597.07 460.05 596.75 634.86 421.93 622 422.07 448 597.07"/></g><g id="Rat-background-3" data-name="Rat-background"><rect class="cls-1" x="43.47" y="538.25" width="186.86" height="175.14"/><polygon class="cls-4" points="43.47 713.39 55.52 713.07 230.33 538.25 217.47 538.39 43.47 713.39"/><rect class="cls-1" x="84.11" y="524.22" width="186.86" height="175.14"/><polygon class="cls-4" points="84.11 699.36 96.15 699.04 270.97 524.22 258.11 524.36 84.11 699.36"/><rect class="cls-1" x="262.69" y="534.57" width="186.86" height="175.14"/><polygon class="cls-4" points="262.69 709.71 274.74 709.39 449.56 534.57 436.69 534.71 262.69 709.71"/><rect class="cls-1" x="443.32" y="534.2" width="186.86" height="175.14"/><polygon class="cls-4" points="443.32 709.34 455.37 709.02 630.18 534.2 617.32 534.34 443.32 709.34"/><rect class="cls-1" x="410.43" y="444.84" width="186.86" height="175.14"/><polygon class="cls-4" points="410.43 619.98 422.47 619.66 597.29 444.84 584.43 444.98 410.43 619.98"/><rect class="cls-1" x="334.11" y="473.94" width="186.86" height="175.14"/><polygon class="cls-4" points="334.11 649.08 346.15 648.76 520.97 473.94 508.11 474.08 334.11 649.08"/><rect class="cls-1" x="174.4" y="495.74" width="186.86" height="175.14"/><polygon class="cls-4" points="174.4 670.88 186.44 670.56 361.26 495.74 348.39 495.88 174.4 670.88"/><rect class="cls-1" y="495.48" width="186.86" height="175.14"/><polygon class="cls-4" points="0 670.62 12.04 670.3 186.86 495.49 174 495.62 0 670.62"/></g></g></g></g></svg>