<svg xmlns="http://www.w3.org/2000/svg" viewBox="0 0 1145.53 501.98"><defs><style>.cls-1{fill:none;}.cls-2{fill:#dfdfdf;}.cls-2,.cls-3{fill-rule:evenodd;}.cls-3{fill:#e1605f;}</style></defs><title>Asset 9</title><g id="Layer_2" data-name="Layer 2"><g id="Lines_6" data-name="Lines 6"><g id="Rat-background"><rect class="cls-1" x="190.45" y="115.71" width="221.87" height="184.25"/><polygon class="cls-2" points="190.45 299.95 228.4 299.64 412.33 115.71 373.67 115.86 190.45 299.95"/><rect class="cls-1" x="133.01" y="199.43" width="200" height="166.08"/><polygon class="cls-2" points="133.01 365.51 167.21 365.22 333.01 199.43 298.16 199.57 133.01 365.51"/><rect class="cls-1" x="221.93" y="262.98" width="230.47" height="191.38"/><polygon class="cls-2" points="221.93 454.36 261.35 454.03 452.4 262.98 412.24 263.14 221.93 454.36"/><rect class="cls-1" x="84.03" y="17.7" width="211.64" height="175.75"/><polygon class="cls-2" points="84.03 193.45 120.22 193.15 295.66 17.7 258.79 17.85 84.03 193.45"/><rect class="cls-1" x="173.78" y="27.03" width="213.36" height="177.18"/><polygon class="cls-2" points="173.78 204.21 210.27 203.9 387.14 27.03 349.96 27.18 173.78 204.21"/><rect class="cls-1" x="245.15" y="127.56" width="210.83" height="175.08"/><polygon class="cls-2" points="245.15 302.64 281.21 302.34 455.99 127.56 419.25 127.71 245.15 302.64"/><rect class="cls-1" x="305.67" y="83.76" width="241.79" height="200.78"/><polygon class="cls-2" points="305.67 284.54 347.02 284.2 547.46 83.76 505.33 83.93 305.67 284.54"/><rect class="cls-1" x="384.29" y="165.43" width="237.1" height="196.89"/><polygon class="cls-2" points="384.29 362.32 424.84 361.98 621.39 165.43 580.08 165.59 384.29 362.32"/><rect class="cls-1" x="325.65" y="271.38" width="212.8" height="176.71"/><polygon class="cls-2" points="325.65 448.09 362.04 447.79 538.45 271.38 501.37 271.53 325.65 448.09"/><rect class="cls-1" x="359.14" y="200.92" width="211.41" height="175.56"/><polygon class="cls-2" points="359.14 376.48 395.29 376.18 570.55 200.93 533.72 201.07 359.14 376.48"/><rect class="cls-1" x="307.18" y="112.63" width="212.13" height="176.16"/><polygon class="cls-2" points="307.18 288.78 343.46 288.48 519.32 112.63 482.36 112.77 307.18 288.78"/><rect class="cls-1" x="420.49" y="306.95" width="234.85" height="195.02"/><polygon class="cls-2" points="420.49 501.98 460.66 501.64 655.35 306.95 614.43 307.11 420.49 501.98"/><rect class="cls-1" x="352.6" y="193.63" width="215.04" height="178.57"/><polygon class="cls-2" points="352.6 372.2 389.38 371.89 567.64 193.63 530.18 193.78 352.6 372.2"/><rect class="cls-1" x="292.63" y="312.43" width="201.93" height="167.69"/><polygon class="cls-2" points="292.63 480.12 327.16 479.83 494.56 312.43 459.37 312.57 292.63 480.12"/><rect class="cls-1" x="210.99" y="223.36" width="242.31" height="201.21"/><polygon class="cls-2" points="210.99 424.57 252.43 424.23 453.3 223.36 411.08 223.53 210.99 424.57"/><rect class="cls-1" x="144.53" y="210.96" width="200.83" height="166.77"/><polygon class="cls-2" points="144.53 377.73 178.87 377.44 345.36 210.96 310.37 211.1 144.53 377.73"/><rect class="cls-1" x="77.16" y="175.52" width="206.26" height="171.28"/><polygon class="cls-2" points="77.16 346.8 112.44 346.5 283.42 175.52 247.48 175.66 77.16 346.8"/><rect class="cls-1" y="300.73" width="236.64" height="196.51"/><polygon class="cls-2" points="0 497.24 40.47 496.9 236.64 300.73 195.41 300.89 0 497.24"/></g><g id="Skin-background"><rect class="cls-1" x="597.79" y="63.3" width="210.56" height="174.85"/><polygon class="cls-3" points="597.79 238.15 633.8 237.85 808.35 63.3 771.66 63.45 597.79 238.15"/><rect class="cls-1" x="554.15" y="151.58" width="203.06" height="168.62"/><polygon class="cls-3" points="554.15 320.2 588.88 319.91 757.21 151.58 721.83 151.72 554.15 320.2"/><rect class="cls-1" x="721.1" y="216.54" width="209.4" height="173.89"/><polygon class="cls-3" points="721.1 390.43 756.91 390.13 930.51 216.54 894.02 216.68 721.1 390.43"/><rect class="cls-1" x="709.06" y="271.6" width="226.37" height="187.98"/><polygon class="cls-3" points="709.06 459.58 747.78 459.26 935.44 271.6 895.99 271.75 709.06 459.58"/><rect class="cls-1" x="526.44" y="61.45" width="201.94" height="167.69"/><polygon class="cls-3" points="526.44 229.14 560.97 228.85 728.37 61.45 693.19 61.59 526.44 229.14"/><rect class="cls-1" x="591.47" y="114.27" width="216.99" height="180.19"/><polygon class="cls-3" points="591.47 294.46 628.58 294.15 808.47 114.27 770.66 114.42 591.47 294.46"/><rect class="cls-1" x="657.85" width="231.39" height="192.15"/><polygon class="cls-3" points="657.85 192.15 697.42 191.82 889.25 0 848.93 0.16 657.85 192.15"/><rect class="cls-1" x="734.76" y="171.46" width="237.87" height="197.53"/><polygon class="cls-3" points="734.76 368.99 775.44 368.65 972.63 171.46 931.18 171.62 734.76 368.99"/><rect class="cls-1" x="838.93" y="166.59" width="205.77" height="170.87"/><polygon class="cls-3" points="838.93 337.46 874.12 337.17 1044.7 166.59 1008.85 166.73 838.93 337.46"/><rect class="cls-1" x="906.45" y="17.1" width="239.08" height="198.54"/><polygon class="cls-3" points="906.45 215.63 947.34 215.29 1145.53 17.1 1103.88 17.26 906.45 215.63"/><rect class="cls-1" x="742.63" y="224.78" width="207.28" height="172.13"/><polygon class="cls-3" points="742.63 396.91 778.08 396.61 949.91 224.78 913.79 224.92 742.63 396.91"/><rect class="cls-1" x="704.48" y="136.32" width="233.87" height="194.21"/><polygon class="cls-3" points="704.48 330.53 744.48 330.19 938.35 136.32 897.6 136.48 704.48 330.53"/><rect class="cls-1" x="682.99" y="62.63" width="218.03" height="181.05"/><polygon class="cls-3" points="682.99 243.69 720.28 243.38 901.02 62.63 863.03 62.78 682.99 243.69"/><rect class="cls-1" x="840.77" y="264.65" width="230.37" height="191.3"/><polygon class="cls-3" points="840.77 455.94 880.16 455.62 1071.14 264.65 1031 264.81 840.77 455.94"/><rect class="cls-1" x="764.25" y="255.44" width="218.35" height="181.32"/><polygon class="cls-3" points="764.25 436.76 801.59 436.45 982.61 255.44 944.56 255.59 764.25 436.76"/><rect class="cls-1" x="681.62" y="207.62" width="205.16" height="170.37"/><polygon class="cls-3" points="681.62 377.98 716.7 377.69 886.77 207.62 851.03 207.76 681.62 377.98"/><rect class="cls-1" x="577.93" y="247.1" width="235.94" height="195.93"/><polygon class="cls-3" points="577.92 443.02 618.27 442.69 813.86 247.1 772.75 247.26 577.92 443.02"/><rect class="cls-1" x="520.76" y="238.05" width="219.61" height="182.37"/><polygon class="cls-3" points="520.76 420.42 558.32 420.11 740.38 238.05 702.11 238.21 520.76 420.42"/><rect class="cls-1" x="425.81" y="297.73" width="241.03" height="200.15"/><polygon class="cls-3" points="425.81 497.88 467.03 497.54 666.84 297.73 624.84 297.89 425.81 497.88"/></g></g></g></svg>