<svg xmlns="http://www.w3.org/2000/svg" viewBox="0 0 998.36 311.11"><defs><style>.cls-1{fill:none;}.cls-2{fill:#020b3c;}.cls-2,.cls-3,.cls-4{fill-rule:evenodd;}.cls-3{fill:#e1605f;}.cls-4{fill:#dfdfdf;}</style></defs><title>Asset 11</title><g id="Layer_2" data-name="Layer 2"><g id="Lines_1" data-name="Lines 1"><g id="Sub_3" data-name="Sub 3"><g id="Skin-background"><rect class="cls-1" x="747.51" y="41.56" width="208.68" height="173.29"/><polygon class="cls-2" points="747.51 214.85 783.2 214.55 956.19 41.56 919.83 41.7 747.51 214.85"/><rect class="cls-1" x="445.37" y="18.58" width="216.38" height="179.68"/><polygon class="cls-2" points="445.37 198.26 482.37 197.95 661.75 18.58 624.04 18.73 445.37 198.26"/></g><g id="Rat-background"><rect class="cls-1" x="302.58" y="142.92" width="202.55" height="168.2"/><polygon class="cls-2" points="302.58 311.12 337.22 310.82 505.13 142.92 469.83 143.06 302.58 311.12"/><rect class="cls-1" y="129.53" width="211.12" height="175.31"/><polygon class="cls-2" points="0 304.84 36.1 304.54 211.12 129.53 174.33 129.68 0 304.84"/></g></g><g id="Sub_2" data-name="Sub 2"><g id="Skin-background-2" data-name="Skin-background"><rect class="cls-1" x="763.42" y="60.22" width="216.86" height="180.08"/><polygon class="cls-3" points="763.42 240.31 800.51 240 980.28 60.22 942.5 60.37 763.42 240.31"/><rect class="cls-1" x="471.12" y="0.68" width="204.87" height="170.12"/><polygon class="cls-3" points="471.12 170.81 506.16 170.52 675.99 0.68 640.3 0.83 471.12 170.81"/></g><g id="Rat-background-2" data-name="Rat-background"><rect class="cls-1" x="317.64" width="212.42" height="176.4"/><polygon class="cls-3" points="317.64 176.4 353.97 176.09 530.06 0 493.05 0.15 317.64 176.4"/><rect class="cls-1" x="21.62" y="118.85" width="207.87" height="172.61"/><polygon class="cls-3" points="21.62 291.47 57.17 291.17 229.49 118.85 193.27 119 21.62 291.47"/></g></g><g id="Sub_1" data-name="Sub 1"><g id="Skin-background-3" data-name="Skin-background"><rect class="cls-1" x="786.29" y="128.81" width="211.13" height="175.33"/><polygon class="cls-4" points="786.29 304.14 822.39 303.83 997.42 128.81 960.63 128.96 786.29 304.14"/><rect class="cls-1" x="492.71" y="107.08" width="201.69" height="167.49"/><polygon class="cls-4" points="492.71 274.57 527.2 274.28 694.4 107.08 659.26 107.22 492.71 274.57"/></g><g id="Rat-background-3" data-name="Rat-background"><rect class="cls-1" x="337.69" y="120.84" width="212.32" height="176.31"/><polygon class="cls-4" points="337.69 297.15 374 296.84 550.01 120.84 513.02 120.98 337.69 297.15"/><rect class="cls-1" x="42.36" y="116.85" width="206.4" height="171.4"/><polygon class="cls-4" points="42.36 288.25 77.66 287.96 248.76 116.85 212.8 117 42.36 288.25"/></g></g><g id="Sub_4" data-name="Sub 4"><g id="Skin-background-4" data-name="Skin-background"><rect class="cls-1" x="785.35" y="20.62" width="213.01" height="176.88"/><polygon class="cls-4" points="785.35 197.51 821.78 197.2 998.36 20.63 961.24 20.77 785.35 197.51"/><rect class="cls-1" x="492.22" y="71.21" width="202.67" height="168.3"/><polygon class="cls-4" points="492.22 239.51 526.88 239.22 694.89 71.21 659.58 71.35 492.22 239.51"/></g><g id="Rat-background-4" data-name="Rat-background"><rect class="cls-1" x="343.06" y="61.99" width="201.59" height="167.4"/><polygon class="cls-4" points="343.06 229.39 377.53 229.1 544.64 61.99 509.52 62.13 343.06 229.39"/><rect class="cls-1" x="38.66" y="64.28" width="213.79" height="177.54"/><polygon class="cls-4" points="38.66 241.82 75.22 241.51 252.45 64.28 215.2 64.43 38.66 241.82"/></g></g></g></g></svg>