<svg xmlns="http://www.w3.org/2000/svg" viewBox="0 0 1010.74 1053.67"><defs><style>.cls-1{fill:none;}.cls-10,.cls-11,.cls-12,.cls-13,.cls-14,.cls-15,.cls-16,.cls-17,.cls-18,.cls-19,.cls-2,.cls-20,.cls-21,.cls-22,.cls-23,.cls-24,.cls-25,.cls-26,.cls-27,.cls-28,.cls-29,.cls-3,.cls-30,.cls-31,.cls-32,.cls-33,.cls-34,.cls-35,.cls-36,.cls-37,.cls-38,.cls-39,.cls-4,.cls-40,.cls-41,.cls-42,.cls-43,.cls-44,.cls-45,.cls-46,.cls-47,.cls-48,.cls-49,.cls-5,.cls-50,.cls-51,.cls-52,.cls-53,.cls-54,.cls-55,.cls-56,.cls-57,.cls-58,.cls-59,.cls-6,.cls-60,.cls-61,.cls-62,.cls-63,.cls-64,.cls-65,.cls-66,.cls-67,.cls-68,.cls-69,.cls-7,.cls-70,.cls-71,.cls-72,.cls-73,.cls-74,.cls-8,.cls-9{fill:#dfdfdf;stroke:#fbfbfb;}.cls-10,.cls-100,.cls-101,.cls-102,.cls-103,.cls-104,.cls-105,.cls-106,.cls-107,.cls-108,.cls-109,.cls-11,.cls-110,.cls-111,.cls-112,.cls-113,.cls-114,.cls-115,.cls-116,.cls-117,.cls-118,.cls-119,.cls-12,.cls-120,.cls-121,.cls-122,.cls-123,.cls-124,.cls-125,.cls-126,.cls-127,.cls-128,.cls-129,.cls-13,.cls-130,.cls-131,.cls-132,.cls-133,.cls-134,.cls-135,.cls-136,.cls-137,.cls-138,.cls-139,.cls-14,.cls-140,.cls-141,.cls-142,.cls-143,.cls-144,.cls-145,.cls-146,.cls-147,.cls-148,.cls-15,.cls-16,.cls-17,.cls-18,.cls-19,.cls-2,.cls-20,.cls-21,.cls-22,.cls-23,.cls-24,.cls-25,.cls-26,.cls-27,.cls-28,.cls-29,.cls-3,.cls-30,.cls-31,.cls-32,.cls-33,.cls-34,.cls-35,.cls-36,.cls-37,.cls-38,.cls-39,.cls-4,.cls-40,.cls-41,.cls-42,.cls-43,.cls-44,.cls-45,.cls-46,.cls-47,.cls-48,.cls-49,.cls-5,.cls-50,.cls-51,.cls-52,.cls-53,.cls-54,.cls-55,.cls-56,.cls-57,.cls-58,.cls-59,.cls-6,.cls-60,.cls-61,.cls-62,.cls-63,.cls-64,.cls-65,.cls-66,.cls-67,.cls-68,.cls-69,.cls-7,.cls-70,.cls-71,.cls-72,.cls-73,.cls-74,.cls-75,.cls-76,.cls-77,.cls-78,.cls-79,.cls-8,.cls-80,.cls-81,.cls-82,.cls-83,.cls-84,.cls-85,.cls-86,.cls-87,.cls-88,.cls-89,.cls-9,.cls-90,.cls-91,.cls-92,.cls-93,.cls-94,.cls-95,.cls-96,.cls-97,.cls-98,.cls-99{stroke-miterlimit:10;fill-rule:evenodd;}.cls-2{stroke-width:0.3px;}.cls-3{stroke-width:0.63px;}.cls-4{stroke-width:0.3px;}.cls-5{stroke-width:0.53px;}.cls-6{stroke-width:0.14px;}.cls-7{stroke-width:0.52px;}.cls-8{stroke-width:0.26px;}.cls-9{stroke-width:0.24px;}.cls-10{stroke-width:0.38px;}.cls-11{stroke-width:0.37px;}.cls-12{stroke-width:0.47px;}.cls-13{stroke-width:0.14px;}.cls-14{stroke-width:0.19px;}.cls-15{stroke-width:0.48px;}.cls-16{stroke-width:0.15px;}.cls-17{stroke-width:0.61px;}.cls-18{stroke-width:0.36px;}.cls-19{stroke-width:0.11px;}.cls-20{stroke-width:0.54px;}.cls-21{stroke-width:0.38px;}.cls-22{stroke-width:0.5px;}.cls-23{stroke-width:0.32px;}.cls-24{stroke-width:0.14px;}.cls-25{stroke-width:0.24px;}.cls-26{stroke-width:0.37px;}.cls-27{stroke-width:0.38px;}.cls-28{stroke-width:0.43px;}.cls-29{stroke-width:0.22px;}.cls-30{stroke-width:0.34px;}.cls-31{stroke-width:0.34px;}.cls-32{stroke-width:0.24px;}.cls-33{stroke-width:0.11px;}.cls-34{stroke-width:0.48px;}.cls-35{stroke-width:0.17px;}.cls-36{stroke-width:0.3px;}.cls-37{stroke-width:0.63px;}.cls-38{stroke-width:0.46px;}.cls-39{stroke-width:0.67px;}.cls-40{stroke-width:0.56px;}.cls-41{stroke-width:0.15px;}.cls-42{stroke-width:0.58px;}.cls-43{stroke-width:0.21px;}.cls-44{stroke-width:0.44px;}.cls-45{stroke-width:0.27px;}.cls-46{stroke-width:0.62px;}.cls-47{stroke-width:0.6px;}.cls-48{stroke-width:0.56px;}.cls-49{stroke-width:0.37px;}.cls-50{stroke-width:0.24px;}.cls-51{stroke-width:0.46px;}.cls-52{stroke-width:0.65px;}.cls-53{stroke-width:0.47px;}.cls-54{stroke-width:0.39px;}.cls-55{stroke-width:0.3px;}.cls-56{stroke-width:0.24px;}.cls-57{stroke-width:0.56px;}.cls-58{stroke-width:0.33px;}.cls-59{stroke-width:0.49px;}.cls-60{stroke-width:0.33px;}.cls-61{stroke-width:0.52px;}.cls-62{stroke-width:0.16px;}.cls-63{stroke-width:0.61px;}.cls-64{stroke-width:0.42px;}.cls-65{stroke-width:0.67px;}.cls-66{stroke-width:0.26px;}.cls-67{stroke-width:0.27px;}.cls-68{stroke-width:0.18px;}.cls-69{stroke-width:0.39px;}.cls-70{stroke-width:0.43px;}.cls-71{stroke-width:0.36px;}.cls-72{stroke-width:0.43px;}.cls-73{stroke-width:0.27px;}.cls-74{stroke-width:0.19px;}.cls-100,.cls-101,.cls-102,.cls-103,.cls-104,.cls-105,.cls-106,.cls-107,.cls-108,.cls-109,.cls-110,.cls-111,.cls-112,.cls-113,.cls-114,.cls-115,.cls-116,.cls-117,.cls-118,.cls-119,.cls-120,.cls-121,.cls-122,.cls-123,.cls-124,.cls-125,.cls-126,.cls-127,.cls-128,.cls-129,.cls-130,.cls-131,.cls-132,.cls-133,.cls-134,.cls-135,.cls-136,.cls-137,.cls-138,.cls-139,.cls-140,.cls-141,.cls-142,.cls-143,.cls-144,.cls-145,.cls-146,.cls-147,.cls-148,.cls-75,.cls-76,.cls-77,.cls-78,.cls-79,.cls-80,.cls-81,.cls-82,.cls-83,.cls-84,.cls-85,.cls-86,.cls-87,.cls-88,.cls-89,.cls-90,.cls-91,.cls-92,.cls-93,.cls-94,.cls-95,.cls-96,.cls-97,.cls-98,.cls-99{fill:#e1605f;stroke:#fbebeb;}.cls-75{stroke-width:0.56px;}.cls-76{stroke-width:0.54px;}.cls-77{stroke-width:0.26px;}.cls-78{stroke-width:0.43px;}.cls-79{stroke-width:0.12px;}.cls-80{stroke-width:0.2px;}.cls-81{stroke-width:0.28px;}.cls-82{stroke-width:0.23px;}.cls-83{stroke-width:0.29px;}.cls-84{stroke-width:0.22px;}.cls-85{stroke-width:0.44px;}.cls-86{stroke-width:0.5px;}.cls-87{stroke-width:0.38px;}.cls-88{stroke-width:0.37px;}.cls-89{stroke-width:0.25px;}.cls-90{stroke-width:0.21px;}.cls-91{stroke-width:0.18px;}.cls-92{stroke-width:0.42px;}.cls-93{stroke-width:0.36px;}.cls-94{stroke-width:0.16px;}.cls-95{stroke-width:0.47px;}.cls-96{stroke-width:0.28px;}.cls-97{stroke-width:0.31px;}.cls-98{stroke-width:0.37px;}.cls-99{stroke-width:0.37px;}.cls-100{stroke-width:0.58px;}.cls-101{stroke-width:0.19px;}.cls-102{stroke-width:0.56px;}.cls-103{stroke-width:0.28px;}.cls-104{stroke-width:0.61px;}.cls-105{stroke-width:0.1px;}.cls-106{stroke-width:0.11px;}.cls-107{stroke-width:0.29px;}.cls-108{stroke-width:0.4px;}.cls-109{stroke-width:0.45px;}.cls-110{stroke-width:0.28px;}.cls-111{stroke-width:0.51px;}.cls-112{stroke-width:0.47px;}.cls-113{stroke-width:0.59px;}.cls-114{stroke-width:0.63px;}.cls-115{stroke-width:0.21px;}.cls-116{stroke-width:0.45px;}.cls-117{stroke-width:0.6px;}.cls-118{stroke-width:0.36px;}.cls-119{stroke-width:0.14px;}.cls-120{stroke-width:0.61px;}.cls-121{stroke-width:0.63px;}.cls-122{stroke-width:0.37px;}.cls-123{stroke-width:0.12px;}.cls-124{stroke-width:0.17px;}.cls-125{stroke-width:0.32px;}.cls-126{stroke-width:0.6px;}.cls-127{stroke-width:0.38px;}.cls-128{stroke-width:0.23px;}.cls-129{stroke-width:0.43px;}.cls-130{stroke-width:0.31px;}.cls-131{stroke-width:0.36px;}.cls-132{stroke-width:0.58px;}.cls-133{stroke-width:0.43px;}.cls-134{stroke-width:0.47px;}.cls-135{stroke-width:0.62px;}.cls-136{stroke-width:0.6px;}.cls-137{stroke-width:0.46px;}.cls-138{stroke-width:0.43px;}.cls-139{stroke-width:0.36px;}.cls-140{stroke-width:0.29px;}.cls-141{stroke-width:0.28px;}.cls-142{stroke-width:0.14px;}.cls-143{stroke-width:0.62px;}.cls-144{stroke-width:0.67px;}.cls-145{stroke-width:0.24px;}.cls-146{stroke-width:0.68px;}.cls-147{stroke-width:0.41px;}.cls-148{stroke-width:0.36px;}</style></defs><title>Asset 7</title><g id="Layer_2" data-name="Layer 2"><g id="Lines_2" data-name="Lines 2"><g id="Sub_1" data-name="Sub 1"><g id="Red-part"><rect class="cls-1" x="487.61" y="965.72" width="25.43" height="25.41"/><path class="cls-2" d="M513,965.87h-1.47l-23.64,25,1.48.1"/><rect class="cls-1" x="355.97" y="893.15" width="54.56" height="54.5"/><path class="cls-3" d="M410.53,893.47h-3.17l-50.7,53.65,3.17.22"/><rect class="cls-1" x="378.67" y="834.56" width="26.02" height="26"/><path class="cls-4" d="M404.7,834.71h-1.52L379,860.3l1.51.1"/><rect class="cls-1" x="452.05" y="749.95" width="45.59" height="45.54"/><path class="cls-5" d="M497.64,750.22H495L452.62,795l2.65.19"/><rect class="cls-1" x="407.62" y="702.49" width="11.9" height="11.89"/><path class="cls-6" d="M419.52,702.56h-.69l-11.06,11.71.69,0"/><rect class="cls-1" x="415.52" y="624.99" width="45.01" height="44.96"/><path class="cls-7" d="M460.53,625.25h-2.61L416.09,669.5l2.62.19"/><rect class="cls-1" x="491.29" y="562.16" width="22.17" height="22.14"/><path class="cls-8" d="M513.46,562.29h-1.29l-20.6,21.8,1.29.09"/><rect class="cls-1" x="413.1" y="503.82" width="20.66" height="20.64"/><path class="cls-9" d="M433.76,503.94h-1.2l-19.2,20.31,1.2.09"/><rect class="cls-1" x="440.08" y="426.88" width="32.78" height="32.75"/><path class="cls-10" d="M472.86,427.07H471L440.49,459.3l1.91.13"/><rect class="cls-1" x="467.22" y="361.08" width="31.7" height="31.66"/><path class="cls-11" d="M498.92,361.26h-1.84l-29.46,31.17,1.84.13"/><rect class="cls-1" x="481.79" y="282.49" width="40.84" height="40.8"/><path class="cls-12" d="M522.63,282.72h-2.37l-38,40.16,2.38.17"/><rect class="cls-1" x="402.21" y="222.82" width="12.42" height="12.4"/><path class="cls-13" d="M414.63,222.9h-.72l-11.54,12.2.72.05"/><rect class="cls-1" x="453.49" y="155.42" width="16.26" height="16.25"/><path class="cls-14" d="M469.75,155.52h-.94l-15.12,16,.95.07"/><rect class="cls-1" x="349.25" y="72.59" width="41.72" height="41.68"/><path class="cls-15" d="M391,72.83h-2.42l-38.77,41,2.42.17"/><rect class="cls-1" x="446.16" y="12.24" width="13.25" height="13.23"/><path class="cls-16" d="M459.41,12.32h-.77l-12.31,13,.77.06"/></g><g id="White-part"><rect class="cls-1" x="435.53" width="52.87" height="52.82"/><path class="cls-17" d="M488.4.31h-3.07l-49.13,52,3.07.21"/><rect class="cls-1" x="486.77" y="86.15" width="30.74" height="30.71"/><path class="cls-18" d="M517.51,86.32h-1.79l-28.56,30.23,1.78.12"/><rect class="cls-1" x="523.46" y="159.02" width="9.45" height="9.44"/><path class="cls-19" d="M532.91,159.07h-.54l-8.79,9.3.55,0"/><rect class="cls-1" x="525.12" y="212.79" width="46.43" height="46.38"/><path class="cls-20" d="M571.55,213.06h-2.7l-43.14,45.65,2.7.19"/><rect class="cls-1" x="549.63" y="289.02" width="32.44" height="32.4"/><path class="cls-21" d="M582.07,289.21h-1.88L550,321.1l1.89.13"/><rect class="cls-1" x="514.54" y="347.72" width="43.02" height="42.97"/><path class="cls-22" d="M557.56,348h-2.5l-40,42.3,2.49.17"/><rect class="cls-1" x="504.05" y="432.02" width="27.52" height="27.49"/><path class="cls-23" d="M531.57,432.18H530L504.4,459.24l1.6.11"/><rect class="cls-1" x="536.36" y="506.96" width="11.69" height="11.68"/><path class="cls-24" d="M548.05,507h-.68L536.5,518.52l.68.05"/><rect class="cls-1" x="537.19" y="560.36" width="20.46" height="20.44"/><path class="cls-25" d="M557.66,560.48h-1.19l-19,20.12,1.19.08"/><rect class="cls-1" x="507.83" y="627.24" width="31.98" height="31.95"/><path class="cls-26" d="M539.81,627.42H538l-29.72,31.45,1.86.13"/><rect class="cls-1" x="477.65" y="696.8" width="32.61" height="32.58"/><path class="cls-27" d="M510.26,697h-1.89l-30.31,32.07,1.89.13"/><rect class="cls-1" x="583.6" y="760.54" width="37.2" height="37.16"/><path class="cls-28" d="M620.8,760.76h-2.16l-34.57,36.58,2.16.15"/><rect class="cls-1" x="540.38" y="834.09" width="18.61" height="18.59"/><path class="cls-29" d="M559,834.2h-1.08l-17.3,18.29,1.09.08"/><rect class="cls-1" x="531.53" y="899.51" width="29.67" height="29.64"/><path class="cls-30" d="M561.21,899.69h-1.73l-27.57,29.17,1.72.12"/><rect class="cls-1" x="510.86" y="968.12" width="29.23" height="29.2"/><path class="cls-31" d="M540.1,968.29h-1.7L511.23,997l1.7.12"/><rect class="cls-1" x="587.07" y="1032.42" width="20.9" height="20.88"/><path class="cls-32" d="M608,1032.54h-1.21l-19.42,20.55,1.21.09"/></g><g id="Skin-background"><rect class="cls-1" x="465.93" y="437.77" width="9.53" height="9.52"/><path class="cls-33" d="M475.46,437.83h-.55l-8.86,9.37.55,0"/><rect class="cls-1" x="557.68" y="485.52" width="41.04" height="41"/><path class="cls-34" d="M598.73,485.76h-2.39L558.2,526.11l2.39.17"/><rect class="cls-1" x="539.12" y="571.59" width="14.37" height="14.36"/><path class="cls-35" d="M553.49,571.67h-.83L539.31,585.8l.83.06"/><rect class="cls-1" x="495.67" y="605.87" width="25.94" height="25.91"/><path class="cls-36" d="M521.61,606H520.1L496,631.52l1.51.11"/><rect class="cls-1" x="533.26" y="535.85" width="54.02" height="53.96"/><path class="cls-37" d="M587.29,536.17h-3.14L534,589.28l3.14.22"/><rect class="cls-1" x="609.98" y="516.62" width="39.43" height="39.39"/><path class="cls-38" d="M649.41,516.85h-2.29l-36.64,38.77,2.29.16"/><rect class="cls-1" x="672.73" y="581.2" width="57.47" height="57.41"/><path class="cls-39" d="M730.2,581.53h-3.34L673.46,638l3.34.23"/><rect class="cls-1" x="745.55" y="574.78" width="47.99" height="47.94"/><path class="cls-40" d="M793.54,575.06h-2.78l-44.6,47.19,2.79.19"/><rect class="cls-1" x="839.6" y="523.03" width="12.82" height="12.81"/><path class="cls-41" d="M852.42,523.1h-.75l-11.91,12.61.75,0"/><rect class="cls-1" x="880.12" y="500.77" width="49.71" height="49.65"/><path class="cls-42" d="M929.83,501.06h-2.89l-46.19,48.87,2.89.2"/><rect class="cls-1" x="959.36" y="580.8" width="17.65" height="17.64"/><path class="cls-43" d="M977,580.9h-1l-16.41,17.36,1,.07"/><rect class="cls-1" x="972.46" y="558.54" width="38.27" height="38.23"/><path class="cls-44" d="M1010.74,558.76h-2.23L973,596.39l2.22.16"/><rect class="cls-1" x="905.58" y="504.32" width="23.46" height="23.44"/><path class="cls-45" d="M929,504.46h-1.36l-21.81,23.07,1.37.09"/><rect class="cls-1" x="859.41" y="429.82" width="53.54" height="53.48"/><path class="cls-46" d="M912.94,430.14h-3.1l-49.76,52.64,3.11.22"/><rect class="cls-1" x="924.15" y="478.08" width="51.33" height="51.28"/><path class="cls-47" d="M975.48,478.38h-3l-47.7,50.48,3,.21"/><rect class="cls-1" x="854.65" y="400.61" width="47.91" height="47.86"/><path class="cls-48" d="M902.57,400.88h-2.79L855.26,448l2.78.19"/><rect class="cls-1" x="796.35" y="481.98" width="31.69" height="31.65"/><path class="cls-49" d="M828,482.16h-1.85l-29.44,31.16,1.84.12"/><rect class="cls-1" x="732.24" y="510.08" width="20.69" height="20.67"/><path class="cls-50" d="M752.93,510.2h-1.2L732.5,530.54l1.2.09"/><rect class="cls-1" x="650.97" y="514.71" width="39.42" height="39.38"/><path class="cls-51" d="M690.39,514.94H688.1L651.47,553.7l2.29.16"/><rect class="cls-1" x="584.69" y="497.5" width="56.13" height="56.07"/><path class="cls-52" d="M640.82,497.82h-3.26L585.4,553l3.26.22"/><rect class="cls-1" x="534.53" y="451.41" width="40.76" height="40.72"/><path class="cls-53" d="M575.3,451.65h-2.37l-37.88,40.08,2.37.16"/><rect class="cls-1" x="466.59" y="492.68" width="33.92" height="33.89"/><path class="cls-54" d="M500.51,492.88h-2L467,526.23l2,.14"/></g><g id="Rat-background"><rect class="cls-1" x="70.2" y="471.48" width="25.74" height="25.72"/><path class="cls-55" d="M96,471.63h-1.5L70.53,496.94l1.49.11"/><rect class="cls-1" x="63.05" y="536.4" width="20.83" height="20.8"/><path class="cls-56" d="M83.88,536.52H82.67L63.32,557l1.2.08"/><rect class="cls-1" x="56.64" y="596.12" width="48.18" height="48.12"/><path class="cls-57" d="M104.82,596.4H102L57.25,643.77l2.8.2"/><rect class="cls-1" x="64.95" y="633.19" width="28.72" height="28.69"/><path class="cls-58" d="M93.67,633.36H92L65.32,661.6l1.66.11"/><rect class="cls-1" x="119.69" y="599.2" width="42.34" height="42.3"/><path class="cls-59" d="M162,599.44h-2.46l-39.35,41.64,2.46.17"/><rect class="cls-1" x="201.95" y="550.66" width="28.71" height="28.68"/><path class="cls-60" d="M230.66,550.83H229l-26.67,28.22,1.67.12"/><rect class="cls-1" x="259.99" y="536.57" width="44.48" height="44.44"/><path class="cls-61" d="M304.47,536.83h-2.58l-41.34,43.74,2.59.18"/><rect class="cls-1" x="337.68" y="586.78" width="14.06" height="14.05"/><path class="cls-62" d="M351.74,586.86h-.81l-13.07,13.83.81.06"/><rect class="cls-1" x="390.42" y="606.81" width="52.16" height="52.11"/><path class="cls-63" d="M442.58,607.12h-3l-48.47,51.29,3,.21"/><rect class="cls-1" x="389.98" y="615.62" width="35.89" height="35.86"/><path class="cls-64" d="M425.88,615.83h-2.09l-33.35,35.29,2.08.15"/><rect class="cls-1" x="419.02" y="540.47" width="57.31" height="57.25"/><path class="cls-65" d="M476.34,540.81H473l-53.26,56.35,3.33.24"/><rect class="cls-1" x="411.71" y="493.68" width="22.22" height="22.2"/><path class="cls-66" d="M433.93,493.81h-1.29L412,515.66l1.29.09"/><rect class="cls-1" x="476.51" y="421.78" width="23.28" height="23.25"/><path class="cls-67" d="M499.79,421.92h-1.35l-21.63,22.89,1.35.09"/><rect class="cls-1" x="416.48" y="410.32" width="15.49" height="15.48"/><path class="cls-68" d="M432,410.41h-.9l-14.4,15.24.9.06"/><rect class="cls-1" x="335.17" y="519.13" width="33.87" height="33.83"/><path class="cls-69" d="M369,519.33h-2L335.6,552.64l2,.13"/><rect class="cls-1" x="274.58" y="489.6" width="37.27" height="37.23"/><path class="cls-70" d="M311.85,489.82h-2.17l-34.63,36.64,2.17.15"/><rect class="cls-1" x="214.75" y="388.97" width="31.02" height="30.99"/><path class="cls-71" d="M245.77,389.15H244l-28.83,30.5,1.8.13"/><rect class="cls-1" x="151.01" y="494.05" width="36.63" height="36.59"/><path class="cls-72" d="M187.63,494.26H185.5l-34,36,2.13.15"/><rect class="cls-1" x="95.25" y="430.96" width="23.04" height="23.02"/><path class="cls-73" d="M118.29,431.09H117L95.54,453.75l1.34.09"/><rect class="cls-1" x="27.3" y="483.96" width="16.5" height="16.49"/><path class="cls-74" d="M43.8,484.06h-1L27.5,500.28l1,.07"/></g></g><g id="Sub_2" data-name="Sub 2"><g id="Red-part-2" data-name="Red-part"><rect class="cls-1" x="363.4" y="1005.56" width="48.16" height="48.11"/><path class="cls-75" d="M411.56,1005.84h-2.8L364,1053.19l2.8.2"/><rect class="cls-1" x="353.48" y="935.12" width="46.15" height="46.1"/><path class="cls-76" d="M399.63,935.39H397l-42.88,45.37,2.68.19"/><rect class="cls-1" x="420.17" y="871.7" width="22.52" height="22.5"/><path class="cls-77" d="M442.7,871.84h-1.31L420.46,894l1.31.09"/><rect class="cls-1" x="440.26" y="797.87" width="36.95" height="36.91"/><path class="cls-78" d="M477.22,798.08h-2.15l-34.34,36.34,2.15.15"/><rect class="cls-1" x="393.39" y="736.71" width="10.57" height="10.55"/><path class="cls-79" d="M404,736.78h-.61l-9.82,10.38.61.05"/><rect class="cls-1" x="449.56" y="671.37" width="16.95" height="16.93"/><path class="cls-80" d="M466.51,671.47h-1l-15.75,16.67,1,.07"/><rect class="cls-1" x="465.9" y="599.59" width="23.9" height="23.87"/><path class="cls-81" d="M489.79,599.73H488.4l-22.2,23.5,1.39.1"/><rect class="cls-1" x="450.64" y="534.04" width="19.47" height="19.45"/><path class="cls-82" d="M470.11,534.16H469l-18.1,19.15,1.14.07"/><rect class="cls-1" x="359.71" y="468.37" width="25.34" height="25.31"/><path class="cls-83" d="M385.06,468.51h-1.48L360,493.43l1.48.1"/><rect class="cls-1" x="443.34" y="401.99" width="19.14" height="19.12"/><path class="cls-84" d="M462.48,402.1h-1.12l-17.78,18.82,1.11.08"/><rect class="cls-1" x="432.52" y="320.96" width="38.05" height="38.01"/><path class="cls-85" d="M470.57,321.18h-2.21L433,358.59l2.21.16"/><rect class="cls-1" x="422.79" y="242.93" width="42.65" height="42.61"/><path class="cls-86" d="M465.44,243.18H463l-39.64,41.94,2.48.17"/><rect class="cls-1" x="422.58" y="188.81" width="32.55" height="32.52"/><path class="cls-87" d="M455.13,189h-1.89L423,221l1.89.13"/><rect class="cls-1" x="442.63" y="123.48" width="31.99" height="31.95"/><path class="cls-88" d="M474.61,123.66h-1.86L443,155.11l1.86.13"/><rect class="cls-1" x="337.85" y="66.58" width="21.54" height="21.52"/><path class="cls-89" d="M359.39,66.71h-1.25l-20,21.18,1.26.08"/><rect class="cls-1" x="358.29" y="9.74" width="18.27" height="18.25"/><path class="cls-90" d="M376.56,9.84h-1.07l-17,18,1.06.08"/></g><g id="White-part-2" data-name="White-part"><rect class="cls-1" x="430.4" y="33.17" width="15.26" height="15.24"/><path class="cls-91" d="M445.65,33.26h-.88l-14.18,15,.89.06"/><rect class="cls-1" x="509.22" y="89.19" width="36.23" height="36.19"/><path class="cls-92" d="M545.45,89.4h-2.1L509.68,125l2.11.14"/><rect class="cls-1" x="472.91" y="158.94" width="31.01" height="30.98"/><path class="cls-93" d="M503.92,159.12h-1.8L473.3,189.61l1.8.13"/><rect class="cls-1" x="555.98" y="226.63" width="14.19" height="14.18"/><path class="cls-94" d="M570.18,226.72h-.83l-13.19,13.95.83.06"/><rect class="cls-1" x="515.9" y="273.22" width="40.38" height="40.33"/><path class="cls-95" d="M556.28,273.45h-2.35l-37.52,39.7,2.35.17"/><rect class="cls-1" x="564.77" y="346.71" width="24.26" height="24.23"/><path class="cls-96" d="M589,346.85h-1.4L565.07,370.7l1.41.1"/><rect class="cls-1" x="489.56" y="419.09" width="26.28" height="26.25"/><path class="cls-97" d="M515.85,419.24h-1.53L489.9,445.09l1.52.1"/><rect class="cls-1" x="461.04" y="484.1" width="32.18" height="32.15"/><path class="cls-98" d="M493.22,484.28h-1.87l-29.91,31.65,1.87.13"/><rect class="cls-1" x="546.56" y="551.86" width="31.91" height="31.88"/><path class="cls-99" d="M578.46,552.05h-1.85L547,583.42l1.85.13"/><rect class="cls-1" x="471.35" y="611.82" width="49.77" height="49.72"/><path class="cls-100" d="M521.12,612.11h-2.89L472,661.05l2.89.2"/><rect class="cls-1" x="482.18" y="691.79" width="16.66" height="16.64"/><path class="cls-101" d="M498.83,691.88h-1l-15.48,16.38,1,.07"/><rect class="cls-1" x="550.52" y="747.02" width="47.91" height="47.86"/><path class="cls-102" d="M598.43,747.3h-2.78l-44.53,47.11,2.79.19"/><rect class="cls-1" x="507.68" y="834.85" width="23.94" height="23.91"/><path class="cls-103" d="M531.62,835h-1.39L508,858.53l1.39.1"/><rect class="cls-1" x="487.03" y="888.04" width="52.92" height="52.87"/><path class="cls-104" d="M540,888.35h-3.07l-49.19,52,3.08.21"/><rect class="cls-1" x="552.8" y="978.25" width="8.99" height="8.98"/><path class="cls-105" d="M561.79,978.3h-.52l-8.36,8.84.52,0"/><rect class="cls-1" x="531.66" y="1037.94" width="9.85" height="9.84"/><path class="cls-106" d="M541.51,1038h-.57l-9.16,9.69.57,0"/></g><g id="Skin-background-2" data-name="Skin-background"><rect class="cls-1" x="518.94" y="428.85" width="24.75" height="24.73"/><path class="cls-107" d="M543.69,429h-1.43l-23,24.34,1.43.1"/><rect class="cls-1" x="564.3" y="484.49" width="34.7" height="34.66"/><path class="cls-108" d="M599,484.69h-2l-32.24,34.12,2,.14"/><rect class="cls-1" x="424.69" y="540.98" width="38.48" height="38.44"/><path class="cls-109" d="M463.17,541.21h-2.24l-35.76,37.84,2.24.15"/><rect class="cls-1" x="513.22" y="623.74" width="24.11" height="24.09"/><path class="cls-110" d="M537.33,623.88h-1.4l-22.41,23.71,1.4.1"/><rect class="cls-1" x="507.43" y="603.49" width="43.89" height="43.84"/><path class="cls-111" d="M551.32,603.75h-2.55L508,646.9l2.54.18"/><rect class="cls-1" x="581.96" y="514.42" width="40.32" height="40.28"/><path class="cls-112" d="M622.28,514.65h-2.34L582.47,554.3l2.35.16"/><rect class="cls-1" x="645.68" y="558.56" width="50.63" height="50.58"/><path class="cls-113" d="M696.32,558.85h-2.94l-47.06,49.79,2.94.21"/><rect class="cls-1" x="715.77" y="507.81" width="54.54" height="54.48"/><path class="cls-114" d="M770.31,508.13h-3.17l-50.68,53.63,3.17.22"/><rect class="cls-1" x="799.83" y="574.08" width="18.29" height="18.27"/><path class="cls-115" d="M818.11,574.19h-1.06l-17,18,1.06.08"/><rect class="cls-1" x="848.75" y="528.66" width="39.1" height="39.06"/><path class="cls-116" d="M887.85,528.89h-2.27l-36.33,38.45,2.27.16"/><rect class="cls-1" x="905.95" y="637.56" width="52.05" height="52"/><path class="cls-117" d="M958,637.87h-3l-48.37,51.18,3,.21"/><rect class="cls-1" x="921.42" y="586.39" width="30.65" height="30.62"/><path class="cls-118" d="M952.07,586.56h-1.78L921.81,616.7l1.78.13"/><rect class="cls-1" x="913.88" y="532.82" width="12.3" height="12.29"/><path class="cls-119" d="M926.19,532.89h-.72L914,545l.72,0"/><rect class="cls-1" x="955.51" y="441.13" width="52.9" height="52.85"/><path class="cls-120" d="M1008.42,441.44h-3.08l-49.16,52,3.08.22"/><rect class="cls-1" x="908.42" y="416.17" width="54.17" height="54.12"/><path class="cls-121" d="M962.59,416.48h-3.15L909.1,469.75l3.15.22"/><rect class="cls-1" x="859.33" y="487.65" width="32.23" height="32.19"/><path class="cls-122" d="M891.56,487.84h-1.87l-30,31.69,1.87.13"/><rect class="cls-1" x="805.44" y="477.5" width="10.22" height="10.21"/><path class="cls-123" d="M815.66,477.56h-.59l-9.5,10.05.6,0"/><rect class="cls-1" x="734.29" y="405.25" width="14.62" height="14.61"/><path class="cls-124" d="M748.91,405.33h-.85l-13.58,14.38.85.06"/><rect class="cls-1" x="657.41" y="501.18" width="27.54" height="27.51"/><path class="cls-125" d="M684.94,501.34h-1.6l-25.59,27.08,1.6.11"/><rect class="cls-1" x="573.27" y="387.21" width="51.44" height="51.38"/><path class="cls-126" d="M624.71,387.5h-3l-47.8,50.58,3,.21"/><rect class="cls-1" x="506.27" y="411.23" width="32.74" height="32.71"/><path class="cls-127" d="M539,411.42h-1.9l-30.43,32.2,1.9.13"/><rect class="cls-1" x="453.49" y="480.24" width="20.12" height="20.1"/><path class="cls-128" d="M473.61,480.36h-1.17l-18.7,19.78,1.17.08"/></g><g id="Rat-background-2" data-name="Rat-background"><rect class="cls-1" x="60.57" y="442.68" width="36.99" height="36.95"/><path class="cls-129" d="M97.56,442.89H95.41L61,479.26l2.15.15"/><rect class="cls-1" x="24.05" y="507.66" width="26.96" height="26.93"/><path class="cls-130" d="M51,507.82H49.44l-25,26.5,1.57.11"/><rect class="cls-1" x="37.09" y="572.99" width="30.9" height="30.87"/><path class="cls-131" d="M68,573.17H66.2L37.48,603.56l1.8.13"/><rect class="cls-1" x="12.33" y="615.44" width="49.57" height="49.52"/><path class="cls-132" d="M61.9,615.73H59L13,664.47l2.88.2"/><rect class="cls-1" x="85.86" y="546.78" width="36.86" height="36.82"/><path class="cls-133" d="M122.72,547h-2.14L86.33,583.24l2.14.15"/><rect class="cls-1" x="152.57" y="645" width="40.42" height="40.38"/><path class="cls-134" d="M193,645.23h-2.35L153.08,685l2.35.17"/><rect class="cls-1" x="206.6" y="556.32" width="53.2" height="53.14"/><path class="cls-135" d="M259.8,556.63h-3.09l-49.43,52.31,3.09.21"/><rect class="cls-1" x="279.68" y="535.5" width="51.88" height="51.82"/><path class="cls-136" d="M331.56,535.8h-3l-48.21,51,3,.21"/><rect class="cls-1" x="352.4" y="516.68" width="39.86" height="39.82"/><path class="cls-137" d="M392.26,516.91H390l-37,39.2,2.31.16"/><rect class="cls-1" x="416.79" y="526.06" width="36.78" height="36.74"/><path class="cls-138" d="M453.57,526.28h-2.13l-34.18,36.16,2.13.15"/><rect class="cls-1" x="452.45" y="588.62" width="31.3" height="31.26"/><path class="cls-139" d="M483.75,588.81h-1.82l-29.08,30.77,1.82.13"/><rect class="cls-1" x="471.68" y="516.04" width="24.68" height="24.65"/><path class="cls-140" d="M496.35,516.18h-1.43L472,540.44l1.43.1"/><rect class="cls-1" x="455.05" y="453.03" width="23.75" height="23.72"/><path class="cls-141" d="M478.79,453.17h-1.38l-22.06,23.35,1.38.1"/><rect class="cls-1" x="441" y="421.52" width="12.46" height="12.45"/><path class="cls-142" d="M453.46,421.59h-.73l-11.57,12.25.72.05"/><rect class="cls-1" x="347.31" y="397.43" width="53.52" height="53.47"/><path class="cls-143" d="M400.83,397.74h-3.11L348,450.37l3.1.22"/><rect class="cls-1" x="269.45" y="367.73" width="57.78" height="57.72"/><path class="cls-144" d="M327.24,368.07h-3.36l-53.69,56.82,3.35.23"/><rect class="cls-1" x="217.42" y="488.86" width="20.6" height="20.57"/><path class="cls-145" d="M238,489h-1.2l-19.14,20.25,1.2.09"/><rect class="cls-1" x="122.63" y="393.92" width="58.14" height="58.07"/><path class="cls-146" d="M180.76,394.26h-3.37l-54,57.17,3.38.23"/><rect class="cls-1" x="73.44" y="454.54" width="35.19" height="35.15"/><path class="cls-147" d="M108.63,454.74h-2l-32.69,34.6,2,.14"/><rect class="cls-1" y="420.44" width="31.09" height="31.06"/><path class="cls-148" d="M31.09,420.62h-1.8L.39,451.2l1.81.13"/></g></g></g></g></svg>