<svg xmlns="http://www.w3.org/2000/svg" viewBox="0 0 1444 1024"><defs><style>.cls-1{fill:#e1605f;}.cls-2{fill:#dfdfdf;}</style></defs><title>Asset 5</title><g id="Layer_2" data-name="Layer 2"><g id="Logo"><rect id="Red-part" class="cls-1" width="720" height="1024"/><rect id="White-part" class="cls-2" x="720" width="724" height="1024"/><polygon class="cls-1" points="718 899 718 662 940 642 718 899"/><polygon class="cls-2" points="540 361 723 353 718 188 540 361"/></g><g id="Mask"><rect class="cls-2" x="752" width="692" height="210"/><polygon class="cls-2" points="1162 914 1156 1024 718 1024 763 930 1162 914"/><polygon class="cls-2" points="1275 643 1298 660 1032 914 1012 887 1275 643"/><polygon class="cls-1" points="680 742 589 975 63 930 76 730 308 771 409 719 680 742"/><polygon class="cls-1" points="456 667 506 680 456 741 389 729 456 667"/><polygon class="cls-1" points="546 730 615 661 680 677 613 741 546 730"/></g></g></svg>