<?xml version="1.0" encoding="iso-8859-1"?>
<!-- Generator: Adobe Illustrator 23.0.1, SVG Export Plug-In . SVG Version: 6.00 Build 0)  -->
<svg version="1.1" xmlns="http://www.w3.org/2000/svg" xmlns:xlink="http://www.w3.org/1999/xlink" x="0px" y="0px"
	 viewBox="0 0 1444 1023.138" style="enable-background:new 0 0 1444 1023.138;" xml:space="preserve">
<g id="Lines_1">
	<g id="Sub_3">
		<g id="Skin-background_2_">
			<g>
				<g>
					<rect x="869.571" y="375.526" style="fill:none;" width="217.447" height="180.57"/>
					<polygon style="fill-rule:evenodd;clip-rule:evenodd;fill:#020B3C;" points="869.571,556.096 906.758,555.785 
						1087.018,375.526 1049.131,375.676 					"/>
				</g>
				<g>
					<rect x="580.523" y="406.407" style="fill:none;" width="198.953" height="165.212"/>
					<polygon style="fill-rule:evenodd;clip-rule:evenodd;fill:#020B3C;" points="580.523,571.62 614.548,571.335 779.477,406.407 
						744.812,406.544 					"/>
				</g>
			</g>
		</g>
		<g id="Rat-background_2_">
			<g>
				<g>
					<rect x="429.021" y="445.807" style="fill:none;" width="202.546" height="168.196"/>
					<polygon style="fill-rule:evenodd;clip-rule:evenodd;fill:#020B3C;" points="429.021,614.003 463.66,613.713 631.567,445.807 
						596.276,445.947 					"/>
				</g>
				<g>
					<rect x="126.442" y="432.42" style="fill:none;" width="211.115" height="175.312"/>
					<polygon style="fill-rule:evenodd;clip-rule:evenodd;fill:#020B3C;" points="126.442,607.732 162.546,607.43 337.558,432.42 
						300.774,432.566 					"/>
				</g>
			</g>
		</g>
	</g>
	<g id="Sub_2">
		<g id="Skin-background_1_">
			<g>
				<g>
					<rect x="888.929" y="347.806" style="fill:none;" width="218.73" height="181.635"/>
					<polygon style="fill-rule:evenodd;clip-rule:evenodd;fill:#E1605F;" points="888.929,529.44 926.336,529.127 1107.659,347.806 
						1069.548,347.957 					"/>
				</g>
				<g>
					<rect x="599.018" y="406.016" style="fill:none;" width="201.963" height="167.712"/>
					<polygon style="fill-rule:evenodd;clip-rule:evenodd;fill:#E1605F;" points="599.018,573.728 633.557,573.439 800.982,406.016 
						765.792,406.155 					"/>
				</g>
			</g>
		</g>
		<g id="Rat-background_1_">
			<g>
				<g>
					<rect x="444.084" y="302.888" style="fill:none;" width="212.421" height="176.396"/>
					<polygon style="fill-rule:evenodd;clip-rule:evenodd;fill:#E1605F;" points="444.084,479.284 480.411,478.98 656.505,302.888 
						619.493,303.035 					"/>
				</g>
				<g>
					<rect x="148.066" y="421.742" style="fill:none;" width="207.868" height="172.615"/>
					<polygon style="fill-rule:evenodd;clip-rule:evenodd;fill:#E1605F;" points="148.066,594.356 183.615,594.059 355.934,421.742 
						319.716,421.885 					"/>
				</g>
			</g>
		</g>
	</g>
	<g id="Sub_1">
		<g id="Skin-background_4_">
			<g>
				<g>
					<rect x="914.108" y="294.657" style="fill:none;" width="208.373" height="173.034"/>
					<polygon style="fill-rule:evenodd;clip-rule:evenodd;fill:#DFDFDF;" points="914.108,467.691 949.743,467.393 
						1122.481,294.657 1086.174,294.801 					"/>
				</g>
				<g>
					<rect x="611.079" y="432.248" style="fill:none;" width="217.842" height="180.898"/>
					<polygon style="fill-rule:evenodd;clip-rule:evenodd;fill:#DFDFDF;" points="611.079,613.146 648.333,612.834 828.921,432.248 
						790.965,432.398 					"/>
				</g>
			</g>
		</g>
		<g id="Rat-background_4_">
			<g>
				<g>
					<rect x="466.433" y="397.317" style="fill:none;" width="207.722" height="172.494"/>
					<polygon style="fill-rule:evenodd;clip-rule:evenodd;fill:#DFDFDF;" points="466.433,569.811 501.957,569.514 674.155,397.317 
						637.962,397.46 					"/>
				</g>
				<g>
					<rect x="169.738" y="391.072" style="fill:none;" width="204.525" height="169.839"/>
					<polygon style="fill-rule:evenodd;clip-rule:evenodd;fill:#DFDFDF;" points="169.738,560.911 204.715,560.619 374.262,391.072 
						338.627,391.213 					"/>
				</g>
			</g>
		</g>
	</g>
	<g id="Sub_4">
		<g id="Skin-background_22_">
			<g>
				<g>
					<rect x="914.895" y="365.323" style="fill:none;" width="206.798" height="171.726"/>
					<polygon style="fill-rule:evenodd;clip-rule:evenodd;fill:#DFDFDF;" points="914.895,537.049 950.261,536.753 
						1121.693,365.323 1085.661,365.466 					"/>
				</g>
				<g>
					<rect x="613.578" y="345.569" style="fill:none;" width="212.845" height="176.748"/>
					<polygon style="fill-rule:evenodd;clip-rule:evenodd;fill:#DFDFDF;" points="613.578,522.317 649.977,522.012 826.422,345.569 
						789.337,345.715 					"/>
				</g>
			</g>
		</g>
		<g id="Rat-background_22_">
			<g>
				<g>
					<rect x="466.019" y="386.283" style="fill:none;" width="208.55" height="173.182"/>
					<polygon style="fill-rule:evenodd;clip-rule:evenodd;fill:#DFDFDF;" points="466.019,559.465 501.685,559.166 674.569,386.283 
						638.232,386.427 					"/>
				</g>
				<g>
					<rect x="168.05" y="367.176" style="fill:none;" width="207.901" height="172.642"/>
					<polygon style="fill-rule:evenodd;clip-rule:evenodd;fill:#DFDFDF;" points="168.05,539.818 203.604,539.521 375.95,367.176 
						339.727,367.319 					"/>
				</g>
			</g>
		</g>
	</g>
</g>
<g id="Layer_1">
</g>
</svg>
