<?xml version="1.0" encoding="iso-8859-1"?>
<!-- Generator: Adobe Illustrator 23.0.1, SVG Export Plug-In . SVG Version: 6.00 Build 0)  -->
<svg version="1.1" xmlns="http://www.w3.org/2000/svg" xmlns:xlink="http://www.w3.org/1999/xlink" x="0px" y="0px"
	 viewBox="0 0 1444 1023.138" style="enable-background:new 0 0 1444 1023.138;" xml:space="preserve">
<g id="Lines_3">
	<g id="Lines_5">
		<g id="Skin-background_1_">
			<g>
				<g>
					<rect x="887.567" y="277.043" style="fill:none;" width="282.73" height="280.306"/>
					<polygon style="fill-rule:evenodd;clip-rule:evenodd;fill:#020B3C;" points="887.567,557.124 889.99,557.349 1170.297,277.043 
						1167.634,277.058 					"/>
				</g>
				<g>
					<rect x="803.107" y="375.672" style="fill:none;" width="394.33" height="390.95"/>
					<polygon style="fill-rule:evenodd;clip-rule:evenodd;fill:#020B3C;" points="803.107,766.309 806.487,766.622 
						1197.437,375.672 1193.723,375.693 					"/>
				</g>
				<g>
					<rect x="588.137" y="206.223" style="fill:none;" width="391.882" height="388.523"/>
					<polygon style="fill-rule:evenodd;clip-rule:evenodd;fill:#020B3C;" points="588.137,594.435 591.496,594.747 980.019,206.223 
						976.328,206.244 					"/>
				</g>
				<g>
					<rect x="819.185" y="172.685" style="fill:none;" width="277.7" height="275.32"/>
					<polygon style="fill-rule:evenodd;clip-rule:evenodd;fill:#020B3C;" points="819.185,447.784 821.565,448.004 
						1096.885,172.685 1094.27,172.699 					"/>
				</g>
				<g>
					<rect x="975.065" y="108.234" style="fill:none;" width="335.056" height="332.184"/>
					<polygon style="fill-rule:evenodd;clip-rule:evenodd;fill:#020B3C;" points="975.065,440.152 977.937,440.418 1310.12,108.234 
						1306.965,108.252 					"/>
				</g>
				<g>
					<rect x="639.956" y="333.25" style="fill:none;" width="347.009" height="344.034"/>
					<polygon style="fill-rule:evenodd;clip-rule:evenodd;fill:#020B3C;" points="639.956,677.009 642.93,677.284 986.964,333.25 
						983.696,333.268 					"/>
				</g>
				<g>
					<rect x="1032.334" y="564.121" style="fill:none;" width="245.97" height="243.861"/>
					<polygon style="fill-rule:evenodd;clip-rule:evenodd;fill:#020B3C;" points="1032.334,807.787 1034.442,807.982 
						1278.304,564.121 1275.987,564.134 					"/>
				</g>
				<g>
					<rect x="784.303" y="470.907" style="fill:none;" width="405.122" height="401.65"/>
					<polygon style="fill-rule:evenodd;clip-rule:evenodd;fill:#020B3C;" points="784.303,872.235 787.775,872.556 
						1189.425,470.907 1185.609,470.928 					"/>
				</g>
				<g>
					<rect x="723.354" y="579.617" style="fill:none;" width="239.031" height="236.982"/>
					<polygon style="fill-rule:evenodd;clip-rule:evenodd;fill:#020B3C;" points="723.354,816.41 725.403,816.6 962.386,579.617 
						960.134,579.63 					"/>
				</g>
				<g>
					<rect x="538.531" y="543.258" style="fill:none;" width="282.938" height="280.512"/>
					<polygon style="fill-rule:evenodd;clip-rule:evenodd;fill:#020B3C;" points="538.531,823.546 540.956,823.771 821.469,543.258 
						818.804,543.273 					"/>
				</g>
			</g>
		</g>
		<g id="Rat-background_1_">
			<g>
				<g>
					<rect x="339.62" y="328.429" style="fill:none;" width="204.556" height="202.803"/>
					<polygon style="fill-rule:evenodd;clip-rule:evenodd;fill:#020B3C;" points="339.62,531.069 341.373,531.232 544.176,328.429 
						542.249,328.44 					"/>
				</g>
				<g>
					<rect x="506.286" y="498.825" style="fill:none;" width="236.981" height="234.949"/>
					<polygon style="fill-rule:evenodd;clip-rule:evenodd;fill:#020B3C;" points="506.286,733.586 508.318,733.774 743.267,498.825 
						741.035,498.837 					"/>
				</g>
				<g>
					<rect x="201.738" y="205.906" style="fill:none;" width="399.161" height="395.74"/>
					<polygon style="fill-rule:evenodd;clip-rule:evenodd;fill:#020B3C;" points="201.738,601.329 205.16,601.646 600.899,205.906 
						597.14,205.928 					"/>
				</g>
				<g>
					<rect x="413.22" y="141.148" style="fill:none;" width="352.822" height="349.797"/>
					<polygon style="fill-rule:evenodd;clip-rule:evenodd;fill:#020B3C;" points="413.22,490.666 416.244,490.946 766.042,141.148 
						762.719,141.167 					"/>
				</g>
				<g>
					<rect x="262.29" y="482.29" style="fill:none;" width="241.259" height="239.191"/>
					<polygon style="fill-rule:evenodd;clip-rule:evenodd;fill:#020B3C;" points="262.29,721.29 264.358,721.481 503.549,482.29 
						501.277,482.303 					"/>
				</g>
				<g>
					<rect x="282.453" y="274.891" style="fill:none;" width="377.183" height="373.95"/>
					<polygon style="fill-rule:evenodd;clip-rule:evenodd;fill:#020B3C;" points="282.453,648.542 285.686,648.841 659.636,274.891 
						656.083,274.911 					"/>
				</g>
				<g>
					<rect x="504.492" y="652.7" style="fill:none;" width="217.731" height="215.864"/>
					<polygon style="fill-rule:evenodd;clip-rule:evenodd;fill:#020B3C;" points="504.492,868.391 506.358,868.564 722.223,652.7 
						720.172,652.712 					"/>
				</g>
				<g>
					<rect x="321.148" y="480.641" style="fill:none;" width="323.984" height="321.207"/>
					<polygon style="fill-rule:evenodd;clip-rule:evenodd;fill:#020B3C;" points="321.148,801.59 323.925,801.848 645.132,480.641 
						642.081,480.658 					"/>
				</g>
				<g>
					<rect x="238.074" y="523.728" style="fill:none;" width="223.536" height="221.62"/>
					<polygon style="fill-rule:evenodd;clip-rule:evenodd;fill:#020B3C;" points="238.074,745.171 239.99,745.348 461.61,523.728 
						459.505,523.74 					"/>
				</g>
				<g>
					<rect x="88.717" y="629.246" style="fill:none;" width="286.566" height="284.11"/>
					<polygon style="fill-rule:evenodd;clip-rule:evenodd;fill:#020B3C;" points="88.717,913.128 91.173,913.355 375.283,629.246 
						372.584,629.261 					"/>
				</g>
			</g>
		</g>
	</g>
	<g id="Sub_1_copy">
		<g id="Skin-background_15_">
			<g>
				<g>
					<rect x="880.261" y="403.197" style="fill:none;" width="235.946" height="233.924"/>
					<polygon style="fill-rule:evenodd;clip-rule:evenodd;fill:#DFDFDF;" points="880.261,636.934 882.283,637.121 
						1116.207,403.197 1113.985,403.21 					"/>
				</g>
				<g>
					<rect x="700.992" y="206.046" style="fill:none;" width="212.155" height="210.336"/>
					<polygon style="fill-rule:evenodd;clip-rule:evenodd;fill:#DFDFDF;" points="700.992,416.214 702.811,416.382 913.147,206.046 
						911.149,206.058 					"/>
				</g>
				<g>
					<rect x="815.08" y="136.797" style="fill:none;" width="365.542" height="362.409"/>
					<polygon style="fill-rule:evenodd;clip-rule:evenodd;fill:#DFDFDF;" points="815.08,498.915 818.214,499.206 1180.622,136.797 
						1177.18,136.816 					"/>
				</g>
				<g>
					<rect x="906.237" y="190.229" style="fill:none;" width="399.115" height="395.694"/>
					<polygon style="fill-rule:evenodd;clip-rule:evenodd;fill:#DFDFDF;" points="906.237,585.606 909.658,585.923 
						1305.352,190.229 1301.593,190.25 					"/>
				</g>
				<g>
					<rect x="795.253" y="450.726" style="fill:none;" width="253.25" height="251.08"/>
					<polygon style="fill-rule:evenodd;clip-rule:evenodd;fill:#DFDFDF;" points="795.253,701.604 797.424,701.805 
						1048.503,450.726 1046.118,450.739 					"/>
				</g>
				<g>
					<rect x="835.185" y="333.371" style="fill:none;" width="242.99" height="240.908"/>
					<polygon style="fill-rule:evenodd;clip-rule:evenodd;fill:#DFDFDF;" points="835.185,574.085 837.268,574.278 
						1078.176,333.371 1075.887,333.384 					"/>
				</g>
				<g>
					<rect x="916.715" y="443.305" style="fill:none;" width="342.12" height="339.188"/>
					<polygon style="fill-rule:evenodd;clip-rule:evenodd;fill:#DFDFDF;" points="916.715,782.22 919.648,782.492 1258.835,443.305 
						1255.613,443.323 					"/>
				</g>
				<g>
					<rect x="793.939" y="581.637" style="fill:none;" width="367.945" height="364.791"/>
					<polygon style="fill-rule:evenodd;clip-rule:evenodd;fill:#DFDFDF;" points="793.939,946.136 797.093,946.428 
						1161.884,581.637 1158.418,581.657 					"/>
				</g>
				<g>
					<rect x="642.465" y="574.498" style="fill:none;" width="388.675" height="385.344"/>
					<polygon style="fill-rule:evenodd;clip-rule:evenodd;fill:#DFDFDF;" points="642.465,959.533 645.796,959.842 1031.14,574.498 
						1027.479,574.518 					"/>
				</g>
				<g>
					<rect x="545.622" y="614.732" style="fill:none;" width="348.757" height="345.768"/>
					<polygon style="fill-rule:evenodd;clip-rule:evenodd;fill:#DFDFDF;" points="545.622,960.222 548.611,960.499 894.378,614.732 
						891.094,614.75 					"/>
				</g>
			</g>
		</g>
		<g id="Rat-background_15_">
			<g>
				<g>
					<rect x="374.251" y="266.378" style="fill:none;" width="396.511" height="393.112"/>
					<polygon style="fill-rule:evenodd;clip-rule:evenodd;fill:#DFDFDF;" points="374.251,659.175 377.65,659.49 770.761,266.378 
						767.027,266.399 					"/>
				</g>
				<g>
					<rect x="316.371" y="222.061" style="fill:none;" width="360.477" height="357.387"/>
					<polygon style="fill-rule:evenodd;clip-rule:evenodd;fill:#DFDFDF;" points="316.371,579.162 319.461,579.448 676.848,222.061 
						673.453,222.08 					"/>
				</g>
				<g>
					<rect x="324.277" y="148.988" style="fill:none;" width="287.096" height="284.635"/>
					<polygon style="fill-rule:evenodd;clip-rule:evenodd;fill:#DFDFDF;" points="324.277,433.395 326.738,433.623 611.372,148.988 
						608.668,149.003 					"/>
				</g>
				<g>
					<rect x="486.315" y="161.836" style="fill:none;" width="277.597" height="275.218"/>
					<polygon style="fill-rule:evenodd;clip-rule:evenodd;fill:#DFDFDF;" points="486.315,436.833 488.695,437.053 763.912,161.836 
						761.298,161.85 					"/>
				</g>
				<g>
					<rect x="355.561" y="490.703" style="fill:none;" width="206.172" height="204.405"/>
					<polygon style="fill-rule:evenodd;clip-rule:evenodd;fill:#DFDFDF;" points="355.561,694.944 357.328,695.107 561.733,490.703 
						559.791,490.714 					"/>
				</g>
				<g>
					<rect x="235.234" y="340.461" style="fill:none;" width="236.092" height="234.068"/>
					<polygon style="fill-rule:evenodd;clip-rule:evenodd;fill:#DFDFDF;" points="235.234,574.341 237.257,574.529 471.325,340.461 
						469.102,340.473 					"/>
				</g>
				<g>
					<rect x="465.368" y="577.432" style="fill:none;" width="280.752" height="278.345"/>
					<polygon style="fill-rule:evenodd;clip-rule:evenodd;fill:#DFDFDF;" points="465.368,855.554 467.775,855.777 746.12,577.432 
						743.475,577.447 					"/>
				</g>
				<g>
					<rect x="272.88" y="527.97" style="fill:none;" width="365.823" height="362.687"/>
					<polygon style="fill-rule:evenodd;clip-rule:evenodd;fill:#DFDFDF;" points="272.88,890.367 276.015,890.657 638.703,527.97 
						635.257,527.989 					"/>
				</g>
				<g>
					<rect x="95.649" y="544.627" style="fill:none;" width="352.701" height="349.678"/>
					<polygon style="fill-rule:evenodd;clip-rule:evenodd;fill:#DFDFDF;" points="95.649,894.025 98.673,894.305 448.351,544.627 
						445.029,544.646 					"/>
				</g>
			</g>
		</g>
	</g>
	<g id="Sub_1_copy_2">
		<g id="Skin-background_7_">
			<g>
				<g>
					<rect x="865.048" y="297.951" style="fill:none;" width="379.31" height="376.058"/>
					<polygon style="fill-rule:evenodd;clip-rule:evenodd;fill:#DFDFDF;" points="865.048,673.708 868.299,674.009 
						1244.358,297.951 1240.785,297.971 					"/>
				</g>
				<g>
					<rect x="614.247" y="101.921" style="fill:none;" width="254.267" height="252.088"/>
					<polygon style="fill-rule:evenodd;clip-rule:evenodd;fill:#DFDFDF;" points="614.247,353.807 616.427,354.009 868.515,101.921 
						866.12,101.934 					"/>
				</g>
				<g>
					<rect x="781.95" y="213.109" style="fill:none;" width="208.748" height="206.959"/>
					<polygon style="fill-rule:evenodd;clip-rule:evenodd;fill:#DFDFDF;" points="781.95,419.902 783.739,420.067 990.698,213.109 
						988.732,213.12 					"/>
				</g>
				<g>
					<rect x="837.076" y="104.417" style="fill:none;" width="321.881" height="319.122"/>
					<polygon style="fill-rule:evenodd;clip-rule:evenodd;fill:#DFDFDF;" points="837.076,423.284 839.835,423.539 
						1158.958,104.417 1155.926,104.434 					"/>
				</g>
				<g>
					<rect x="1047.005" y="199.628" style="fill:none;" width="234.521" height="232.511"/>
					<polygon style="fill-rule:evenodd;clip-rule:evenodd;fill:#DFDFDF;" points="1047.005,431.953 1049.015,432.139 
						1281.526,199.628 1279.317,199.64 					"/>
				</g>
				<g>
					<rect x="855.675" y="438.842" style="fill:none;" width="225.804" height="223.869"/>
					<polygon style="fill-rule:evenodd;clip-rule:evenodd;fill:#DFDFDF;" points="855.675,662.532 857.611,662.711 1081.48,438.842 
						1079.353,438.854 					"/>
				</g>
				<g>
					<rect x="886.807" y="410.438" style="fill:none;" width="301.101" height="298.52"/>
					<polygon style="fill-rule:evenodd;clip-rule:evenodd;fill:#DFDFDF;" points="886.807,708.719 889.387,708.958 
						1187.908,410.438 1185.072,410.454 					"/>
				</g>
				<g>
					<rect x="868.141" y="467.462" style="fill:none;" width="280.466" height="278.062"/>
					<polygon style="fill-rule:evenodd;clip-rule:evenodd;fill:#DFDFDF;" points="868.141,745.301 870.545,745.524 
						1148.607,467.462 1145.965,467.477 					"/>
				</g>
				<g>
					<rect x="694.993" y="511.711" style="fill:none;" width="270.701" height="268.381"/>
					<polygon style="fill-rule:evenodd;clip-rule:evenodd;fill:#DFDFDF;" points="694.993,779.876 697.313,780.091 965.694,511.711 
						963.144,511.725 					"/>
				</g>
				<g>
					<rect x="582.376" y="507.61" style="fill:none;" width="275.247" height="272.888"/>
					<polygon style="fill-rule:evenodd;clip-rule:evenodd;fill:#DFDFDF;" points="582.376,780.279 584.736,780.498 857.624,507.61 
						855.031,507.624 					"/>
				</g>
			</g>
		</g>
		<g id="Rat-background_7_">
			<g>
				<g>
					<rect x="477.736" y="333.763" style="fill:none;" width="275.769" height="273.405"/>
					<polygon style="fill-rule:evenodd;clip-rule:evenodd;fill:#DFDFDF;" points="477.736,606.949 480.1,607.168 753.505,333.763 
						750.908,333.777 					"/>
				</g>
				<g>
					<rect x="427.198" y="491.807" style="fill:none;" width="218.899" height="217.022"/>
					<polygon style="fill-rule:evenodd;clip-rule:evenodd;fill:#DFDFDF;" points="427.198,708.656 429.074,708.83 646.097,491.807 
						644.035,491.819 					"/>
				</g>
				<g>
					<rect x="243.102" y="253.404" style="fill:none;" width="294.824" height="292.297"/>
					<polygon style="fill-rule:evenodd;clip-rule:evenodd;fill:#DFDFDF;" points="243.102,545.467 245.63,545.701 537.927,253.404 
						535.15,253.42 					"/>
				</g>
				<g>
					<rect x="446.823" y="130.05" style="fill:none;" width="247.136" height="245.018"/>
					<polygon style="fill-rule:evenodd;clip-rule:evenodd;fill:#DFDFDF;" points="446.823,374.872 448.941,375.068 693.959,130.05 
						691.631,130.063 					"/>
				</g>
				<g>
					<rect x="420.462" y="320.058" style="fill:none;" width="269.664" height="267.352"/>
					<polygon style="fill-rule:evenodd;clip-rule:evenodd;fill:#DFDFDF;" points="420.462,587.196 422.774,587.41 690.126,320.058 
						687.586,320.072 					"/>
				</g>
				<g>
					<rect x="237.384" y="278.72" style="fill:none;" width="311.008" height="308.342"/>
					<polygon style="fill-rule:evenodd;clip-rule:evenodd;fill:#DFDFDF;" points="237.384,586.815 240.05,587.062 548.392,278.72 
						545.463,278.736 					"/>
				</g>
				<g>
					<rect x="418.338" y="637.64" style="fill:none;" width="318.967" height="316.233"/>
					<polygon style="fill-rule:evenodd;clip-rule:evenodd;fill:#DFDFDF;" points="418.338,953.619 421.072,953.873 737.305,637.64 
						734.301,637.656 					"/>
				</g>
				<g>
					<rect x="306.826" y="493.567" style="fill:none;" width="284.941" height="282.499"/>
					<polygon style="fill-rule:evenodd;clip-rule:evenodd;fill:#DFDFDF;" points="306.826,775.839 309.268,776.065 591.767,493.567 
						589.083,493.582 					"/>
				</g>
				<g>
					<rect x="139.071" y="656.064" style="fill:none;" width="265.858" height="263.58"/>
					<polygon style="fill-rule:evenodd;clip-rule:evenodd;fill:#DFDFDF;" points="139.071,919.432 141.35,919.643 404.929,656.064 
						402.425,656.078 					"/>
				</g>
			</g>
		</g>
	</g>
	<g id="Sub_2_copy">
		<g id="Skin-background_13_">
			<g>
				<g>
					<rect x="850.269" y="348.058" style="fill:none;" width="359.807" height="356.723"/>
					<polygon style="fill-rule:evenodd;clip-rule:evenodd;fill:#E1605F;" points="850.269,704.496 853.354,704.781 
						1210.077,348.058 1206.688,348.077 					"/>
				</g>
				<g>
					<rect x="649.414" y="161.545" style="fill:none;" width="211.229" height="209.418"/>
					<polygon style="fill-rule:evenodd;clip-rule:evenodd;fill:#E1605F;" points="649.414,370.796 651.225,370.964 860.643,161.545 
						858.654,161.556 					"/>
				</g>
				<g>
					<rect x="761.431" y="178.121" style="fill:none;" width="321.475" height="318.72"/>
					<polygon style="fill-rule:evenodd;clip-rule:evenodd;fill:#E1605F;" points="761.431,496.586 764.186,496.841 
						1082.906,178.121 1079.878,178.138 					"/>
				</g>
				<g>
					<rect x="935.445" y="143.422" style="fill:none;" width="210.433" height="208.63"/>
					<polygon style="fill-rule:evenodd;clip-rule:evenodd;fill:#E1605F;" points="935.445,351.885 937.248,352.052 
						1145.878,143.422 1143.896,143.433 					"/>
				</g>
				<g>
					<rect x="1019.657" y="140.555" style="fill:none;" width="287.101" height="284.641"/>
					<polygon style="fill-rule:evenodd;clip-rule:evenodd;fill:#E1605F;" points="1019.657,424.967 1022.118,425.195 
						1306.759,140.555 1304.055,140.57 					"/>
				</g>
				<g>
					<rect x="635.095" y="309.146" style="fill:none;" width="347.945" height="344.963"/>
					<polygon style="fill-rule:evenodd;clip-rule:evenodd;fill:#E1605F;" points="635.095,653.832 638.078,654.108 983.041,309.146 
						979.763,309.164 					"/>
				</g>
				<g>
					<rect x="979.174" y="433.577" style="fill:none;" width="345.837" height="342.873"/>
					<polygon style="fill-rule:evenodd;clip-rule:evenodd;fill:#E1605F;" points="979.174,776.175 982.138,776.45 1325.011,433.577 
						1321.754,433.595 					"/>
				</g>
				<g>
					<rect x="838.045" y="596.79" style="fill:none;" width="313.304" height="310.618"/>
					<polygon style="fill-rule:evenodd;clip-rule:evenodd;fill:#E1605F;" points="838.045,907.159 840.731,907.408 1151.349,596.79 
						1148.398,596.806 					"/>
				</g>
				<g>
					<rect x="734.125" y="622.01" style="fill:none;" width="278.609" height="276.221"/>
					<polygon style="fill-rule:evenodd;clip-rule:evenodd;fill:#E1605F;" points="734.125,898.01 736.513,898.231 1012.734,622.01 
						1010.11,622.024 					"/>
				</g>
				<g>
					<rect x="565.678" y="500.408" style="fill:none;" width="268.644" height="266.342"/>
					<polygon style="fill-rule:evenodd;clip-rule:evenodd;fill:#E1605F;" points="565.678,766.537 567.98,766.75 834.322,500.408 
						831.792,500.422 					"/>
				</g>
			</g>
		</g>
		<g id="Rat-background_13_">
			<g>
				<g>
					<rect x="355.582" y="365.777" style="fill:none;" width="216.853" height="214.994"/>
					<polygon style="fill-rule:evenodd;clip-rule:evenodd;fill:#E1605F;" points="355.582,580.599 357.441,580.771 572.435,365.777 
						570.393,365.788 					"/>
				</g>
				<g>
					<rect x="345.65" y="281.754" style="fill:none;" width="251.414" height="249.259"/>
					<polygon style="fill-rule:evenodd;clip-rule:evenodd;fill:#E1605F;" points="345.65,530.813 347.805,531.013 597.064,281.754 
						594.696,281.767 					"/>
				</g>
				<g>
					<rect x="317.466" y="285.615" style="fill:none;" width="225.13" height="223.201"/>
					<polygon style="fill-rule:evenodd;clip-rule:evenodd;fill:#E1605F;" points="317.466,508.637 319.396,508.816 542.597,285.615 
						540.476,285.627 					"/>
				</g>
				<g>
					<rect x="511.667" y="214.107" style="fill:none;" width="212.45" height="210.629"/>
					<polygon style="fill-rule:evenodd;clip-rule:evenodd;fill:#E1605F;" points="511.667,424.567 513.488,424.736 724.118,214.107 
						722.117,214.118 					"/>
				</g>
				<g>
					<rect x="107.015" y="323.614" style="fill:none;" width="402.215" height="398.768"/>
					<polygon style="fill-rule:evenodd;clip-rule:evenodd;fill:#E1605F;" points="107.015,722.063 110.463,722.382 509.231,323.614 
						505.442,323.636 					"/>
				</g>
				<g>
					<rect x="489.671" y="449.28" style="fill:none;" width="355.335" height="352.289"/>
					<polygon style="fill-rule:evenodd;clip-rule:evenodd;fill:#E1605F;" points="489.671,801.286 492.717,801.569 845.006,449.28 
						841.659,449.298 					"/>
				</g>
				<g>
					<rect x="373.188" y="509.967" style="fill:none;" width="302.706" height="300.111"/>
					<polygon style="fill-rule:evenodd;clip-rule:evenodd;fill:#E1605F;" points="373.188,809.838 375.783,810.078 675.894,509.967 
						673.043,509.983 					"/>
				</g>
				<g>
					<rect x="208.093" y="425.759" style="fill:none;" width="370.461" height="367.286"/>
					<polygon style="fill-rule:evenodd;clip-rule:evenodd;fill:#E1605F;" points="208.093,792.751 211.268,793.045 578.554,425.759 
						575.065,425.779 					"/>
				</g>
				<g>
					<rect x="50.729" y="495.787" style="fill:none;" width="402.542" height="399.092"/>
					<polygon style="fill-rule:evenodd;clip-rule:evenodd;fill:#E1605F;" points="50.729,894.56 54.179,894.879 453.271,495.787 
						449.48,495.809 					"/>
				</g>
			</g>
		</g>
	</g>
</g>
<g id="Layer_1">
</g>
</svg>
